<svg width="48" height="48" viewBox="0 0 48 48" fill="none" xmlns="http://www.w3.org/2000/svg">
<g clip-path="url(#clip0_19_1185)">
<path d="M7.60303 0H41.5686V48H7.60303V0Z" fill="white"/>
<path d="M-9.375 0H7.60313V48H-9.375V0ZM41.5688 0H58.5469V48H41.5688V0ZM12.6844 23.1937L11.3719 23.6437L17.5031 29.0344C17.9719 30.4219 17.3438 30.825 16.9406 31.5563L23.5969 30.7125L23.4281 37.4156L24.8156 37.3688L24.5062 30.7219L31.1813 31.5094C30.7687 30.6375 30.4031 30.1781 30.7781 28.7906L36.9094 23.6813L35.8406 23.2969C34.9594 22.6125 36.2156 20.0344 36.4031 18.4031C36.4031 18.4031 32.8313 19.6313 32.5969 18.9844L31.6687 17.25L28.425 20.8125C28.0688 20.9062 27.9188 20.7563 27.8344 20.4562L29.3344 12.9844L26.9531 14.325C26.7562 14.4094 26.5594 14.325 26.4281 14.1L24.1312 9.50625L21.7688 14.2781C21.5906 14.4469 21.4125 14.4656 21.2625 14.3531L18.9938 13.0781L20.3531 20.5031C20.25 20.7844 19.9875 20.8781 19.6875 20.7188L16.5656 17.175C16.1625 17.8312 15.8813 18.9 15.3469 19.1437C14.8125 19.3594 13.0031 18.6844 11.7938 18.4219C12.2063 19.9125 13.5 22.3875 12.6844 23.2031V23.1937Z" fill="#D52B1E"/>
</g>
<defs>
<clipPath id="clip0_19_1185">
<rect width="48" height="48" rx="14" fill="white"/>
</clipPath>
</defs>
</svg>
