<svg width="48" height="48" viewBox="0 0 48 48" fill="none" xmlns="http://www.w3.org/2000/svg">
<g clip-path="url(#clip0_19_964)">
<path d="M0 0H48V48H0V0Z" fill="#003399"/>
<path d="M23.9999 7.63245L23.2888 10.0028L24.474 10.2399L23.9999 7.63245Z" fill="#FFCC00"/>
<path d="M23.9998 7.63245L24.7109 10.0028L23.5258 10.2399L23.9998 7.63245Z" fill="#FFCC00"/>
<path d="M26.2544 9.2703L23.7803 9.32648L23.9211 10.5269L26.2544 9.2703Z" fill="#FFCC00"/>
<path d="M26.2544 9.27035L24.2198 10.6791L23.6281 9.62521L26.2544 9.27035Z" fill="#FFCC00"/>
<path d="M25.3932 11.9204L24.5752 9.58477L23.4771 10.0896L25.3932 11.9204Z" fill="#FFCC00"/>
<path d="M25.3932 11.9204L23.4246 10.4207L24.2441 9.53231L25.3932 11.9204Z" fill="#FFCC00"/>
<path d="M21.7456 9.2703L24.2197 9.32648L24.0789 10.5269L21.7456 9.2703Z" fill="#FFCC00"/>
<path d="M21.7456 9.27035L23.7802 10.6791L24.3719 9.62521L21.7456 9.27035Z" fill="#FFCC00"/>
<path d="M22.6068 11.9204L23.4248 9.58477L24.5229 10.0896L22.6068 11.9204Z" fill="#FFCC00"/>
<path d="M22.6068 11.9204L24.5754 10.4207L23.7559 9.53231L22.6068 11.9204Z" fill="#FFCC00"/>
<path d="M23.9999 36.0769L23.2888 38.4473L24.474 38.6843L23.9999 36.0769Z" fill="#FFCC00"/>
<path d="M23.9998 36.0769L24.7109 38.4473L23.5258 38.6843L23.9998 36.0769Z" fill="#FFCC00"/>
<path d="M26.2544 37.7148L23.7803 37.7709L23.9211 38.9714L26.2544 37.7148Z" fill="#FFCC00"/>
<path d="M26.2544 37.7148L24.2198 39.1236L23.6281 38.0697L26.2544 37.7148Z" fill="#FFCC00"/>
<path d="M25.3932 40.3649L24.5752 38.0292L23.4771 38.5341L25.3932 40.3649Z" fill="#FFCC00"/>
<path d="M25.3932 40.3649L23.4246 38.8652L24.2441 37.9768L25.3932 40.3649Z" fill="#FFCC00"/>
<path d="M21.7456 37.7148L24.2197 37.7709L24.0789 38.9714L21.7456 37.7148Z" fill="#FFCC00"/>
<path d="M21.7456 37.7148L23.7802 39.1236L24.3719 38.0697L21.7456 37.7148Z" fill="#FFCC00"/>
<path d="M22.6068 40.3649L23.4248 38.0292L24.5229 38.5341L22.6068 40.3649Z" fill="#FFCC00"/>
<path d="M22.6068 40.3649L24.5754 38.8652L23.7559 37.9768L22.6068 40.3649Z" fill="#FFCC00"/>
<path d="M9.77776 21.8546L9.06665 24.225L10.2518 24.462L9.77776 21.8546Z" fill="#FFCC00"/>
<path d="M9.77766 21.8546L10.4888 24.225L9.30358 24.462L9.77766 21.8546Z" fill="#FFCC00"/>
<path d="M12.0322 23.4925L9.55814 23.5486L9.69895 24.7491L12.0322 23.4925Z" fill="#FFCC00"/>
<path d="M12.0322 23.4925L9.9976 24.9013L9.40592 23.8474L12.0322 23.4925Z" fill="#FFCC00"/>
<path d="M11.171 26.1426L10.3531 23.8069L9.25491 24.3118L11.171 26.1426Z" fill="#FFCC00"/>
<path d="M11.171 26.1426L9.20243 24.6429L10.0219 23.7545L11.171 26.1426Z" fill="#FFCC00"/>
<path d="M7.52342 23.4925L9.99752 23.5486L9.85671 24.7491L7.52342 23.4925Z" fill="#FFCC00"/>
<path d="M7.52346 23.4925L9.55807 24.9013L10.1497 23.8474L7.52346 23.4925Z" fill="#FFCC00"/>
<path d="M8.38463 26.1426L9.20259 23.8069L10.3008 24.3118L8.38463 26.1426Z" fill="#FFCC00"/>
<path d="M8.38466 26.1426L10.3532 24.6429L9.53372 23.7545L8.38466 26.1426Z" fill="#FFCC00"/>
<path d="M15.6701 13.9332L17.6386 12.4335L16.8191 11.5451L15.6701 13.9332Z" fill="#FFCC00"/>
<path d="M15.67 13.9332L16.488 11.5976L17.5862 12.1025L15.67 13.9332Z" fill="#FFCC00"/>
<path d="M14.8091 11.283L16.8437 12.6918L17.4354 11.6379L14.8091 11.283Z" fill="#FFCC00"/>
<path d="M14.8091 11.283L17.2832 11.3392L17.1424 12.5396L14.8091 11.283Z" fill="#FFCC00"/>
<path d="M17.0634 9.64514L16.3523 12.0155L17.5375 12.2525L17.0634 9.64514Z" fill="#FFCC00"/>
<path d="M17.0633 9.64514L17.7744 12.0155L16.5892 12.2525L17.0633 9.64514Z" fill="#FFCC00"/>
<path d="M18.4564 13.9332L16.4878 12.4335L17.3073 11.5451L18.4564 13.9332Z" fill="#FFCC00"/>
<path d="M18.4564 13.9332L17.6385 11.5976L16.5403 12.1025L18.4564 13.9332Z" fill="#FFCC00"/>
<path d="M19.3176 11.283L17.283 12.6918L16.6913 11.6379L19.3176 11.283Z" fill="#FFCC00"/>
<path d="M19.3176 11.283L16.8435 11.3392L16.9844 12.5396L19.3176 11.283Z" fill="#FFCC00"/>
<path d="M13.184 19.2061L12.366 16.8704L11.2678 17.3753L13.184 19.2061Z" fill="#FFCC00"/>
<path d="M13.1839 19.206L11.2154 17.7064L12.0349 16.818L13.1839 19.206Z" fill="#FFCC00"/>
<path d="M10.3976 19.206L12.3662 17.7064L11.5467 16.818L10.3976 19.206Z" fill="#FFCC00"/>
<path d="M10.3976 19.2061L11.2155 16.8704L12.3137 17.3753L10.3976 19.2061Z" fill="#FFCC00"/>
<path d="M9.5364 16.5559L11.571 17.9647L12.1627 16.9107L9.5364 16.5559Z" fill="#FFCC00"/>
<path d="M9.53636 16.5558L12.0105 16.612L11.8697 17.8124L9.53636 16.5558Z" fill="#FFCC00"/>
<path d="M14.0449 16.5559L12.0103 17.9647L11.4186 16.9107L14.0449 16.5559Z" fill="#FFCC00"/>
<path d="M14.0449 16.5558L11.5708 16.612L11.7116 17.8124L14.0449 16.5558Z" fill="#FFCC00"/>
<path d="M11.7906 14.918L12.5017 17.2883L11.3165 17.5254L11.7906 14.918Z" fill="#FFCC00"/>
<path d="M11.7907 14.918L11.0796 17.2883L12.2648 17.5254L11.7907 14.918Z" fill="#FFCC00"/>
<path d="M14.0474 30.8123L11.5733 30.8685L11.7141 32.0689L14.0474 30.8123Z" fill="#FFCC00"/>
<path d="M14.0473 30.8123L12.0127 32.2211L11.4211 31.1672L14.0473 30.8123Z" fill="#FFCC00"/>
<path d="M13.1864 33.4623L12.3685 31.1266L11.2703 31.6315L13.1864 33.4623Z" fill="#FFCC00"/>
<path d="M13.1864 33.4623L11.2178 31.9626L12.0373 31.0742L13.1864 33.4623Z" fill="#FFCC00"/>
<path d="M10.3998 33.4624L12.3684 31.9627L11.5489 31.0743L10.3998 33.4624Z" fill="#FFCC00"/>
<path d="M10.3998 33.4624L11.2177 31.1268L12.3159 31.6316L10.3998 33.4624Z" fill="#FFCC00"/>
<path d="M11.793 29.1744L12.5042 31.5448L11.319 31.7818L11.793 29.1744Z" fill="#FFCC00"/>
<path d="M11.7931 29.1744L11.082 31.5448L12.2672 31.7818L11.7931 29.1744Z" fill="#FFCC00"/>
<path d="M9.5388 30.8123L12.0129 30.8685L11.8721 32.0689L9.5388 30.8123Z" fill="#FFCC00"/>
<path d="M9.53884 30.8123L11.5734 32.2211L12.1651 31.1672L9.53884 30.8123Z" fill="#FFCC00"/>
<path d="M19.1919 35.5833L16.7178 35.6395L16.8586 36.8399L19.1919 35.5833Z" fill="#FFCC00"/>
<path d="M19.1919 35.5833L17.1573 36.9921L16.5656 35.9382L19.1919 35.5833Z" fill="#FFCC00"/>
<path d="M18.3309 38.2333L17.513 35.8976L16.4148 36.4025L18.3309 38.2333Z" fill="#FFCC00"/>
<path d="M18.3309 38.2333L16.3623 36.7336L17.1819 35.8452L18.3309 38.2333Z" fill="#FFCC00"/>
<path d="M15.5443 38.2334L17.5129 36.7337L16.6934 35.8453L15.5443 38.2334Z" fill="#FFCC00"/>
<path d="M15.5443 38.2334L16.3623 35.8978L17.4604 36.4026L15.5443 38.2334Z" fill="#FFCC00"/>
<path d="M16.9376 33.9454L17.6487 36.3158L16.4635 36.5528L16.9376 33.9454Z" fill="#FFCC00"/>
<path d="M16.9377 33.9454L16.2266 36.3158L17.4117 36.5528L16.9377 33.9454Z" fill="#FFCC00"/>
<path d="M14.6833 35.5833L17.1574 35.6395L17.0166 36.8399L14.6833 35.5833Z" fill="#FFCC00"/>
<path d="M14.6834 35.5833L16.718 36.9921L17.3097 35.9382L14.6834 35.5833Z" fill="#FFCC00"/>
<path d="M38.2222 21.8546L38.9333 24.225L37.7482 24.462L38.2222 21.8546Z" fill="#FFCC00"/>
<path d="M38.2223 21.8546L37.5112 24.225L38.6964 24.462L38.2223 21.8546Z" fill="#FFCC00"/>
<path d="M35.9678 23.4925L38.4419 23.5486L38.301 24.7491L35.9678 23.4925Z" fill="#FFCC00"/>
<path d="M35.9678 23.4925L38.0024 24.9013L38.5941 23.8474L35.9678 23.4925Z" fill="#FFCC00"/>
<path d="M36.829 26.1426L37.6469 23.8069L38.7451 24.3118L36.829 26.1426Z" fill="#FFCC00"/>
<path d="M36.829 26.1426L38.7976 24.6429L37.9781 23.7545L36.829 26.1426Z" fill="#FFCC00"/>
<path d="M40.4766 23.4925L38.0025 23.5486L38.1433 24.7491L40.4766 23.4925Z" fill="#FFCC00"/>
<path d="M40.4765 23.4925L38.4419 24.9013L37.8503 23.8474L40.4765 23.4925Z" fill="#FFCC00"/>
<path d="M39.6154 26.1426L38.7974 23.8069L37.6992 24.3118L39.6154 26.1426Z" fill="#FFCC00"/>
<path d="M39.6153 26.1426L37.6468 24.6429L38.4663 23.7545L39.6153 26.1426Z" fill="#FFCC00"/>
<path d="M32.3299 13.9332L30.3614 12.4335L31.1809 11.5451L32.3299 13.9332Z" fill="#FFCC00"/>
<path d="M32.33 13.9332L31.512 11.5976L30.4138 12.1025L32.33 13.9332Z" fill="#FFCC00"/>
<path d="M33.1909 11.283L31.1563 12.6918L30.5646 11.6379L33.1909 11.283Z" fill="#FFCC00"/>
<path d="M33.1909 11.283L30.7168 11.3392L30.8576 12.5396L33.1909 11.283Z" fill="#FFCC00"/>
<path d="M30.9366 9.64514L31.6477 12.0155L30.4625 12.2525L30.9366 9.64514Z" fill="#FFCC00"/>
<path d="M30.9367 9.64514L30.2256 12.0155L31.4108 12.2525L30.9367 9.64514Z" fill="#FFCC00"/>
<path d="M29.5436 13.9332L31.5122 12.4335L30.6927 11.5451L29.5436 13.9332Z" fill="#FFCC00"/>
<path d="M29.5436 13.9332L30.3615 11.5976L31.4597 12.1025L29.5436 13.9332Z" fill="#FFCC00"/>
<path d="M28.6824 11.283L30.717 12.6918L31.3087 11.6379L28.6824 11.283Z" fill="#FFCC00"/>
<path d="M28.6824 11.283L31.1565 11.3392L31.0156 12.5396L28.6824 11.283Z" fill="#FFCC00"/>
<path d="M34.816 19.2061L35.634 16.8704L36.7322 17.3753L34.816 19.2061Z" fill="#FFCC00"/>
<path d="M34.8161 19.206L36.7846 17.7064L35.9651 16.818L34.8161 19.206Z" fill="#FFCC00"/>
<path d="M37.6024 19.206L35.6338 17.7064L36.4533 16.818L37.6024 19.206Z" fill="#FFCC00"/>
<path d="M37.6024 19.2061L36.7845 16.8704L35.6863 17.3753L37.6024 19.2061Z" fill="#FFCC00"/>
<path d="M38.4636 16.5559L36.429 17.9647L35.8373 16.9107L38.4636 16.5559Z" fill="#FFCC00"/>
<path d="M38.4636 16.5558L35.9895 16.612L36.1303 17.8124L38.4636 16.5558Z" fill="#FFCC00"/>
<path d="M33.9551 16.5559L35.9897 17.9647L36.5814 16.9107L33.9551 16.5559Z" fill="#FFCC00"/>
<path d="M33.9551 16.5558L36.4292 16.612L36.2884 17.8124L33.9551 16.5558Z" fill="#FFCC00"/>
<path d="M36.2094 14.918L35.4983 17.2883L36.6835 17.5254L36.2094 14.918Z" fill="#FFCC00"/>
<path d="M36.2093 14.918L36.9204 17.2883L35.7352 17.5254L36.2093 14.918Z" fill="#FFCC00"/>
<path d="M33.9526 30.8123L36.4267 30.8685L36.2859 32.0689L33.9526 30.8123Z" fill="#FFCC00"/>
<path d="M33.9527 30.8123L35.9873 32.2211L36.5789 31.1672L33.9527 30.8123Z" fill="#FFCC00"/>
<path d="M34.8136 33.4623L35.6315 31.1266L36.7297 31.6315L34.8136 33.4623Z" fill="#FFCC00"/>
<path d="M34.8136 33.4623L36.7822 31.9626L35.9627 31.0742L34.8136 33.4623Z" fill="#FFCC00"/>
<path d="M37.6002 33.4624L35.6316 31.9627L36.4511 31.0743L37.6002 33.4624Z" fill="#FFCC00"/>
<path d="M37.6002 33.4624L36.7823 31.1268L35.6841 31.6316L37.6002 33.4624Z" fill="#FFCC00"/>
<path d="M36.207 29.1744L35.4958 31.5448L36.681 31.7818L36.207 29.1744Z" fill="#FFCC00"/>
<path d="M36.2069 29.1744L36.918 31.5448L35.7328 31.7818L36.2069 29.1744Z" fill="#FFCC00"/>
<path d="M38.4612 30.8123L35.9871 30.8685L36.1279 32.0689L38.4612 30.8123Z" fill="#FFCC00"/>
<path d="M38.4612 30.8123L36.4266 32.2211L35.8349 31.1672L38.4612 30.8123Z" fill="#FFCC00"/>
<path d="M28.8081 35.5833L31.2822 35.6395L31.1414 36.8399L28.8081 35.5833Z" fill="#FFCC00"/>
<path d="M28.8081 35.5833L30.8427 36.9921L31.4344 35.9382L28.8081 35.5833Z" fill="#FFCC00"/>
<path d="M29.6691 38.2333L30.487 35.8976L31.5852 36.4025L29.6691 38.2333Z" fill="#FFCC00"/>
<path d="M29.6691 38.2333L31.6377 36.7336L30.8181 35.8452L29.6691 38.2333Z" fill="#FFCC00"/>
<path d="M32.4557 38.2334L30.4871 36.7337L31.3066 35.8453L32.4557 38.2334Z" fill="#FFCC00"/>
<path d="M32.4557 38.2334L31.6377 35.8978L30.5396 36.4026L32.4557 38.2334Z" fill="#FFCC00"/>
<path d="M31.0624 33.9454L30.3513 36.3158L31.5365 36.5528L31.0624 33.9454Z" fill="#FFCC00"/>
<path d="M31.0623 33.9454L31.7734 36.3158L30.5883 36.5528L31.0623 33.9454Z" fill="#FFCC00"/>
<path d="M33.3167 35.5833L30.8426 35.6395L30.9834 36.8399L33.3167 35.5833Z" fill="#FFCC00"/>
<path d="M33.3166 35.5833L31.282 36.9921L30.6903 35.9382L33.3166 35.5833Z" fill="#FFCC00"/>
</g>
<defs>
<clipPath id="clip0_19_964">
<rect width="48" height="48" rx="14" fill="white"/>
</clipPath>
</defs>
</svg>
