<svg width="728" height="334" viewBox="0 0 728 334" fill="none" xmlns="http://www.w3.org/2000/svg">
<path d="M-90.8827 203.346L-85.1759 207.137L-87.0322 209.929L-101 200.651L-99.1437 197.859L-93.4368 201.649L-92.3761 200.054L-94.4631 190.817L-91.9438 187.027L-89.362 198.289L-77.6313 195.787L-80.2169 199.677L-89.8618 201.81L-90.8827 203.346Z" fill="#7A8CCD"/>
<path d="M-74.6608 186.465C-73.1586 184.329 -73.7435 181.664 -76.1343 179.983L-83.4243 174.858L-81.4949 172.116L-74.2049 177.24C-70.4227 179.899 -69.3611 184.51 -72.0348 188.311C-74.6533 192.033 -79.4084 192.672 -83.1906 190.013L-90.4806 184.888L-88.5512 182.145L-81.2611 187.27C-78.9291 188.91 -76.1354 188.561 -74.6608 186.465Z" fill="#7A8CCD"/>
<path d="M-62.865 175.054L-73.8657 166.925L-77.3975 171.701L-79.8828 169.865L-70.854 157.655L-68.3687 159.491L-71.872 164.229L-60.8713 172.358L-62.865 175.054Z" fill="#7A8CCD"/>
<path d="M-56.8747 166.901L-64.9546 149.976L-62.6609 147.026L-44.2299 150.64L-46.5236 153.59L-50.865 152.734L-56.4963 159.976L-54.5957 163.97L-56.8747 166.901ZM-57.9765 156.884L-54.2419 152.082L-60.8759 150.779L-57.9765 156.884Z" fill="#7A8CCD"/>
<path d="M-43.8349 150.18L-56.8101 139.559L-54.6851 136.965L-49.4024 141.289L-43.589 134.192L-48.8718 129.868L-46.7468 127.274L-33.7715 137.895L-35.8965 140.489L-41.1978 136.15L-47.0112 143.246L-41.7099 147.586L-43.8349 150.18Z" fill="#7A8CCD"/>
<path d="M-33.0342 127.076L-45.8737 126.19L-43.1197 122.998L-34.515 123.586L-36.3599 115.164L-33.6059 111.972L-30.8435 124.538L-25.9453 128.761L-28.1359 131.3L-33.0342 127.076Z" fill="#7A8CCD"/>
<path d="M-21.9406 124.042L-28.6653 106.535L-26.1469 103.774L-8.05692 108.824L-10.5753 111.585L-14.8361 110.391L-21.0191 117.168L-19.4383 121.299L-21.9406 124.042ZM-22.2518 113.97L-18.1512 109.475L-24.6623 107.656L-22.2518 113.97Z" fill="#7A8CCD"/>
<path d="M-2.80051 103.339L-14.7084 91.534L-8.66896 85.4463C-6.13848 82.8955 -2.32877 82.4224 0.205894 84.9351C2.60448 87.3128 2.18099 91.3789 -0.2314 93.8107L-3.90902 97.5178L-0.438736 100.958L-2.80051 103.339ZM-2.15588 87.3158C-3.32966 86.1522 -5.15867 86.2953 -6.47451 87.6217L-10.1521 91.3288L-6.1375 95.3086L-2.45986 91.6015C-1.16089 90.2921 -1.03314 88.4288 -2.15588 87.3158Z" fill="#7A8CCD"/>
<path d="M2.97831 85.6106C-0.484077 81.9288 -0.164772 76.534 3.67551 72.9252C7.49834 69.3328 12.7733 69.2078 16.3669 73.0292C19.9114 76.7983 19.4772 82.071 15.6544 85.6633C11.8315 89.2557 6.39146 89.2401 2.97831 85.6106ZM5.42213 83.3142C7.63739 85.6698 10.9768 85.6544 13.4555 83.3251C15.9866 80.9466 16.1384 77.6814 13.9231 75.3257C11.6586 72.9177 8.40546 72.8849 5.87437 75.2634C3.37818 77.6091 3.15763 80.9061 5.42213 83.3142Z" fill="#7A8CCD"/>
<path d="M33.365 69.3167L27.3599 68.0462L23.9152 71.0209L27.1102 74.718L24.5721 76.9098L13.6089 64.2236L20.1356 58.5875C22.855 56.2391 26.6536 56.0919 28.9872 58.7923C30.5221 60.5684 30.646 63.0564 29.7109 65.1616L36.5195 66.5926L33.365 69.3167ZM26.4491 60.9841C25.3684 59.7336 23.5701 59.7042 22.156 60.9254L18.1674 64.3697L21.8636 68.6468L25.8521 65.2024C27.2481 63.9969 27.4827 62.1803 26.4491 60.9841Z" fill="#7A8CCD"/>
<path d="M45.5148 53.5086C47.2404 55.6863 46.5166 59.1313 43.0049 61.9121C39.4743 64.7078 35.3638 65.1518 33.1232 62.7098L35.865 60.5387C37.1434 61.5735 39.2666 61.2059 41.1822 59.6891C42.9662 58.2764 43.6294 56.5291 42.8261 55.5154C40.3418 52.3803 33.5748 62.9327 28.8145 56.9254C26.9847 54.6163 28.2955 51.2564 31.5256 48.6986C34.9435 45.9922 38.6415 45.722 40.7374 47.9426L38.0143 50.0988C36.9857 49.2635 34.9414 49.5379 33.2513 50.8763C31.4108 52.3336 30.7593 53.9799 31.5031 54.9186C33.8089 57.8284 40.695 47.4262 45.5148 53.5086Z" fill="#7A8CCD"/>
<path d="M50.8689 55.3066L41.151 41.6437L52.4368 33.6225L54.2276 36.1403L45.6755 42.2187L47.8412 45.2636L56.0809 39.4073L57.8718 41.9251L49.632 47.7815L51.7977 50.8264L60.3499 44.748L62.1546 47.2854L50.8689 55.3066Z" fill="#7A8CCD"/>
<path d="M63.394 46.4113L54.4626 32.2222L57.3015 30.4366L64.5232 41.9095L72.9586 36.6036L74.6683 39.3198L63.394 46.4113Z" fill="#7A8CCD"/>
<path d="M78.0449 37.2849L70.1926 22.4718L82.4285 15.9904L83.8755 18.7202L74.6034 23.6317L76.3533 26.933L85.2868 22.2009L86.7338 24.9307L77.8004 29.6628L79.5503 32.964L88.8225 28.0525L90.2807 30.8036L78.0449 37.2849Z" fill="#7A8CCD"/>
<path d="M91.3738 17.9939L95.607 28.3467L92.5023 29.6153L86.157 14.0973L88.6407 13.0824L102.494 19.4268L98.2876 9.14061L101.392 7.872L107.738 23.39L105.232 24.414L91.3738 17.9939Z" fill="#7A8CCD"/>
<path d="M115.175 20.9195L111.756 4.50723L115.039 3.82367L116.431 10.5058L125.415 8.63578L124.022 1.95365L127.306 1.2701L130.725 17.6823L127.442 18.3659L126.045 11.6603L117.062 13.5303L118.458 20.2359L115.175 20.9195Z" fill="#7A8CCD"/>
<path d="M132.091 8.89548C132.02 3.84273 135.896 0.0755485 141.166 0.00116405C146.413 -0.0728823 150.391 3.39183 150.465 8.63615C150.538 13.8086 146.66 17.4082 141.413 17.4822C136.167 17.5563 132.162 13.8764 132.091 8.89548ZM135.445 8.84814C135.491 12.0809 137.966 14.3214 141.368 14.2734C144.842 14.2244 147.157 11.9163 147.111 8.68349C147.065 5.37884 144.685 3.16099 141.212 3.21002C137.786 3.25837 135.398 5.5435 135.445 8.84814Z" fill="#7A8CCD"/>
<path d="M162.15 19.3851L159.483 13.8588L155.022 12.9539L154.05 17.7419L150.763 17.0751L154.098 0.645647L162.55 2.36028C166.072 3.07471 168.512 5.9889 167.802 9.48603C167.335 11.7862 165.442 13.4059 163.204 13.9539L166.236 20.2138L162.15 19.3851ZM164.515 8.81923C164.844 7.19975 163.767 5.7595 161.936 5.38799L156.77 4.34017L155.646 9.87924L160.811 10.9271C162.619 11.2938 164.201 10.3683 164.515 8.81923Z" fill="#7A8CCD"/>
<path d="M167.389 20.6738L174.234 5.36932L186.875 11.0191L185.614 13.8395L176.034 9.55817L174.509 12.9689L183.739 17.0938L182.477 19.9142L173.248 15.7893L171.722 19.2L181.302 23.4813L180.031 26.3235L167.389 20.6738Z" fill="#7A8CCD"/>
<path d="M189.061 22.1294C187.141 24.7311 187.756 28.0121 190.493 30.0311C192.441 31.4671 194.632 31.6845 196.465 30.7744L199.318 32.8787C196.256 35.293 192.058 35.1728 188.588 32.6135C184.366 29.4998 183.403 24.1474 186.362 20.1388C189.363 16.0725 194.729 15.4171 198.971 18.545C202.441 21.1043 203.775 25.0646 202.391 28.7159L199.537 26.6117C199.9 24.5874 199.031 22.5777 197.065 21.1275C194.308 19.0943 191.024 19.4698 189.061 22.1294Z" fill="#7A8CCD"/>
<path d="M195.221 36.8282L213.222 31.5448L215.771 34.2775L209.271 51.8929L206.723 49.1602L208.258 45.0117L202.001 38.3026L197.753 39.5434L195.221 36.8282ZM205.289 37.3333L209.439 41.7827L211.78 35.4425L205.289 37.3333Z" fill="#7A8CCD"/>
<path d="M225.464 53.3748C225.569 53.5151 225.605 53.6683 225.57 53.8344C225.557 54.0037 225.481 54.1412 225.341 54.2468C225.213 54.3429 225.06 54.3783 224.881 54.3532C224.712 54.3408 224.574 54.2644 224.468 54.1241C224.372 53.9966 224.337 53.8434 224.362 53.6645C224.387 53.4857 224.464 53.3482 224.591 53.2521C224.732 53.1465 224.885 53.111 225.051 53.1458C225.23 53.171 225.367 53.2473 225.464 53.3748ZM227.885 56.5885C227.991 56.7288 228.026 56.882 227.992 57.0481C227.979 57.2174 227.903 57.3548 227.763 57.4605C227.635 57.5566 227.482 57.592 227.303 57.5668C227.133 57.5544 226.996 57.4781 226.89 57.3378C226.794 57.2103 226.759 57.0571 226.784 56.8782C226.809 56.6993 226.885 56.5619 227.013 56.4658C227.153 56.3601 227.307 56.3247 227.473 56.3595C227.652 56.3846 227.789 56.461 227.885 56.5885ZM217.618 59.2828C217.724 59.4231 217.759 59.5763 217.724 59.7424C217.712 59.9117 217.635 60.0492 217.495 60.1548C217.368 60.2509 217.214 60.2864 217.035 60.2612C216.866 60.2488 216.728 60.1724 216.623 60.0321C216.527 59.9046 216.491 59.7514 216.516 59.5725C216.542 59.3937 216.618 59.2562 216.746 59.1601C216.886 59.0545 217.039 59.019 217.205 59.0538C217.384 59.079 217.522 59.1553 217.618 59.2828ZM220.04 62.4965C220.145 62.6368 220.181 62.79 220.146 62.9561C220.134 63.1254 220.057 63.2628 219.917 63.3685C219.789 63.4646 219.636 63.5 219.457 63.4748C219.288 63.4624 219.15 63.3861 219.044 63.2458C218.948 63.1183 218.913 62.9651 218.938 62.7862C218.963 62.6073 219.04 62.4699 219.167 62.3738C219.308 62.2681 219.461 62.2327 219.627 62.2675C219.806 62.2926 219.943 62.369 220.04 62.4965ZM227.019 54.7223C227.125 54.8626 227.16 55.0158 227.125 55.1819C227.113 55.3512 227.036 55.4886 226.896 55.5943C226.769 55.6904 226.615 55.7258 226.436 55.7006C226.267 55.6882 226.13 55.6119 226.024 55.4716C225.928 55.3441 225.892 55.1909 225.917 55.012C225.943 54.8331 226.019 54.6957 226.147 54.5996C226.287 54.4939 226.44 54.4585 226.606 54.4932C226.785 54.5184 226.923 54.5948 227.019 54.7223ZM218.484 61.149C218.59 61.2893 218.625 61.4425 218.591 61.6086C218.578 61.7779 218.502 61.9154 218.362 62.021C218.234 62.1171 218.081 62.1526 217.902 62.1274C217.732 62.115 217.595 62.0386 217.489 61.8983C217.393 61.7708 217.358 61.6176 217.383 61.4388C217.408 61.2599 217.484 61.1224 217.612 61.0263C217.752 60.9207 217.906 60.8852 218.072 60.92C218.251 60.9452 218.388 61.0215 218.484 61.149ZM218.665 53.5472C218.805 53.4415 218.958 53.4061 219.124 53.4409C219.303 53.466 219.441 53.5424 219.537 53.6699C219.643 53.8102 219.678 53.9634 219.643 54.1295C219.631 54.2988 219.555 54.4362 219.414 54.5419C219.287 54.638 219.133 54.6734 218.955 54.6483C218.785 54.6358 218.648 54.5595 218.542 54.4192C218.446 54.2917 218.41 54.1385 218.436 53.9596C218.461 53.7807 218.537 53.6433 218.665 53.5472ZM225.094 62.0787C225.234 61.973 225.387 61.9376 225.554 61.9724C225.732 61.9975 225.87 62.0739 225.966 62.2014C226.072 62.3417 226.107 62.4949 226.072 62.661C226.06 62.8303 225.984 62.9678 225.843 63.0734C225.716 63.1695 225.563 63.2049 225.384 63.1798C225.214 63.1674 225.077 63.091 224.971 62.9507C224.875 62.8232 224.839 62.67 224.865 62.4911C224.89 62.3123 224.966 62.1748 225.094 62.0787ZM216.578 57.0673C216.719 56.9617 216.872 56.9262 217.038 56.961C217.217 56.9862 217.354 57.0625 217.451 57.19C217.556 57.3303 217.592 57.4835 217.557 57.6496C217.544 57.8189 217.468 57.9564 217.328 58.062C217.2 58.1581 217.047 58.1936 216.868 58.1684C216.699 58.156 216.561 58.0796 216.455 57.9393C216.359 57.8118 216.324 57.6586 216.349 57.4797C216.374 57.3009 216.451 57.1634 216.578 57.0673ZM222.625 52.5139C222.765 52.4082 222.919 52.3727 223.085 52.4075C223.264 52.4327 223.401 52.509 223.497 52.6366C223.603 52.7768 223.639 52.93 223.604 53.0961C223.591 53.2654 223.515 53.4029 223.375 53.5086C223.247 53.6046 223.094 53.6401 222.915 53.6149C222.746 53.6025 222.608 53.5261 222.502 53.3859C222.406 53.2583 222.371 53.1051 222.396 52.9263C222.421 52.7474 222.498 52.6099 222.625 52.5139ZM221.133 63.1121C221.274 63.0064 221.427 62.971 221.593 63.0057C221.772 63.0309 221.91 63.1073 222.006 63.2348C222.111 63.3751 222.147 63.5283 222.112 63.6944C222.1 63.8636 222.023 64.0011 221.883 64.1068C221.755 64.2029 221.602 64.2383 221.423 64.2131C221.254 64.2007 221.116 64.1244 221.011 63.9841C220.914 63.8566 220.879 63.7034 220.904 63.5245C220.929 63.3456 221.006 63.2081 221.133 63.1121ZM227.18 58.5586C227.321 58.4529 227.474 58.4175 227.64 58.4523C227.819 58.4774 227.957 58.5538 228.053 58.6813C228.158 58.8216 228.194 58.9748 228.159 59.1409C228.147 59.3102 228.07 59.4476 227.93 59.5533C227.802 59.6494 227.649 59.6848 227.47 59.6596C227.301 59.6472 227.163 59.5709 227.058 59.4306C226.961 59.3031 226.926 59.1499 226.951 58.971C226.976 58.7921 227.053 58.6547 227.18 58.5586ZM217.317 55.102C217.457 54.9963 217.61 54.9608 217.777 54.9956C217.955 55.0208 218.093 55.0971 218.189 55.2247C218.295 55.3649 218.33 55.5181 218.295 55.6843C218.283 55.8535 218.207 55.991 218.066 56.0967C217.939 56.1927 217.785 56.2282 217.607 56.203C217.437 56.1906 217.3 56.1142 217.194 55.974C217.098 55.8464 217.062 55.6932 217.088 55.5144C217.113 55.3355 217.189 55.198 217.317 55.102ZM220.532 52.6811C220.672 52.5754 220.825 52.54 220.991 52.5748C221.17 52.5999 221.308 52.6763 221.404 52.8038C221.51 52.9441 221.545 53.0973 221.51 53.2634C221.498 53.4327 221.422 53.5701 221.281 53.6758C221.154 53.7719 221 53.8073 220.821 53.7822C220.652 53.7697 220.515 53.6934 220.409 53.5531C220.313 53.4256 220.277 53.2724 220.302 53.0935C220.328 52.9146 220.404 52.7772 220.532 52.6811ZM223.227 62.9448C223.367 62.8391 223.52 62.8037 223.687 62.8385C223.866 62.8636 224.003 62.94 224.099 63.0675C224.205 63.2078 224.24 63.361 224.206 63.5271C224.193 63.6964 224.117 63.8339 223.976 63.9395C223.849 64.0356 223.696 64.071 223.517 64.0459C223.347 64.0335 223.21 63.9571 223.104 63.8168C223.008 63.6893 222.973 63.5361 222.998 63.3572C223.023 63.1784 223.099 63.0409 223.227 62.9448ZM226.442 60.524C226.582 60.4183 226.735 60.3829 226.901 60.4176C227.08 60.4428 227.218 60.5191 227.314 60.6467C227.42 60.787 227.455 60.9402 227.42 61.1063C227.408 61.2755 227.332 61.413 227.191 61.5187C227.064 61.6147 226.91 61.6502 226.732 61.625C226.562 61.6126 226.425 61.5363 226.319 61.396C226.223 61.2685 226.187 61.1153 226.213 60.9364C226.238 60.7575 226.314 60.62 226.442 60.524Z" fill="#7A8CCD"/>
<path d="M233.671 73.0126L228.468 77.4694L226.286 74.9234L239.02 64.0152L241.203 66.5612L236 71.018L237.247 72.4729L246.706 72.9808L249.667 76.4361L238.125 75.8525L237.338 87.8172L234.298 84.2709L234.871 74.413L233.671 73.0126Z" fill="#7A8CCD"/>
<path d="M246.442 93.0688C248.266 94.9366 250.995 94.8506 253.086 92.8094L259.463 86.5854L261.806 88.9844L255.43 95.2084C252.121 98.4375 247.392 98.6351 244.145 95.3108C240.965 92.055 241.208 87.2651 244.517 84.036L250.894 77.812L253.237 80.211L246.86 86.435C244.82 88.426 244.651 91.2353 246.442 93.0688Z" fill="#7A8CCD"/>
<path d="M256.476 106.77L265.502 96.4932L261.037 92.5746L263.076 90.253L274.49 100.271L272.451 102.592L268.022 98.7053L258.997 108.982L256.476 106.77Z" fill="#7A8CCD"/>
<path d="M264.081 113.648L280.679 104.907L283.719 107.081L280.836 125.634L277.797 123.46L278.48 119.09L271.018 113.752L267.101 115.808L264.081 113.648ZM274.05 112.151L278.999 115.691L280.038 109.013L274.05 112.151Z" fill="#7A8CCD"/>
<path d="M282.268 126.463L290.069 111.622L293.038 113.182L289.862 119.224L297.985 123.49L301.161 117.448L304.13 119.008L296.329 133.848L293.36 132.289L296.547 126.225L288.424 121.959L285.237 128.022L282.268 126.463Z" fill="#7A8CCD"/>
<path d="M308.445 131.445L304.179 119.307L308.201 120.572L311.066 128.704L318.073 123.677L322.095 124.943L311.644 132.451L309.703 138.619L306.503 137.613L308.445 131.445Z" fill="#7A8CCD"/>
<path d="M317.518 141.251L327.188 125.18L330.914 125.467L338.061 142.83L334.335 142.544L332.655 138.451L323.506 137.748L321.22 141.536L317.518 141.251ZM325.27 134.809L331.337 135.275L328.766 129.025L325.27 134.809Z" fill="#7A8CCD"/>
<path d="M347.544 141.545L342.975 125.415L351.228 123.079C354.685 122.101 358.236 123.56 359.208 126.994C360.129 130.243 357.761 133.576 354.465 134.509L349.439 135.931L350.771 140.632L347.544 141.545ZM355.981 127.907C355.531 126.317 353.867 125.543 352.069 126.052L347.044 127.474L348.584 132.913L353.61 131.49C355.385 130.988 356.412 129.428 355.981 127.907Z" fill="#7A8CCD"/>
<path d="M361.882 128.72C359.272 124.393 360.718 119.186 365.232 116.465C369.725 113.756 374.908 114.742 377.618 119.233C380.29 123.663 378.757 128.727 374.264 131.435C369.771 134.144 364.456 132.986 361.882 128.72ZM364.755 126.988C366.425 129.757 369.693 130.444 372.606 128.687C375.581 126.894 376.416 123.734 374.746 120.965C373.038 118.135 369.865 117.419 366.89 119.213C363.956 120.981 363.047 124.158 364.755 126.988Z" fill="#7A8CCD"/>
<path d="M393.171 115.64L387.096 114.759L383.85 117.949L387.277 121.433L384.885 123.783L373.128 111.828L379.278 105.784C381.841 103.266 385.622 102.875 388.125 105.419C389.771 107.093 390.055 109.568 389.257 111.729L396.144 112.719L393.171 115.64ZM385.733 107.77C384.574 106.591 382.778 106.678 381.445 107.987L377.686 111.681L381.65 115.711L385.409 112.018C386.724 110.725 386.842 108.897 385.733 107.77Z" fill="#7A8CCD"/>
<path d="M402.168 95.4734C404.488 97.0023 404.879 100.501 402.413 104.24C399.935 107.999 396.169 109.706 393.277 108.087L395.202 105.168C396.74 105.751 398.642 104.738 399.986 102.698C401.239 100.799 401.322 98.9319 400.242 98.2202C396.901 96.0192 393.776 108.158 387.374 103.94C384.914 102.319 385.108 98.7182 387.375 95.2788C389.775 91.6395 393.203 90.2266 395.888 91.6804L393.977 94.5799C392.738 94.1081 390.882 95.008 389.696 96.8076C388.404 98.7673 388.3 100.535 389.3 101.194C392.401 103.237 395.687 91.2032 402.168 95.4734Z" fill="#7A8CCD"/>
<path d="M406.883 95.3037L392.896 86.0542L400.537 74.5093L403.114 76.2138L397.325 84.9624L400.442 87.0237L406.02 78.5947L408.597 80.2993L403.019 88.7283L406.136 90.7896L411.926 82.0411L414.523 83.7589L406.883 95.3037Z" fill="#7A8CCD"/>
<path d="M416.044 81.6815L403.258 70.8333L405.428 68.277L415.767 77.0486L422.216 69.453L424.664 71.5297L416.044 81.6815Z" fill="#7A8CCD"/>
<path d="M426.07 69.9528L415.02 57.3414L425.438 48.2213L427.474 50.5454L419.58 57.4565L422.042 60.267L429.648 53.6084L431.684 55.9325L424.078 62.5911L426.541 65.4017L434.435 58.4906L436.487 60.8327L426.07 69.9528Z" fill="#7A8CCD"/>
<path d="M435.361 48.1447L440.592 58.0312L437.627 59.5988L429.786 44.7797L432.158 43.5256L446.568 48.4778L441.37 38.6548L444.335 37.0872L452.176 51.9064L449.783 53.1716L435.361 48.1447Z" fill="#7A8CCD"/>
<path d="M458.758 49.8584L459.061 33.0968L462.415 33.1575L462.291 39.9818L471.465 40.1479L471.589 33.3235L474.943 33.3842L474.639 50.1458L471.285 50.0851L471.409 43.2368L462.235 43.0708L462.111 49.9191L458.758 49.8584Z" fill="#7A8CCD"/>
<path d="M477.928 42.3581C480.036 37.7652 485.155 36.0292 489.946 38.2263C494.715 40.4135 496.817 45.2512 494.629 50.0182C492.471 54.72 487.422 56.3036 482.653 54.1165C477.884 51.9293 475.85 46.8857 477.928 42.3581ZM480.976 43.7563C479.628 46.6949 480.899 49.7815 483.991 51.1996C487.149 52.6478 490.232 51.5586 491.581 48.62C492.959 45.6162 491.765 42.5913 488.607 41.1432C485.493 39.715 482.355 40.7524 480.976 43.7563Z" fill="#7A8CCD"/>
<path d="M500.139 65.8181L500.506 59.6931L497.052 56.7287L493.868 60.4353L491.324 58.2509L502.249 45.5324L508.793 51.1492C511.519 53.4896 512.228 57.223 509.902 59.9303C508.372 61.7108 505.929 62.2022 503.708 61.5897L503.302 68.5329L500.139 65.8181ZM507.357 57.7459C508.434 56.4922 508.197 54.71 506.779 53.4931L502.78 50.0606L499.097 54.3485L503.096 57.781C504.495 58.9824 506.327 58.9451 507.357 57.7459Z" fill="#7A8CCD"/>
<path d="M503.341 68.849L516.197 58.084L525.089 68.6956L522.719 70.6794L515.981 62.6381L513.116 65.0372L519.608 72.7847L517.239 74.7686L510.747 67.021L507.882 69.4201L514.62 77.4614L512.233 79.4606L503.341 68.849Z" fill="#7A8CCD"/>
<path d="M522.437 79.4258C519.725 81.1869 519.147 84.4747 521 87.3268C522.318 89.3553 524.293 90.3289 526.329 90.1208L528.26 93.0933C524.545 94.2777 520.657 92.69 518.308 89.0748C515.45 84.6762 516.431 79.3273 520.61 76.614C524.85 73.8616 530.104 75.1335 532.975 79.5521C535.324 83.1674 535.181 87.3439 532.6 90.2757L530.669 87.3032C531.72 85.5355 531.614 83.3488 530.283 81.3001C528.417 78.428 525.21 77.6257 522.437 79.4258Z" fill="#7A8CCD"/>
<path d="M523.637 96.8866L542.384 96.1862L544.183 99.4611L533.553 114.94L531.755 111.665L534.263 108.021L529.846 99.9809L525.424 100.14L523.637 96.8866ZM533.272 99.849L536.201 105.181L540.029 99.6103L533.272 99.849Z" fill="#7A8CCD"/>
<path d="M549.554 117.964C549.64 118.117 549.655 118.273 549.598 118.433C549.563 118.599 549.469 118.725 549.316 118.811C549.177 118.889 549.02 118.904 548.846 118.855C548.68 118.82 548.554 118.726 548.468 118.573C548.39 118.434 548.375 118.277 548.424 118.103C548.473 117.929 548.567 117.803 548.706 117.725C548.86 117.639 549.016 117.625 549.176 117.681C549.35 117.73 549.476 117.824 549.554 117.964ZM551.523 121.473C551.609 121.626 551.624 121.782 551.567 121.942C551.532 122.108 551.438 122.234 551.285 122.32C551.146 122.399 550.989 122.413 550.815 122.364C550.649 122.329 550.523 122.235 550.437 122.082C550.359 121.943 550.344 121.786 550.393 121.612C550.442 121.438 550.536 121.312 550.675 121.234C550.829 121.148 550.985 121.134 551.145 121.19C551.319 121.239 551.445 121.333 551.523 121.473ZM540.987 122.767C541.073 122.92 541.088 123.077 541.031 123.237C540.996 123.403 540.902 123.529 540.749 123.615C540.61 123.693 540.453 123.708 540.279 123.659C540.113 123.624 539.987 123.53 539.901 123.377C539.823 123.237 539.808 123.081 539.857 122.907C539.906 122.733 540 122.607 540.139 122.529C540.293 122.443 540.449 122.428 540.609 122.485C540.783 122.534 540.909 122.628 540.987 122.767ZM542.956 126.276C543.042 126.43 543.057 126.586 543 126.746C542.965 126.912 542.871 127.038 542.718 127.124C542.579 127.202 542.422 127.217 542.248 127.168C542.082 127.133 541.956 127.039 541.87 126.886C541.792 126.746 541.777 126.59 541.826 126.416C541.875 126.242 541.969 126.116 542.108 126.038C542.262 125.952 542.418 125.937 542.578 125.994C542.752 126.043 542.878 126.137 542.956 126.276ZM550.915 119.507C551.001 119.66 551.016 119.817 550.959 119.977C550.924 120.143 550.83 120.269 550.676 120.355C550.537 120.433 550.38 120.448 550.207 120.399C550.04 120.364 549.914 120.27 549.828 120.117C549.75 119.977 549.736 119.821 549.785 119.647C549.834 119.473 549.928 119.347 550.067 119.269C550.22 119.183 550.377 119.168 550.537 119.225C550.711 119.274 550.837 119.368 550.915 119.507ZM541.596 124.733C541.682 124.886 541.696 125.042 541.64 125.202C541.605 125.369 541.51 125.495 541.357 125.58C541.218 125.659 541.061 125.673 540.887 125.624C540.721 125.589 540.595 125.495 540.509 125.342C540.431 125.203 540.417 125.046 540.466 124.872C540.514 124.698 540.609 124.572 540.748 124.494C540.901 124.408 541.058 124.394 541.218 124.451C541.392 124.499 541.518 124.593 541.596 124.733ZM542.794 117.224C542.947 117.138 543.104 117.123 543.264 117.18C543.438 117.229 543.564 117.323 543.642 117.462C543.728 117.615 543.742 117.772 543.686 117.932C543.651 118.098 543.556 118.224 543.403 118.31C543.264 118.388 543.107 118.403 542.933 118.354C542.767 118.319 542.641 118.225 542.555 118.071C542.477 117.932 542.462 117.776 542.511 117.602C542.56 117.428 542.654 117.302 542.794 117.224ZM548.021 126.539C548.174 126.454 548.331 126.439 548.491 126.496C548.665 126.545 548.791 126.639 548.869 126.778C548.955 126.931 548.97 127.088 548.913 127.248C548.878 127.414 548.784 127.54 548.631 127.626C548.491 127.704 548.335 127.718 548.161 127.669C547.995 127.634 547.869 127.54 547.783 127.387C547.704 127.248 547.69 127.091 547.739 126.917C547.788 126.744 547.882 126.618 548.021 126.539ZM540.254 120.433C540.407 120.347 540.564 120.332 540.724 120.389C540.898 120.438 541.024 120.532 541.102 120.671C541.188 120.824 541.203 120.981 541.146 121.141C541.111 121.307 541.017 121.433 540.864 121.519C540.724 121.597 540.568 121.611 540.394 121.562C540.228 121.527 540.102 121.433 540.016 121.28C539.938 121.141 539.923 120.984 539.972 120.811C540.021 120.637 540.115 120.511 540.254 120.433ZM546.857 116.73C547.01 116.644 547.167 116.63 547.327 116.686C547.501 116.735 547.627 116.829 547.705 116.969C547.791 117.122 547.806 117.278 547.749 117.438C547.714 117.604 547.62 117.73 547.466 117.816C547.327 117.894 547.171 117.909 546.997 117.86C546.83 117.825 546.704 117.731 546.618 117.578C546.54 117.439 546.526 117.282 546.575 117.108C546.624 116.934 546.718 116.808 546.857 116.73ZM543.958 127.033C544.111 126.947 544.268 126.932 544.428 126.989C544.602 127.038 544.728 127.132 544.806 127.271C544.892 127.425 544.906 127.581 544.85 127.741C544.815 127.907 544.721 128.033 544.567 128.119C544.428 128.197 544.271 128.212 544.097 128.163C543.931 128.128 543.805 128.034 543.719 127.881C543.641 127.741 543.627 127.585 543.675 127.411C543.724 127.237 543.819 127.111 543.958 127.033ZM550.561 123.331C550.714 123.245 550.871 123.23 551.031 123.287C551.204 123.336 551.331 123.43 551.409 123.569C551.495 123.722 551.509 123.879 551.452 124.039C551.417 124.205 551.323 124.331 551.17 124.417C551.031 124.495 550.874 124.509 550.7 124.461C550.534 124.426 550.408 124.331 550.322 124.178C550.244 124.039 550.229 123.882 550.278 123.709C550.327 123.535 550.421 123.409 550.561 123.331ZM541.25 118.584C541.403 118.498 541.559 118.483 541.719 118.54C541.893 118.589 542.019 118.683 542.098 118.822C542.183 118.975 542.198 119.132 542.141 119.292C542.106 119.458 542.012 119.584 541.859 119.67C541.72 119.748 541.563 119.763 541.389 119.714C541.223 119.679 541.097 119.585 541.011 119.432C540.933 119.292 540.918 119.136 540.967 118.962C541.016 118.788 541.11 118.662 541.25 118.584ZM544.76 116.615C544.913 116.53 545.07 116.515 545.23 116.572C545.404 116.621 545.53 116.715 545.608 116.854C545.694 117.007 545.708 117.164 545.652 117.324C545.617 117.49 545.523 117.616 545.369 117.702C545.23 117.78 545.073 117.794 544.899 117.745C544.733 117.71 544.607 117.616 544.521 117.463C544.443 117.324 544.429 117.167 544.478 116.993C544.526 116.82 544.621 116.694 544.76 116.615ZM546.055 127.148C546.208 127.062 546.365 127.047 546.525 127.104C546.699 127.153 546.825 127.247 546.903 127.386C546.989 127.539 547.003 127.696 546.947 127.856C546.912 128.022 546.818 128.148 546.664 128.234C546.525 128.312 546.368 128.327 546.195 128.278C546.028 128.243 545.902 128.149 545.816 127.995C545.738 127.856 545.724 127.7 545.773 127.526C545.822 127.352 545.916 127.226 546.055 127.148ZM549.565 125.179C549.719 125.093 549.875 125.079 550.035 125.136C550.209 125.184 550.335 125.279 550.413 125.418C550.499 125.571 550.514 125.728 550.457 125.887C550.422 126.054 550.328 126.18 550.175 126.265C550.035 126.344 549.879 126.358 549.705 126.309C549.539 126.274 549.413 126.18 549.327 126.027C549.249 125.888 549.234 125.731 549.283 125.557C549.332 125.383 549.426 125.257 549.565 125.179Z" fill="#7A8CCD"/>
<path d="M555.032 139.064L549.114 142.516L547.423 139.619L561.909 131.172L563.599 134.068L557.681 137.519L558.647 139.174L567.861 141.37L570.154 145.301L558.904 142.657L555.983 154.286L553.629 150.252L555.962 140.657L555.032 139.064Z" fill="#7A8CCD"/>
<path d="M563.003 160.231C564.358 162.462 567.036 162.994 569.534 161.477L577.152 156.853L578.893 159.719L571.275 164.343C567.323 166.742 562.671 165.868 560.259 161.896C557.896 158.007 559.215 153.396 563.167 150.997L570.785 146.372L572.526 149.238L564.908 153.862C562.471 155.342 561.672 158.04 563.003 160.231Z" fill="#7A8CCD"/>
<path d="M568.755 175.093L580.302 167.76L577.116 162.747L579.724 161.09L587.869 173.906L585.261 175.563L582.1 170.59L570.554 177.923L568.755 175.093Z" fill="#7A8CCD"/>
<path d="M574.65 184.428L593.259 182.051L595.344 185.152L586.146 201.521L584.06 198.42L586.231 194.566L581.112 186.954L576.722 187.509L574.65 184.428ZM584.512 186.516L587.907 191.564L591.22 185.672L584.512 186.516Z" fill="#7A8CCD"/>
<path d="M586.807 202.44L600.432 192.666L602.387 195.39L596.84 199.369L602.19 206.822L607.737 202.842L609.693 205.566L596.068 215.34L594.112 212.616L599.679 208.623L594.329 201.171L588.762 205.164L586.807 202.44Z" fill="#7A8CCD"/>
<path d="M606.316 218.153L609.779 205.762L612.35 209.103L610.035 217.408L618.659 217.304L621.23 220.645L608.361 220.81L603.233 224.752L601.188 222.095L606.316 218.153Z" fill="#7A8CCD"/>
<path d="M608.004 231.027L626.263 226.721L628.661 229.587L621.221 246.827L618.823 243.961L620.58 239.901L614.694 232.864L610.386 233.874L608.004 231.027ZM618.03 232.074L621.934 236.74L624.613 230.535L618.03 232.074Z" fill="#7A8CCD"/>
<path d="M625.831 251.965L638.02 240.45L643.911 246.681C646.379 249.292 646.729 253.114 644.135 255.565C641.68 257.884 637.628 257.329 635.275 254.84L631.687 251.046L628.135 254.402L625.831 251.965ZM641.831 253.128C643.032 251.993 642.948 250.161 641.665 248.803L638.077 245.009L633.968 248.891L637.556 252.685C638.823 254.026 640.682 254.214 641.831 253.128Z" fill="#7A8CCD"/>
<path d="M643.912 258.953C647.386 255.282 652.792 255.285 656.621 258.905C660.433 262.51 660.867 267.766 657.262 271.576C653.706 275.334 648.415 275.21 644.603 271.606C640.791 268.002 640.488 262.572 643.912 258.953ZM646.349 261.258C644.126 263.606 644.337 266.938 646.809 269.275C649.333 271.661 652.602 271.621 654.825 269.272C657.097 266.871 656.939 263.623 654.415 261.237C651.926 258.883 648.621 258.857 646.349 261.258Z" fill="#7A8CCD"/>
<path d="M662.896 287.216L663.166 281.087L659.666 278.177L656.541 281.934L653.962 279.79L664.685 266.9L671.317 272.412C674.08 274.709 674.847 278.431 672.565 281.175C671.064 282.979 668.629 283.509 666.398 282.932L666.102 289.881L662.896 287.216ZM669.986 279.031C671.043 277.76 670.777 275.982 669.341 274.788L665.288 271.419L661.673 275.765L665.725 279.134C667.144 280.313 668.975 280.246 669.986 279.031Z" fill="#7A8CCD"/>
<path d="M682.54 296.081C680.911 298.332 677.398 298.57 673.768 295.946C670.119 293.307 668.576 289.472 670.32 286.654L673.154 288.703C672.504 290.214 673.434 292.157 675.414 293.589C677.258 294.922 679.12 295.087 679.879 294.039C682.224 290.798 670.228 287.149 674.721 280.94C676.448 278.553 680.039 278.903 683.377 281.317C686.91 283.872 688.174 287.356 686.604 289.975L683.789 287.94C684.314 286.724 683.496 284.831 681.749 283.568C679.846 282.192 678.084 282.012 677.382 282.982C675.206 285.99 687.09 289.794 682.54 296.081Z" fill="#7A8CCD"/>
<path d="M682.761 301.851L691.536 287.565L703.337 294.809L701.719 297.441L692.777 291.952L690.822 295.136L699.437 300.425L697.82 303.057L689.204 297.769L687.249 300.953L696.191 306.442L694.561 309.095L682.761 301.851Z" fill="#7A8CCD"/>
<path d="M696.526 310.247L704.169 295.324L707.154 296.852L700.975 308.918L709.847 313.458L708.384 316.315L696.526 310.247Z" fill="#7A8CCD"/>
<path d="M712.497 318.279L718.746 302.722L731.597 307.879L730.445 310.746L720.707 306.838L719.315 310.305L728.697 314.07L727.545 316.937L718.163 313.172L716.771 316.639L726.508 320.547L725.348 323.436L712.497 318.279Z" fill="#7A8CCD"/>
<path d="M735.046 314.909L732 325.671L728.772 324.758L733.339 308.627L735.921 309.357L742.922 322.886L745.949 312.194L749.176 313.107L744.609 329.238L742.004 328.501L735.046 314.909Z" fill="#7A8CCD"/>
<path d="M753.651 331.21L755.732 314.575L759.06 314.991L758.213 321.764L767.318 322.902L768.165 316.129L771.493 316.545L769.412 333.18L766.084 332.764L766.934 325.967L757.829 324.829L756.979 331.626L753.651 331.21Z" fill="#7A8CCD"/>
<path d="M774.5 325.291C774.496 320.238 778.422 316.522 783.692 316.517C788.939 316.512 792.871 320.029 792.876 325.274C792.881 330.447 788.955 333.995 783.708 334C778.461 334.005 774.505 330.272 774.5 325.291ZM777.854 325.288C777.857 328.521 780.303 330.794 783.705 330.791C787.179 330.788 789.525 328.51 789.522 325.277C789.519 321.972 787.169 319.723 783.695 319.726C780.269 319.729 777.851 321.983 777.854 325.288Z" fill="#7A8CCD"/>
<path d="M807.199 332.111L802.971 327.663L798.446 328.164L798.984 333.02L795.65 333.388L793.805 316.726L802.378 315.777C805.95 315.382 809.163 317.412 809.556 320.959C809.814 323.292 808.506 325.412 806.543 326.617L811.342 331.652L807.199 332.111ZM806.222 321.328C806.04 319.685 804.575 318.643 802.718 318.848L797.479 319.428L798.101 325.045L803.34 324.466C805.173 324.263 806.396 322.899 806.222 321.328Z" fill="#7A8CCD"/>
<path d="M812.432 331.455L809.076 315.03L822.643 312.259L823.262 315.286L812.981 317.385L813.729 321.046L823.634 319.023L824.253 322.05L814.347 324.073L815.095 327.733L825.376 325.634L826 328.684L812.432 331.455Z" fill="#7A8CCD"/>
<path d="M830.616 318.892C831.56 321.985 834.561 323.448 837.815 322.455C840.13 321.749 841.611 320.12 841.973 318.107L845.365 317.072C845.477 320.969 842.877 324.266 838.752 325.524C833.734 327.055 828.862 324.635 827.408 319.871C825.932 315.038 828.606 310.341 833.648 308.803C837.772 307.545 841.748 308.836 843.854 312.124L840.463 313.159C839.054 311.661 836.922 311.159 834.585 311.872C831.308 312.872 829.651 315.731 830.616 318.892Z" fill="#7A8CCD"/>
<path d="M848.63 322.145L850.122 303.451L853.586 302.047L867.724 314.407L864.26 315.811L860.932 312.895L852.429 316.342L852.071 320.751L848.63 322.145ZM852.698 312.925L858.337 310.639L853.249 306.189L852.698 312.925Z" fill="#7A8CCD"/>
<path d="M872.177 298.24C872.333 298.159 872.49 298.151 872.648 298.213C872.813 298.255 872.935 298.353 873.015 298.51C873.088 298.652 873.097 298.809 873.041 298.981C873 299.145 872.901 299.268 872.745 299.348C872.603 299.421 872.446 299.429 872.274 299.374C872.102 299.319 871.979 299.22 871.907 299.078C871.826 298.921 871.818 298.764 871.88 298.607C871.936 298.435 872.035 298.312 872.177 298.24ZM875.759 296.404C875.915 296.324 876.072 296.315 876.23 296.378C876.395 296.419 876.517 296.518 876.597 296.674C876.67 296.816 876.679 296.973 876.623 297.145C876.582 297.31 876.483 297.432 876.327 297.513C876.185 297.585 876.028 297.594 875.856 297.539C875.684 297.483 875.561 297.385 875.488 297.242C875.408 297.086 875.4 296.929 875.462 296.771C875.518 296.599 875.616 296.477 875.759 296.404ZM876.657 306.978C876.814 306.898 876.971 306.889 877.129 306.952C877.293 306.993 877.416 307.091 877.496 307.248C877.569 307.39 877.578 307.547 877.522 307.719C877.481 307.883 877.382 308.006 877.226 308.086C877.084 308.159 876.927 308.167 876.755 308.112C876.583 308.057 876.46 307.958 876.387 307.816C876.307 307.659 876.298 307.502 876.361 307.345C876.417 307.173 876.515 307.05 876.657 306.978ZM880.239 305.142C880.396 305.062 880.553 305.054 880.71 305.116C880.875 305.157 880.998 305.256 881.078 305.412C881.151 305.555 881.159 305.712 881.104 305.883C881.063 306.048 880.964 306.17 880.807 306.251C880.665 306.323 880.508 306.332 880.336 306.277C880.164 306.221 880.042 306.123 879.969 305.98C879.889 305.824 879.88 305.667 879.943 305.509C879.998 305.338 880.097 305.215 880.239 305.142ZM873.771 296.938C873.927 296.858 874.084 296.849 874.242 296.912C874.407 296.953 874.529 297.052 874.609 297.208C874.682 297.35 874.691 297.507 874.636 297.679C874.594 297.844 874.496 297.966 874.339 298.047C874.197 298.119 874.04 298.128 873.868 298.073C873.696 298.017 873.574 297.919 873.501 297.776C873.421 297.62 873.412 297.463 873.475 297.305C873.53 297.134 873.629 297.011 873.771 296.938ZM878.645 306.444C878.801 306.363 878.958 306.355 879.116 306.417C879.281 306.459 879.403 306.557 879.484 306.714C879.556 306.856 879.565 307.013 879.51 307.185C879.468 307.349 879.37 307.472 879.213 307.552C879.071 307.625 878.914 307.633 878.742 307.578C878.57 307.523 878.448 307.424 878.375 307.282C878.295 307.125 878.286 306.968 878.349 306.811C878.404 306.639 878.503 306.516 878.645 306.444ZM871.183 304.965C871.103 304.809 871.095 304.652 871.157 304.494C871.213 304.322 871.312 304.2 871.454 304.127C871.61 304.047 871.767 304.038 871.925 304.101C872.09 304.142 872.212 304.241 872.292 304.397C872.365 304.539 872.374 304.696 872.318 304.868C872.277 305.033 872.178 305.155 872.022 305.235C871.88 305.308 871.723 305.317 871.551 305.261C871.379 305.206 871.256 305.107 871.183 304.965ZM880.692 300.093C880.612 299.937 880.603 299.78 880.666 299.622C880.721 299.45 880.82 299.328 880.962 299.255C881.119 299.175 881.276 299.166 881.434 299.229C881.598 299.27 881.721 299.369 881.801 299.525C881.874 299.667 881.882 299.824 881.827 299.996C881.786 300.161 881.687 300.283 881.531 300.363C881.388 300.436 881.232 300.445 881.06 300.389C880.888 300.334 880.765 300.235 880.692 300.093ZM874.296 307.623C874.216 307.466 874.207 307.309 874.27 307.152C874.325 306.98 874.424 306.857 874.566 306.784C874.722 306.704 874.88 306.696 875.037 306.758C875.202 306.799 875.324 306.898 875.405 307.054C875.477 307.197 875.486 307.354 875.431 307.525C875.39 307.69 875.291 307.812 875.134 307.893C874.992 307.965 874.835 307.974 874.663 307.919C874.491 307.863 874.369 307.765 874.296 307.623ZM870.843 300.888C870.762 300.732 870.754 300.575 870.816 300.417C870.872 300.245 870.971 300.122 871.113 300.05C871.269 299.97 871.426 299.961 871.584 300.024C871.749 300.065 871.871 300.163 871.951 300.32C872.024 300.462 872.033 300.619 871.977 300.791C871.936 300.955 871.837 301.078 871.681 301.158C871.539 301.231 871.382 301.239 871.21 301.184C871.038 301.129 870.915 301.03 870.843 300.888ZM881.033 304.17C880.953 304.014 880.944 303.857 881.007 303.699C881.062 303.527 881.161 303.405 881.303 303.332C881.46 303.252 881.617 303.243 881.774 303.306C881.939 303.347 882.062 303.446 882.142 303.602C882.215 303.744 882.223 303.901 882.168 304.073C882.127 304.238 882.028 304.36 881.872 304.441C881.729 304.513 881.572 304.522 881.4 304.467C881.228 304.411 881.106 304.312 881.033 304.17ZM877.58 297.436C877.5 297.279 877.491 297.122 877.554 296.965C877.609 296.793 877.708 296.67 877.85 296.598C878.006 296.517 878.163 296.509 878.321 296.571C878.486 296.613 878.608 296.711 878.688 296.868C878.761 297.01 878.77 297.167 878.714 297.339C878.673 297.503 878.575 297.626 878.418 297.706C878.276 297.779 878.119 297.787 877.947 297.732C877.775 297.677 877.653 297.578 877.58 297.436ZM872.485 306.559C872.405 306.403 872.396 306.246 872.459 306.088C872.514 305.916 872.613 305.794 872.755 305.721C872.912 305.641 873.069 305.632 873.227 305.695C873.391 305.736 873.514 305.834 873.594 305.991C873.667 306.133 873.675 306.29 873.62 306.462C873.579 306.626 873.48 306.749 873.324 306.829C873.182 306.902 873.024 306.91 872.852 306.855C872.68 306.8 872.558 306.701 872.485 306.559ZM870.649 302.978C870.569 302.822 870.56 302.665 870.623 302.507C870.679 302.335 870.777 302.213 870.919 302.14C871.076 302.06 871.233 302.051 871.391 302.114C871.555 302.155 871.678 302.254 871.758 302.41C871.831 302.552 871.839 302.709 871.784 302.881C871.743 303.046 871.644 303.168 871.488 303.248C871.346 303.321 871.189 303.33 871.017 303.275C870.845 303.219 870.722 303.12 870.649 302.978ZM881.226 302.08C881.146 301.924 881.138 301.767 881.2 301.609C881.256 301.437 881.354 301.315 881.497 301.242C881.653 301.162 881.81 301.153 881.968 301.216C882.133 301.257 882.255 301.355 882.335 301.512C882.408 301.654 882.417 301.811 882.361 301.983C882.32 302.147 882.221 302.27 882.065 302.35C881.923 302.423 881.766 302.431 881.594 302.376C881.422 302.321 881.299 302.222 881.226 302.08ZM879.391 298.499C879.31 298.343 879.302 298.186 879.364 298.028C879.42 297.856 879.518 297.734 879.661 297.661C879.817 297.581 879.974 297.572 880.132 297.635C880.297 297.676 880.419 297.775 880.499 297.931C880.572 298.073 880.581 298.23 880.525 298.402C880.484 298.567 880.385 298.689 880.229 298.769C880.087 298.842 879.93 298.851 879.758 298.796C879.586 298.74 879.463 298.641 879.391 298.499Z" fill="#7A8CCD"/>
<path d="M890.273 294.951L893.814 300.814L890.943 302.547L882.275 288.196L885.146 286.463L888.688 292.326L890.329 291.336L892.386 282.093L896.283 279.741L893.808 291.027L905.484 293.771L901.485 296.185L891.852 293.997L890.273 294.951Z" fill="#7A8CCD"/>
<path d="M912.194 285.807C914.354 284.34 914.749 281.64 913.107 279.223L908.1 271.853L910.875 269.969L915.882 277.339C918.48 281.163 917.842 285.851 913.997 288.461C910.232 291.018 905.558 289.936 902.96 286.112L897.953 278.742L900.727 276.858L905.735 284.228C907.336 286.586 910.073 287.246 912.194 285.807Z" fill="#7A8CCD"/>
<path d="M927.564 278.57L919.38 267.612L914.619 271.166L912.77 268.69L924.941 259.606L926.79 262.082L922.068 265.606L930.252 276.564L927.564 278.57Z" fill="#7A8CCD"/>
<path d="M936.577 271.911L932.515 253.602L935.414 251.244L952.558 258.911L949.66 261.269L945.622 259.459L938.505 265.248L939.458 269.568L936.577 271.911ZM937.759 261.903L942.479 258.064L936.308 255.302L937.759 261.903Z" fill="#7A8CCD"/>
<path d="M954.344 257.359L943.263 244.776L945.78 242.561L950.292 247.684L957.179 241.623L952.667 236.5L955.185 234.284L966.266 246.867L963.749 249.083L959.221 243.942L952.334 250.003L956.862 255.144L954.344 257.359Z" fill="#7A8CCD"/>
<path d="M968.697 235.789L956.021 233.562L959.094 230.676L967.59 232.162L966.638 223.593L969.712 220.708L971.141 233.494L975.57 238.207L973.125 240.502L968.697 235.789Z" fill="#7A8CCD"/>
<path d="M978.361 235.709L972.535 217.883L975.19 215.254L993 221.215L990.345 223.844L986.15 222.436L979.631 228.89L981 233.097L978.361 235.709ZM978.562 225.634L982.886 221.353L976.475 219.206L978.562 225.634Z" fill="#7A8CCD"/>
</svg>
