<svg width="1920" height="670" viewBox="0 0 1920 670" fill="none" xmlns="http://www.w3.org/2000/svg">
<path d="M-115.73 407.557L-104.296 415.155L-108.015 420.752L-136 402.156L-132.281 396.559L-120.847 404.157L-118.722 400.958L-122.903 382.446L-117.856 374.851L-112.683 397.421L-89.1801 392.407L-94.3604 400.203L-113.684 404.479L-115.73 407.557Z" fill="#7A8CCD"/>
<path d="M-83.2287 373.723C-80.2189 369.443 -81.3909 364.1 -86.1809 360.732L-100.787 350.46L-96.921 344.963L-82.3152 355.235C-74.7375 360.564 -72.6107 369.806 -77.9674 377.423C-83.2138 384.883 -92.7407 386.164 -100.318 380.834L-114.924 370.563L-111.058 365.066L-96.4527 375.338C-91.7804 378.623 -86.1832 377.924 -83.2287 373.723Z" fill="#7A8CCD"/>
<path d="M-59.5955 350.853L-81.6358 334.561L-88.7118 344.133L-93.6911 340.453L-75.6017 315.981L-70.6223 319.661L-77.6413 329.157L-55.601 345.449L-59.5955 350.853Z" fill="#7A8CCD"/>
<path d="M-47.5937 334.513L-63.7821 300.59L-59.1866 294.678L-22.2597 301.921L-26.8551 307.833L-35.5532 306.118L-46.8357 320.632L-43.0277 328.638L-47.5937 334.513ZM-49.8013 314.436L-42.3189 304.81L-55.6102 302.2L-49.8013 314.436Z" fill="#7A8CCD"/>
<path d="M-21.4682 300.999L-47.4644 279.711L-43.2069 274.512L-32.6227 283.179L-20.9755 268.956L-31.5597 260.289L-27.3022 255.089L-1.30592 276.377L-5.56342 281.576L-16.1847 272.879L-27.832 287.102L-17.2107 295.8L-21.4682 300.999Z" fill="#7A8CCD"/>
<path d="M0.17131 254.693L-25.553 252.917L-20.0353 246.519L-2.79547 247.697L-6.49179 230.817L-0.974075 224.42L4.56041 249.605L14.3742 258.07L9.98512 263.158L0.17131 254.693Z" fill="#7A8CCD"/>
<path d="M22.3977 248.612L8.92448 213.522L13.9702 207.99L50.214 218.111L45.1682 223.644L36.6318 221.251L24.2438 234.834L27.4111 243.115L22.3977 248.612ZM21.7742 228.424L29.9897 219.416L16.9446 215.769L21.7742 228.424Z" fill="#7A8CCD"/>
<path d="M60.7453 207.117L36.8876 183.458L48.9877 171.256C54.0576 166.144 61.6905 165.195 66.7688 170.231C71.5744 174.997 70.7259 183.147 65.8926 188.02L58.5244 195.45L65.4772 202.345L60.7453 207.117ZM62.0369 175.003C59.6852 172.671 56.0207 172.958 53.3844 175.616L46.0161 183.046L54.0596 191.023L61.4278 183.593C64.0304 180.968 64.2863 177.234 62.0369 175.003Z" fill="#7A8CCD"/>
<path d="M72.3233 171.585C65.3864 164.206 66.0261 153.394 73.7202 146.161C81.3793 138.961 91.9478 138.71 99.1478 146.369C106.249 153.923 105.379 164.491 97.7202 171.691C90.061 178.891 79.1617 178.86 72.3233 171.585ZM77.2196 166.983C81.658 171.704 88.3485 171.673 93.3147 167.005C98.3858 162.238 98.6899 155.693 94.2516 150.972C89.7146 146.146 83.1968 146.08 78.1257 150.847C73.1245 155.548 72.6826 162.156 77.2196 166.983Z" fill="#7A8CCD"/>
<path d="M133.204 138.928L121.173 136.382L114.271 142.344L120.672 149.754L115.587 154.147L93.622 128.721L106.698 117.424C112.147 112.717 119.758 112.423 124.433 117.835C127.508 121.394 127.756 126.381 125.883 130.6L139.524 133.468L133.204 138.928ZM119.348 122.228C117.183 119.721 113.579 119.662 110.746 122.11L102.755 129.013L110.16 137.586L118.152 130.682C120.949 128.266 121.419 124.625 119.348 122.228Z" fill="#7A8CCD"/>
<path d="M157.546 107.245C161.004 111.609 159.554 118.514 152.518 124.088C145.444 129.691 137.209 130.581 132.719 125.686L138.213 121.335C140.774 123.409 145.028 122.672 148.866 119.632C152.44 116.801 153.769 113.299 152.16 111.267C147.182 104.984 133.624 126.133 124.087 114.093C120.421 109.465 123.047 102.731 129.519 97.6044C136.367 92.18 143.776 91.6385 147.975 96.0891L142.519 100.411C140.458 98.7366 136.362 99.2866 132.976 101.969C129.289 104.89 127.983 108.189 129.474 110.071C134.093 115.903 147.89 95.0541 157.546 107.245Z" fill="#7A8CCD"/>
<path d="M168.273 110.849L148.803 83.4646L171.415 67.388L175.003 72.4344L157.868 84.6171L162.207 90.7198L178.716 78.9822L182.304 84.0286L165.795 95.7662L170.134 101.869L187.269 89.6863L190.885 94.7719L168.273 110.849Z" fill="#7A8CCD"/>
<path d="M193.368 93.0201L175.474 64.5816L181.161 61.0027L195.63 83.9973L212.531 73.363L215.956 78.8069L193.368 93.0201Z" fill="#7A8CCD"/>
<path d="M222.721 74.7285L206.989 45.0391L231.504 32.0488L234.403 37.5201L215.826 47.364L219.332 53.9805L237.231 44.4962L240.13 49.9675L222.231 59.4518L225.737 66.0683L244.314 56.2244L247.236 61.7382L222.721 74.7285Z" fill="#7A8CCD"/>
<path d="M249.426 36.0644L257.908 56.8139L251.687 59.3565L238.974 28.2545L243.95 26.2204L271.705 38.9363L263.278 18.3201L269.498 15.7775L282.212 46.8795L277.191 48.9318L249.426 36.0644Z" fill="#7A8CCD"/>
<path d="M297.112 41.9279L290.262 9.03363L296.841 7.6636L299.63 21.0563L317.628 17.3083L314.839 3.91562L321.418 2.5456L328.268 35.4399L321.689 36.8099L318.89 23.3703L300.892 27.1182L303.691 40.5579L297.112 41.9279Z" fill="#7A8CCD"/>
<path d="M331.005 17.8288C330.862 7.70182 338.628 0.151418 349.187 0.00233306C359.698 -0.146075 367.669 6.79809 367.817 17.309C367.964 27.676 360.193 34.8904 349.682 35.0388C339.171 35.1872 331.146 27.8118 331.005 17.8288ZM337.724 17.7339C337.816 24.2133 342.776 28.7037 349.591 28.6075C356.55 28.5092 361.189 23.8833 361.098 17.4039C361.004 10.7806 356.237 6.33543 349.278 6.43369C342.415 6.5306 337.631 11.1106 337.724 17.7339Z" fill="#7A8CCD"/>
<path d="M391.228 38.8527L385.884 27.7767L376.947 25.9629L374.999 35.5593L368.413 34.2229L375.096 1.29404L392.031 4.7306C399.087 6.1625 403.975 12.0033 402.552 19.0124C401.617 23.6225 397.823 26.8689 393.34 27.9671L399.414 40.5137L391.228 38.8527ZM395.967 17.676C396.625 14.4301 394.468 11.5435 390.799 10.7989L380.45 8.69879L378.197 19.8005L388.546 21.9006C392.168 22.6357 395.337 20.7807 395.967 17.676Z" fill="#7A8CCD"/>
<path d="M401.725 41.4355L415.438 10.7615L440.766 22.085L438.239 27.7378L419.046 19.157L415.99 25.9929L434.482 34.2603L431.955 39.9131L413.462 31.6457L410.406 38.4816L429.599 47.0625L427.053 52.7591L401.725 41.4355Z" fill="#7A8CCD"/>
<path d="M445.145 44.3529C441.298 49.5673 442.53 56.1434 448.015 60.1899C451.916 63.0681 456.307 63.5039 459.979 61.6797L465.696 65.8972C459.561 70.7361 451.149 70.4952 444.197 65.3658C435.738 59.1251 433.81 48.3975 439.737 40.3634C445.75 32.2133 456.501 30.8998 464.999 37.169C471.952 42.2984 474.625 50.2359 471.851 57.554L466.134 53.3365C466.861 49.2795 465.12 45.2515 461.18 42.3448C455.657 38.2698 449.077 39.0225 445.145 44.3529Z" fill="#7A8CCD"/>
<path d="M457.487 73.8131L493.552 63.2239L498.658 68.7009L485.637 104.007L480.53 98.5296L483.607 90.2148L471.07 76.7682L462.561 79.255L457.487 73.8131ZM477.659 74.8255L485.973 83.7431L490.663 71.0358L477.659 74.8255Z" fill="#7A8CCD"/>
<path d="M518.079 106.977C518.29 107.258 518.361 107.565 518.292 107.898C518.267 108.237 518.114 108.513 517.833 108.724C517.577 108.917 517.27 108.988 516.911 108.938C516.572 108.913 516.297 108.76 516.085 108.479C515.892 108.223 515.821 107.916 515.872 107.557C515.922 107.199 516.075 106.923 516.331 106.731C516.612 106.519 516.919 106.448 517.252 106.518C517.611 106.568 517.886 106.721 518.079 106.977ZM522.931 113.418C523.142 113.699 523.213 114.006 523.144 114.339C523.119 114.678 522.966 114.954 522.685 115.165C522.429 115.358 522.122 115.429 521.763 115.379C521.424 115.354 521.149 115.201 520.937 114.92C520.744 114.664 520.673 114.357 520.724 113.998C520.774 113.64 520.927 113.364 521.183 113.172C521.464 112.96 521.771 112.889 522.104 112.959C522.463 113.009 522.738 113.162 522.931 113.418ZM502.359 118.818C502.571 119.099 502.642 119.406 502.573 119.739C502.548 120.078 502.395 120.354 502.114 120.566C501.858 120.758 501.551 120.829 501.192 120.779C500.853 120.754 500.578 120.601 500.366 120.32C500.173 120.064 500.102 119.757 500.153 119.399C500.203 119.04 500.356 118.764 500.612 118.572C500.893 118.36 501.2 118.289 501.533 118.359C501.891 118.409 502.167 118.562 502.359 118.818ZM507.211 125.259C507.423 125.54 507.494 125.847 507.425 126.18C507.4 126.519 507.247 126.795 506.966 127.007C506.71 127.199 506.403 127.27 506.044 127.22C505.705 127.195 505.43 127.042 505.218 126.761C505.025 126.505 504.954 126.198 505.005 125.84C505.055 125.481 505.208 125.205 505.464 125.013C505.745 124.801 506.052 124.73 506.385 124.8C506.743 124.85 507.019 125.003 507.211 125.259ZM521.195 109.677C521.406 109.959 521.477 110.266 521.408 110.599C521.383 110.938 521.23 111.213 520.949 111.425C520.693 111.618 520.386 111.689 520.028 111.638C519.688 111.613 519.413 111.46 519.201 111.179C519.008 110.924 518.937 110.617 518.988 110.258C519.038 109.9 519.191 109.624 519.447 109.431C519.728 109.22 520.035 109.149 520.368 109.218C520.727 109.269 521.002 109.422 521.195 109.677ZM504.095 122.558C504.307 122.839 504.378 123.146 504.308 123.479C504.284 123.819 504.131 124.094 503.849 124.306C503.594 124.498 503.287 124.57 502.928 124.519C502.589 124.494 502.314 124.341 502.102 124.06C501.909 123.804 501.838 123.497 501.889 123.139C501.939 122.78 502.092 122.505 502.348 122.312C502.629 122.101 502.936 122.029 503.269 122.099C503.627 122.15 503.903 122.303 504.095 122.558ZM504.457 107.322C504.738 107.11 505.045 107.039 505.378 107.109C505.737 107.16 506.012 107.313 506.205 107.568C506.416 107.849 506.487 108.156 506.418 108.489C506.393 108.829 506.24 109.104 505.959 109.316C505.703 109.508 505.396 109.579 505.038 109.529C504.698 109.504 504.423 109.351 504.211 109.07C504.018 108.814 503.947 108.507 503.998 108.149C504.048 107.79 504.201 107.515 504.457 107.322ZM517.338 124.422C517.619 124.21 517.926 124.139 518.259 124.208C518.617 124.259 518.893 124.412 519.085 124.667C519.297 124.949 519.368 125.256 519.299 125.589C519.274 125.928 519.121 126.203 518.84 126.415C518.584 126.608 518.277 126.679 517.918 126.628C517.579 126.603 517.304 126.45 517.092 126.169C516.899 125.914 516.828 125.607 516.879 125.248C516.929 124.89 517.082 124.614 517.338 124.422ZM500.276 114.377C500.558 114.166 500.865 114.095 501.198 114.164C501.556 114.215 501.832 114.368 502.024 114.623C502.236 114.905 502.307 115.212 502.237 115.545C502.212 115.884 502.059 116.159 501.778 116.371C501.523 116.564 501.216 116.635 500.857 116.584C500.518 116.559 500.242 116.406 500.031 116.125C499.838 115.87 499.767 115.563 499.817 115.204C499.868 114.846 500.021 114.57 500.276 114.377ZM512.392 105.251C512.673 105.039 512.98 104.968 513.313 105.038C513.671 105.088 513.947 105.241 514.139 105.497C514.351 105.778 514.422 106.085 514.353 106.418C514.328 106.757 514.175 107.033 513.893 107.245C513.638 107.437 513.331 107.508 512.972 107.458C512.633 107.433 512.358 107.28 512.146 106.999C511.953 106.743 511.882 106.436 511.933 106.078C511.983 105.719 512.136 105.444 512.392 105.251ZM509.403 126.493C509.684 126.281 509.991 126.21 510.324 126.28C510.683 126.33 510.958 126.483 511.151 126.739C511.362 127.02 511.433 127.327 511.364 127.66C511.339 127.999 511.186 128.275 510.905 128.486C510.649 128.679 510.342 128.75 509.984 128.699C509.644 128.675 509.369 128.522 509.157 128.24C508.964 127.985 508.893 127.678 508.944 127.319C508.994 126.961 509.147 126.685 509.403 126.493ZM521.518 117.366C521.799 117.155 522.106 117.083 522.439 117.153C522.798 117.204 523.073 117.357 523.266 117.612C523.478 117.893 523.549 118.2 523.479 118.533C523.454 118.873 523.301 119.148 523.02 119.36C522.764 119.552 522.457 119.624 522.099 119.573C521.759 119.548 521.484 119.395 521.272 119.114C521.08 118.858 521.009 118.551 521.059 118.193C521.109 117.834 521.262 117.559 521.518 117.366ZM501.756 110.438C502.037 110.227 502.344 110.155 502.677 110.225C503.036 110.276 503.311 110.429 503.504 110.684C503.716 110.965 503.787 111.272 503.717 111.605C503.692 111.945 503.539 112.22 503.258 112.432C503.002 112.625 502.695 112.696 502.337 112.645C501.998 112.62 501.722 112.467 501.51 112.186C501.318 111.93 501.247 111.623 501.297 111.265C501.348 110.906 501.501 110.631 501.756 110.438ZM508.197 105.586C508.478 105.375 508.785 105.304 509.118 105.373C509.477 105.424 509.752 105.577 509.945 105.832C510.157 106.113 510.228 106.42 510.158 106.753C510.133 107.093 509.98 107.368 509.699 107.58C509.443 107.773 509.136 107.844 508.778 107.793C508.439 107.768 508.163 107.615 507.951 107.334C507.759 107.078 507.688 106.771 507.738 106.413C507.789 106.054 507.942 105.779 508.197 105.586ZM513.597 126.157C513.878 125.946 514.186 125.875 514.518 125.944C514.877 125.995 515.153 126.148 515.345 126.403C515.557 126.684 515.628 126.992 515.558 127.324C515.533 127.664 515.38 127.939 515.099 128.151C514.844 128.344 514.537 128.415 514.178 128.364C513.839 128.339 513.563 128.186 513.351 127.905C513.159 127.65 513.088 127.342 513.138 126.984C513.189 126.625 513.342 126.35 513.597 126.157ZM520.038 121.305C520.319 121.094 520.627 121.023 520.96 121.092C521.318 121.143 521.594 121.296 521.786 121.551C521.998 121.833 522.069 122.14 521.999 122.473C521.974 122.812 521.821 123.087 521.54 123.299C521.285 123.492 520.978 123.563 520.619 123.512C520.28 123.487 520.004 123.334 519.792 123.053C519.6 122.798 519.529 122.491 519.579 122.132C519.63 121.774 519.783 121.498 520.038 121.305Z" fill="#7A8CCD"/>
<path d="M534.523 146.336L524.098 155.268L519.726 150.166L545.24 128.303L549.612 133.406L539.188 142.338L541.687 145.254L560.637 146.272L566.572 153.197L543.445 152.028L541.869 176.008L535.779 168.9L536.927 149.143L534.523 146.336Z" fill="#7A8CCD"/>
<path d="M560.109 186.534C563.765 190.277 569.231 190.105 573.421 186.014L586.197 173.539L590.892 178.347L578.116 190.822C571.488 197.294 562.013 197.69 555.507 191.027C549.136 184.502 549.624 174.901 556.252 168.429L569.028 155.955L573.723 160.763L560.947 173.238C556.86 177.228 556.521 182.859 560.109 186.534Z" fill="#7A8CCD"/>
<path d="M580.214 213.993L598.297 193.397L589.351 185.543L593.436 180.89L616.305 200.968L612.22 205.621L603.346 197.831L585.264 218.427L580.214 213.993Z" fill="#7A8CCD"/>
<path d="M595.45 227.78L628.705 210.26L634.794 214.618L629.019 251.803L622.93 247.445L624.299 238.686L609.349 227.987L601.5 232.11L595.45 227.78ZM615.423 224.779L625.338 231.874L627.419 218.49L615.423 224.779Z" fill="#7A8CCD"/>
<path d="M631.888 253.464L647.516 223.719L653.465 226.845L647.102 238.955L663.377 247.506L669.74 235.396L675.688 238.522L660.06 268.266L654.111 265.14L660.497 252.988L644.222 244.437L637.837 256.589L631.888 253.464Z" fill="#7A8CCD"/>
<path d="M684.334 263.449L675.786 239.121L683.845 241.657L689.585 257.955L703.625 247.881L711.683 250.417L690.744 265.466L686.854 277.828L680.444 275.811L684.334 263.449Z" fill="#7A8CCD"/>
<path d="M702.512 283.103L721.886 250.894L729.352 251.468L743.671 286.268L736.205 285.694L732.839 277.491L714.51 276.082L709.93 283.674L702.512 283.103ZM718.043 270.192L730.2 271.126L725.049 258.599L718.043 270.192Z" fill="#7A8CCD"/>
<path d="M762.669 283.693L753.516 251.364L770.05 246.683C776.978 244.721 784.092 247.646 786.04 254.527C787.884 261.039 783.14 267.72 776.536 269.59L766.468 272.441L769.135 281.862L762.669 283.693ZM779.574 256.358C778.672 253.171 775.339 251.62 771.737 252.64L761.669 255.491L764.755 266.39L774.823 263.54C778.379 262.533 780.437 259.406 779.574 256.358Z" fill="#7A8CCD"/>
<path d="M791.397 257.987C786.167 249.315 789.065 238.878 798.108 233.425C807.11 227.996 817.495 229.972 822.924 238.974C828.278 247.852 825.206 258.001 816.204 263.43C807.203 268.859 796.554 266.537 791.397 257.987ZM797.152 254.517C800.498 260.066 807.046 261.442 812.883 257.922C818.843 254.328 820.516 247.994 817.169 242.445C813.748 236.772 807.39 235.338 801.43 238.932C795.552 242.477 793.731 248.845 797.152 254.517Z" fill="#7A8CCD"/>
<path d="M854.085 231.773L841.914 230.005L835.411 236.399L842.276 243.382L837.483 248.093L813.928 224.132L826.251 212.018C831.385 206.971 838.961 206.187 843.975 211.287C847.273 214.641 847.841 219.602 846.243 223.933L860.041 225.917L854.085 231.773ZM839.183 215.998C836.861 213.636 833.262 213.809 830.592 216.434L823.061 223.837L831.003 231.915L838.533 224.512C841.169 221.921 841.404 218.257 839.183 215.998Z" fill="#7A8CCD"/>
<path d="M872.11 191.353C876.759 194.417 877.542 201.429 872.602 208.924C867.636 216.458 860.092 219.879 854.297 216.635L858.154 210.783C861.235 211.952 865.045 209.922 867.74 205.834C870.249 202.027 870.416 198.285 868.252 196.858C861.559 192.447 855.296 216.776 842.471 208.323C837.542 205.074 837.93 197.856 842.473 190.963C847.281 183.669 854.149 180.837 859.529 183.751L855.699 189.562C853.218 188.617 849.5 190.42 847.122 194.027C844.534 197.955 844.326 201.497 846.33 202.818C852.542 206.912 859.125 182.794 872.11 191.353Z" fill="#7A8CCD"/>
<path d="M881.558 191.013L853.535 172.474L868.842 149.336L874.006 152.752L862.407 170.286L868.652 174.418L879.828 157.524L884.992 160.94L873.816 177.834L880.061 181.965L891.661 164.431L896.865 167.874L881.558 191.013Z" fill="#7A8CCD"/>
<path d="M899.911 163.711L874.295 141.968L878.643 136.845L899.356 154.425L912.277 139.201L917.181 143.364L899.911 163.711Z" fill="#7A8CCD"/>
<path d="M919.998 140.203L897.861 114.927L918.732 96.6477L922.812 101.306L906.996 115.157L911.929 120.79L927.167 107.445L931.247 112.103L916.009 125.449L920.942 131.082L936.758 117.23L940.869 121.924L919.998 140.203Z" fill="#7A8CCD"/>
<path d="M938.613 96.4943L949.094 116.309L943.153 119.451L927.444 89.7498L932.196 87.2363L961.067 97.1618L950.653 77.474L956.594 74.3321L972.303 104.034L967.508 106.569L938.613 96.4943Z" fill="#7A8CCD"/>
<path d="M985.489 99.9289L986.098 66.3344L992.817 66.456L992.569 80.1338L1010.95 80.4666L1011.2 66.7888L1017.92 66.9105L1017.31 100.505L1010.59 100.383L1010.84 86.6576L992.457 86.3248L992.208 100.051L985.489 99.9289Z" fill="#7A8CCD"/>
<path d="M1023.9 84.8964C1028.12 75.6911 1038.38 72.2116 1047.98 76.6153C1057.53 80.999 1061.74 90.6949 1057.36 100.249C1053.04 109.673 1042.92 112.847 1033.36 108.463C1023.81 104.079 1019.73 93.9708 1023.9 84.8964ZM1030.01 87.6988C1027.3 93.5884 1029.85 99.7747 1036.05 102.617C1042.37 105.52 1048.55 103.337 1051.25 97.4469C1054.01 91.4264 1051.62 85.3638 1045.29 82.4613C1039.06 79.599 1032.77 81.6782 1030.01 87.6988Z" fill="#7A8CCD"/>
<path d="M1068.4 131.916L1069.13 119.64L1062.21 113.699L1055.83 121.128L1050.74 116.75L1072.63 91.2585L1085.74 102.516C1091.2 107.207 1092.62 114.689 1087.96 120.115C1084.89 123.684 1080 124.669 1075.55 123.441L1074.73 137.357L1068.4 131.916ZM1082.86 115.738C1085.02 113.225 1084.54 109.653 1081.7 107.214L1073.69 100.334L1066.31 108.928L1074.32 115.808C1077.13 118.216 1080.8 118.141 1082.86 115.738Z" fill="#7A8CCD"/>
<path d="M1074.81 137.991L1100.57 116.415L1118.39 137.683L1113.64 141.66L1100.14 125.543L1094.4 130.351L1107.41 145.879L1102.66 149.855L1089.65 134.327L1083.91 139.135L1097.41 155.252L1092.63 159.259L1074.81 137.991Z" fill="#7A8CCD"/>
<path d="M1113.07 159.19C1107.64 162.719 1106.48 169.309 1110.19 175.025C1112.83 179.091 1116.79 181.042 1120.87 180.625L1124.74 186.583C1117.3 188.957 1109.51 185.774 1104.8 178.528C1099.07 169.713 1101.04 158.992 1109.41 153.554C1117.91 148.037 1128.43 150.587 1134.19 159.443C1138.89 166.689 1138.61 175.059 1133.44 180.935L1129.57 174.978C1131.67 171.435 1131.46 167.052 1128.79 162.946C1125.05 157.19 1118.63 155.582 1113.07 159.19Z" fill="#7A8CCD"/>
<path d="M1115.48 194.185L1153.04 192.782L1156.64 199.345L1135.35 230.369L1131.74 223.806L1136.77 216.502L1127.92 200.387L1119.06 200.707L1115.48 194.185ZM1134.78 200.123L1140.65 210.81L1148.32 199.644L1134.78 200.123Z" fill="#7A8CCD"/>
<path d="M1167.4 236.429C1167.58 236.736 1167.6 237.05 1167.49 237.37C1167.42 237.703 1167.23 237.956 1166.93 238.128C1166.65 238.285 1166.33 238.314 1165.98 238.216C1165.65 238.146 1165.4 237.957 1165.23 237.65C1165.07 237.371 1165.04 237.057 1165.14 236.709C1165.24 236.36 1165.43 236.108 1165.7 235.951C1166.01 235.779 1166.33 235.75 1166.65 235.863C1166.99 235.961 1167.25 236.15 1167.4 236.429ZM1171.35 243.462C1171.52 243.769 1171.55 244.083 1171.44 244.404C1171.37 244.736 1171.18 244.989 1170.87 245.161C1170.59 245.318 1170.28 245.347 1169.93 245.249C1169.6 245.179 1169.34 244.99 1169.17 244.683C1169.01 244.404 1168.99 244.09 1169.08 243.742C1169.18 243.393 1169.37 243.141 1169.65 242.984C1169.96 242.812 1170.27 242.783 1170.59 242.897C1170.94 242.995 1171.19 243.183 1171.35 243.462ZM1150.24 246.057C1150.41 246.364 1150.44 246.678 1150.33 246.998C1150.26 247.331 1150.07 247.584 1149.76 247.756C1149.48 247.912 1149.17 247.942 1148.82 247.844C1148.49 247.774 1148.23 247.585 1148.06 247.278C1147.91 246.999 1147.88 246.685 1147.97 246.337C1148.07 245.988 1148.26 245.736 1148.54 245.579C1148.85 245.407 1149.16 245.378 1149.48 245.491C1149.83 245.589 1150.08 245.778 1150.24 246.057ZM1154.18 253.09C1154.36 253.397 1154.39 253.711 1154.27 254.031C1154.2 254.364 1154.01 254.617 1153.71 254.789C1153.43 254.946 1153.11 254.975 1152.76 254.877C1152.43 254.807 1152.18 254.618 1152.01 254.311C1151.85 254.032 1151.82 253.718 1151.92 253.37C1152.02 253.021 1152.21 252.769 1152.49 252.612C1152.79 252.44 1153.11 252.411 1153.43 252.524C1153.78 252.622 1154.03 252.811 1154.18 253.09ZM1170.13 239.523C1170.3 239.83 1170.33 240.144 1170.22 240.464C1170.15 240.797 1169.96 241.05 1169.65 241.222C1169.37 241.379 1169.06 241.408 1168.71 241.31C1168.38 241.24 1168.12 241.051 1167.95 240.744C1167.8 240.465 1167.77 240.151 1167.86 239.803C1167.96 239.454 1168.15 239.202 1168.43 239.045C1168.74 238.873 1169.05 238.844 1169.37 238.957C1169.72 239.055 1169.97 239.244 1170.13 239.523ZM1151.46 249.996C1151.63 250.303 1151.66 250.617 1151.55 250.938C1151.48 251.27 1151.29 251.523 1150.98 251.695C1150.7 251.852 1150.39 251.881 1150.04 251.783C1149.71 251.713 1149.45 251.524 1149.28 251.217C1149.12 250.938 1149.1 250.624 1149.19 250.276C1149.29 249.927 1149.48 249.675 1149.76 249.518C1150.07 249.346 1150.38 249.317 1150.7 249.43C1151.05 249.529 1151.3 249.717 1151.46 249.996ZM1153.86 234.946C1154.17 234.774 1154.48 234.745 1154.8 234.858C1155.15 234.956 1155.4 235.145 1155.56 235.424C1155.73 235.731 1155.76 236.045 1155.64 236.365C1155.57 236.698 1155.39 236.951 1155.08 237.123C1154.8 237.279 1154.49 237.309 1154.14 237.211C1153.8 237.141 1153.55 236.952 1153.38 236.645C1153.22 236.366 1153.19 236.052 1153.29 235.704C1153.39 235.355 1153.58 235.103 1153.86 234.946ZM1164.33 253.617C1164.64 253.445 1164.95 253.416 1165.27 253.529C1165.62 253.628 1165.87 253.816 1166.03 254.095C1166.2 254.402 1166.23 254.716 1166.12 255.037C1166.05 255.369 1165.86 255.622 1165.55 255.794C1165.27 255.951 1164.96 255.98 1164.61 255.882C1164.28 255.812 1164.03 255.623 1163.85 255.316C1163.7 255.037 1163.67 254.723 1163.77 254.375C1163.86 254.026 1164.05 253.774 1164.33 253.617ZM1148.77 241.377C1149.08 241.205 1149.39 241.176 1149.71 241.29C1150.06 241.388 1150.31 241.576 1150.47 241.855C1150.64 242.162 1150.67 242.476 1150.56 242.797C1150.49 243.13 1150.3 243.382 1149.99 243.554C1149.71 243.711 1149.4 243.74 1149.05 243.642C1148.72 243.572 1148.46 243.383 1148.29 243.076C1148.14 242.797 1148.11 242.484 1148.2 242.135C1148.3 241.786 1148.49 241.534 1148.77 241.377ZM1162 233.957C1162.31 233.785 1162.62 233.755 1162.94 233.869C1163.29 233.967 1163.54 234.156 1163.7 234.435C1163.87 234.742 1163.9 235.056 1163.79 235.376C1163.72 235.709 1163.53 235.962 1163.22 236.134C1162.94 236.29 1162.63 236.32 1162.28 236.222C1161.95 236.151 1161.69 235.963 1161.52 235.656C1161.36 235.377 1161.34 235.063 1161.43 234.715C1161.53 234.366 1161.72 234.113 1162 233.957ZM1156.19 254.606C1156.5 254.434 1156.81 254.405 1157.13 254.519C1157.48 254.617 1157.73 254.805 1157.89 255.084C1158.06 255.391 1158.09 255.705 1157.98 256.026C1157.91 256.359 1157.72 256.611 1157.41 256.783C1157.13 256.94 1156.82 256.969 1156.47 256.871C1156.14 256.801 1155.88 256.612 1155.71 256.305C1155.56 256.026 1155.53 255.712 1155.62 255.364C1155.72 255.015 1155.91 254.763 1156.19 254.606ZM1169.42 247.186C1169.73 247.014 1170.04 246.984 1170.36 247.098C1170.71 247.196 1170.96 247.385 1171.12 247.664C1171.29 247.971 1171.32 248.285 1171.21 248.605C1171.14 248.938 1170.95 249.191 1170.64 249.363C1170.36 249.519 1170.05 249.549 1169.7 249.451C1169.37 249.38 1169.11 249.192 1168.94 248.885C1168.79 248.606 1168.76 248.292 1168.85 247.943C1168.95 247.595 1169.14 247.342 1169.42 247.186ZM1150.76 237.672C1151.07 237.5 1151.39 237.471 1151.71 237.584C1152.05 237.682 1152.31 237.871 1152.46 238.15C1152.64 238.457 1152.66 238.771 1152.55 239.091C1152.48 239.424 1152.29 239.677 1151.99 239.849C1151.71 240.006 1151.39 240.035 1151.04 239.937C1150.71 239.867 1150.46 239.678 1150.29 239.371C1150.13 239.092 1150.1 238.778 1150.2 238.43C1150.3 238.081 1150.49 237.829 1150.76 237.672ZM1157.8 233.727C1158.1 233.555 1158.42 233.526 1158.74 233.639C1159.09 233.737 1159.34 233.926 1159.5 234.205C1159.67 234.512 1159.7 234.826 1159.58 235.146C1159.51 235.479 1159.33 235.732 1159.02 235.904C1158.74 236.061 1158.43 236.09 1158.08 235.992C1157.74 235.922 1157.49 235.733 1157.32 235.426C1157.16 235.147 1157.13 234.833 1157.23 234.485C1157.33 234.136 1157.52 233.884 1157.8 233.727ZM1160.39 254.836C1160.7 254.664 1161.01 254.635 1161.33 254.748C1161.68 254.846 1161.93 255.035 1162.09 255.314C1162.26 255.621 1162.29 255.935 1162.18 256.256C1162.11 256.588 1161.92 256.841 1161.61 257.013C1161.33 257.17 1161.02 257.199 1160.67 257.101C1160.34 257.031 1160.09 256.842 1159.91 256.535C1159.76 256.256 1159.73 255.942 1159.83 255.594C1159.92 255.245 1160.11 254.993 1160.39 254.836ZM1167.43 250.891C1167.73 250.719 1168.05 250.69 1168.37 250.803C1168.72 250.901 1168.97 251.09 1169.12 251.369C1169.3 251.676 1169.33 251.99 1169.21 252.311C1169.14 252.643 1168.95 252.896 1168.65 253.068C1168.37 253.225 1168.05 253.254 1167.7 253.156C1167.37 253.086 1167.12 252.897 1166.95 252.59C1166.79 252.311 1166.76 251.997 1166.86 251.649C1166.96 251.3 1167.15 251.048 1167.43 250.891Z" fill="#7A8CCD"/>
<path d="M1178.38 278.72L1166.52 285.637L1163.13 279.833L1192.16 262.902L1195.54 268.706L1183.68 275.624L1185.62 278.941L1204.08 283.342L1208.68 291.219L1186.13 285.92L1180.28 309.228L1175.57 301.144L1180.24 281.912L1178.38 278.72Z" fill="#7A8CCD"/>
<path d="M1194.35 321.143C1197.06 325.615 1202.43 326.681 1207.43 323.642L1222.7 314.374L1226.18 320.118L1210.92 329.386C1203 334.194 1193.68 332.441 1188.85 324.481C1184.12 316.686 1186.76 307.444 1194.68 302.636L1209.94 293.368L1213.43 299.111L1198.17 308.379C1193.28 311.344 1191.68 316.753 1194.35 321.143Z" fill="#7A8CCD"/>
<path d="M1205.87 350.931L1229.01 336.234L1222.62 326.186L1227.85 322.865L1244.17 348.552L1238.94 351.872L1232.61 341.906L1209.48 356.603L1205.87 350.931Z" fill="#7A8CCD"/>
<path d="M1217.68 369.642L1254.97 364.877L1259.15 371.091L1240.71 403.899L1236.54 397.685L1240.89 389.96L1230.63 374.703L1221.83 375.816L1217.68 369.642ZM1237.44 373.825L1244.24 383.943L1250.88 372.135L1237.44 373.825Z" fill="#7A8CCD"/>
<path d="M1242.04 405.742L1269.34 386.151L1273.26 391.611L1262.14 399.587L1272.86 414.523L1283.97 406.547L1287.89 412.007L1260.59 431.597L1256.68 426.137L1267.83 418.133L1257.11 403.197L1245.96 411.201L1242.04 405.742Z" fill="#7A8CCD"/>
<path d="M1281.13 437.233L1288.07 412.399L1293.22 419.096L1288.58 435.742L1305.86 435.533L1311.01 442.23L1285.22 442.56L1274.95 450.461L1270.85 445.134L1281.13 437.233Z" fill="#7A8CCD"/>
<path d="M1284.51 463.036L1321.09 454.407L1325.9 460.151L1310.99 494.703L1306.19 488.959L1309.71 480.822L1297.91 466.719L1289.28 468.744L1284.51 463.036ZM1304.6 465.134L1312.42 474.487L1317.79 462.051L1304.6 465.134Z" fill="#7A8CCD"/>
<path d="M1320.23 505.002L1344.65 481.923L1356.45 494.412C1361.39 499.644 1362.1 507.304 1356.9 512.217C1351.98 516.865 1343.86 515.754 1339.15 510.765L1331.96 503.16L1324.84 509.886L1320.23 505.002ZM1352.28 507.333C1354.69 505.058 1354.52 501.386 1351.95 498.665L1344.76 491.06L1336.53 498.841L1343.72 506.446C1346.26 509.132 1349.98 509.509 1352.28 507.333Z" fill="#7A8CCD"/>
<path d="M1356.45 519.009C1363.41 511.651 1374.24 511.655 1381.91 518.912C1389.55 526.136 1390.42 536.671 1383.2 544.308C1376.07 551.84 1365.47 551.592 1357.84 544.368C1350.2 537.144 1349.59 526.262 1356.45 519.009ZM1361.33 523.627C1356.88 528.334 1357.3 535.011 1362.26 539.695C1367.31 544.478 1373.86 544.398 1378.32 539.69C1382.87 534.878 1382.55 528.368 1377.49 523.585C1372.51 518.868 1365.89 518.814 1361.33 523.627Z" fill="#7A8CCD"/>
<path d="M1394.49 575.655L1395.03 563.369L1388.02 557.538L1381.75 565.067L1376.59 560.77L1398.07 534.935L1411.36 545.984C1416.89 550.587 1418.43 558.047 1413.86 563.546C1410.85 567.163 1405.97 568.225 1401.5 567.068L1400.91 580.995L1394.49 575.655ZM1408.69 559.249C1410.81 556.703 1410.28 553.139 1407.4 550.745L1399.28 543.993L1392.04 552.703L1400.16 559.455C1403 561.818 1406.67 561.685 1408.69 559.249Z" fill="#7A8CCD"/>
<path d="M1433.84 593.423C1430.58 597.934 1423.54 598.411 1416.27 593.15C1408.96 587.862 1405.87 580.176 1409.36 574.528L1415.04 578.635C1413.74 581.663 1415.6 585.558 1419.57 588.427C1423.26 591.1 1426.99 591.429 1428.51 589.328C1433.21 582.833 1409.18 575.52 1418.18 563.074C1421.64 558.291 1428.83 558.992 1435.52 563.831C1442.6 568.951 1445.13 575.935 1441.99 581.184L1436.35 577.105C1437.4 574.667 1435.76 570.874 1432.26 568.342C1428.45 565.585 1424.92 565.224 1423.51 567.168C1419.15 573.197 1442.96 580.822 1433.84 593.423Z" fill="#7A8CCD"/>
<path d="M1434.29 604.987L1451.87 576.354L1475.51 590.872L1472.27 596.148L1454.35 585.147L1450.44 591.528L1467.7 602.127L1464.46 607.404L1447.2 596.805L1443.28 603.186L1461.19 614.187L1457.93 619.504L1434.29 604.987Z" fill="#7A8CCD"/>
<path d="M1461.87 621.814L1477.18 591.905L1483.16 594.967L1470.78 619.151L1488.55 628.25L1485.62 633.975L1461.87 621.814Z" fill="#7A8CCD"/>
<path d="M1493.86 637.911L1506.38 606.731L1532.13 617.068L1529.82 622.814L1510.31 614.981L1507.52 621.93L1526.32 629.477L1524.01 635.223L1505.22 627.676L1502.43 634.625L1521.94 642.458L1519.61 648.249L1493.86 637.911Z" fill="#7A8CCD"/>
<path d="M1539.04 631.158L1532.94 652.727L1526.47 650.897L1535.62 618.566L1540.79 620.03L1554.82 647.146L1560.88 625.716L1567.35 627.546L1558.2 659.876L1552.98 658.399L1539.04 631.158Z" fill="#7A8CCD"/>
<path d="M1576.32 663.828L1580.49 630.488L1587.15 631.322L1585.46 644.896L1603.7 647.177L1605.4 633.603L1612.06 634.437L1607.89 667.777L1601.23 666.943L1602.93 653.321L1584.69 651.04L1582.98 664.662L1576.32 663.828Z" fill="#7A8CCD"/>
<path d="M1618.09 651.966C1618.08 641.838 1625.94 634.391 1636.5 634.381C1647.02 634.371 1654.9 641.42 1654.9 651.932C1654.91 662.3 1647.05 669.411 1636.54 669.421C1626.02 669.431 1618.1 661.95 1618.09 651.966ZM1624.81 651.96C1624.81 658.44 1629.71 662.995 1636.53 662.989C1643.49 662.983 1648.19 658.418 1648.18 651.938C1648.18 645.314 1643.47 640.807 1636.51 640.813C1629.65 640.819 1624.8 645.336 1624.81 651.96Z" fill="#7A8CCD"/>
<path d="M1683.6 665.634L1675.13 656.72L1666.06 657.723L1667.14 667.456L1660.46 668.195L1656.77 634.799L1673.94 632.898C1681.1 632.106 1687.54 636.175 1688.32 643.283C1688.84 647.959 1686.22 652.209 1682.29 654.624L1691.9 664.716L1683.6 665.634ZM1681.64 644.022C1681.28 640.73 1678.34 638.641 1674.62 639.052L1664.13 640.214L1665.37 651.473L1675.87 650.312C1679.54 649.905 1681.99 647.171 1681.64 644.022Z" fill="#7A8CCD"/>
<path d="M1694.09 664.319L1687.36 631.399L1714.54 625.846L1715.78 631.913L1695.18 636.121L1696.68 643.457L1716.53 639.403L1717.77 645.47L1697.92 649.524L1699.42 656.861L1720.02 652.653L1721.27 658.766L1694.09 664.319Z" fill="#7A8CCD"/>
<path d="M1730.52 639.141C1732.41 645.339 1738.42 648.271 1744.94 646.282C1749.58 644.867 1752.55 641.602 1753.27 637.567L1760.07 635.493C1760.29 643.303 1755.08 649.912 1746.82 652.434C1736.77 655.502 1727 650.652 1724.09 641.103C1721.13 631.416 1726.49 622.002 1736.59 618.92C1744.86 616.398 1752.82 618.985 1757.04 625.577L1750.25 627.65C1747.42 624.647 1743.15 623.642 1738.47 625.071C1731.9 627.075 1728.58 632.806 1730.52 639.141Z" fill="#7A8CCD"/>
<path d="M1766.61 645.661L1769.6 608.193L1776.54 605.379L1804.86 630.152L1797.93 632.965L1791.26 627.122L1774.22 634.029L1773.5 642.866L1766.61 645.661ZM1774.76 627.181L1786.06 622.6L1775.86 613.681L1774.76 627.181Z" fill="#7A8CCD"/>
<path d="M1813.79 597.748C1814.1 597.587 1814.41 597.57 1814.73 597.696C1815.06 597.778 1815.31 597.976 1815.47 598.289C1815.61 598.574 1815.63 598.889 1815.52 599.233C1815.44 599.563 1815.24 599.809 1814.92 599.969C1814.64 600.115 1814.33 600.133 1813.98 600.022C1813.64 599.911 1813.39 599.713 1813.24 599.428C1813.08 599.115 1813.07 598.8 1813.19 598.484C1813.3 598.139 1813.5 597.894 1813.79 597.748ZM1820.96 594.07C1821.28 593.909 1821.59 593.892 1821.91 594.017C1822.24 594.1 1822.48 594.298 1822.64 594.611C1822.79 594.896 1822.81 595.21 1822.69 595.555C1822.61 595.885 1822.41 596.13 1822.1 596.291C1821.82 596.437 1821.5 596.454 1821.16 596.343C1820.81 596.232 1820.57 596.034 1820.42 595.749C1820.26 595.436 1820.24 595.122 1820.37 594.805C1820.48 594.461 1820.68 594.216 1820.96 594.07ZM1822.76 615.261C1823.08 615.101 1823.39 615.083 1823.71 615.209C1824.04 615.291 1824.28 615.489 1824.44 615.803C1824.59 616.087 1824.61 616.402 1824.5 616.747C1824.41 617.077 1824.21 617.322 1823.9 617.482C1823.62 617.628 1823.3 617.646 1822.96 617.535C1822.61 617.424 1822.37 617.226 1822.22 616.941C1822.06 616.628 1822.04 616.313 1822.17 615.997C1822.28 615.652 1822.48 615.407 1822.76 615.261ZM1829.94 611.583C1830.25 611.422 1830.57 611.405 1830.88 611.53C1831.21 611.613 1831.46 611.811 1831.62 612.124C1831.77 612.409 1831.78 612.724 1831.67 613.068C1831.59 613.398 1831.39 613.643 1831.08 613.804C1830.79 613.95 1830.48 613.967 1830.13 613.856C1829.79 613.745 1829.54 613.548 1829.4 613.263C1829.24 612.95 1829.22 612.635 1829.35 612.319C1829.46 611.974 1829.65 611.729 1829.94 611.583ZM1816.98 595.14C1817.29 594.979 1817.61 594.962 1817.92 595.088C1818.25 595.17 1818.5 595.368 1818.66 595.681C1818.81 595.966 1818.82 596.281 1818.71 596.625C1818.63 596.955 1818.43 597.201 1818.12 597.361C1817.83 597.507 1817.52 597.524 1817.17 597.413C1816.83 597.302 1816.58 597.105 1816.44 596.82C1816.28 596.507 1816.26 596.192 1816.39 595.876C1816.5 595.531 1816.7 595.286 1816.98 595.14ZM1826.75 614.191C1827.06 614.03 1827.37 614.013 1827.69 614.139C1828.02 614.221 1828.26 614.419 1828.43 614.732C1828.57 615.017 1828.59 615.332 1828.48 615.676C1828.4 616.006 1828.2 616.252 1827.88 616.412C1827.6 616.558 1827.28 616.576 1826.94 616.465C1826.6 616.354 1826.35 616.156 1826.2 615.871C1826.04 615.558 1826.03 615.243 1826.15 614.927C1826.26 614.582 1826.46 614.337 1826.75 614.191ZM1811.8 611.228C1811.64 610.915 1811.62 610.6 1811.74 610.284C1811.85 609.939 1812.05 609.694 1812.34 609.548C1812.65 609.387 1812.97 609.37 1813.28 609.496C1813.61 609.578 1813.86 609.776 1814.02 610.089C1814.16 610.374 1814.18 610.689 1814.07 611.033C1813.99 611.363 1813.79 611.609 1813.48 611.769C1813.19 611.915 1812.88 611.933 1812.53 611.822C1812.19 611.711 1811.94 611.513 1811.8 611.228ZM1830.85 601.463C1830.69 601.149 1830.67 600.835 1830.79 600.519C1830.91 600.174 1831.1 599.929 1831.39 599.783C1831.7 599.622 1832.02 599.605 1832.33 599.73C1832.66 599.813 1832.91 600.011 1833.07 600.324C1833.21 600.609 1833.23 600.924 1833.12 601.268C1833.04 601.598 1832.84 601.843 1832.53 602.004C1832.24 602.15 1831.93 602.167 1831.58 602.056C1831.24 601.945 1830.99 601.747 1830.85 601.463ZM1818.03 616.554C1817.87 616.241 1817.85 615.926 1817.98 615.61C1818.09 615.265 1818.29 615.02 1818.57 614.874C1818.89 614.713 1819.2 614.696 1819.52 614.821C1819.85 614.904 1820.09 615.102 1820.25 615.415C1820.4 615.7 1820.42 616.015 1820.31 616.359C1820.22 616.689 1820.02 616.935 1819.71 617.095C1819.43 617.241 1819.11 617.258 1818.77 617.147C1818.42 617.036 1818.18 616.839 1818.03 616.554ZM1811.11 603.056C1810.95 602.742 1810.93 602.428 1811.06 602.112C1811.17 601.767 1811.37 601.522 1811.65 601.376C1811.97 601.215 1812.28 601.198 1812.6 601.323C1812.93 601.406 1813.17 601.604 1813.33 601.917C1813.48 602.202 1813.5 602.517 1813.39 602.861C1813.3 603.191 1813.11 603.436 1812.79 603.597C1812.51 603.743 1812.19 603.76 1811.85 603.649C1811.5 603.538 1811.26 603.341 1811.11 603.056ZM1831.53 609.635C1831.37 609.322 1831.35 609.007 1831.48 608.691C1831.59 608.346 1831.79 608.101 1832.07 607.955C1832.38 607.794 1832.7 607.777 1833.02 607.903C1833.35 607.985 1833.59 608.183 1833.75 608.496C1833.9 608.781 1833.91 609.096 1833.8 609.44C1833.72 609.77 1833.52 610.016 1833.21 610.176C1832.92 610.322 1832.61 610.34 1832.27 610.229C1831.92 610.118 1831.68 609.92 1831.53 609.635ZM1824.61 596.137C1824.45 595.824 1824.43 595.509 1824.56 595.193C1824.67 594.848 1824.87 594.603 1825.15 594.457C1825.47 594.296 1825.78 594.279 1826.1 594.405C1826.43 594.487 1826.67 594.685 1826.83 594.998C1826.98 595.283 1827 595.598 1826.88 595.942C1826.8 596.272 1826.6 596.518 1826.29 596.678C1826.01 596.824 1825.69 596.842 1825.35 596.731C1825 596.62 1824.76 596.422 1824.61 596.137ZM1814.4 614.422C1814.24 614.109 1814.23 613.794 1814.35 613.478C1814.46 613.133 1814.66 612.888 1814.95 612.742C1815.26 612.581 1815.57 612.564 1815.89 612.69C1816.22 612.772 1816.46 612.97 1816.63 613.283C1816.77 613.568 1816.79 613.883 1816.68 614.227C1816.59 614.557 1816.4 614.803 1816.08 614.963C1815.8 615.109 1815.48 615.127 1815.14 615.016C1814.8 614.905 1814.55 614.707 1814.4 614.422ZM1810.73 607.246C1810.57 606.932 1810.55 606.618 1810.67 606.302C1810.78 605.957 1810.98 605.712 1811.27 605.566C1811.58 605.405 1811.89 605.388 1812.21 605.513C1812.54 605.596 1812.79 605.794 1812.95 606.107C1813.09 606.392 1813.11 606.707 1813 607.051C1812.92 607.381 1812.72 607.626 1812.41 607.787C1812.12 607.933 1811.81 607.95 1811.46 607.839C1811.12 607.728 1810.87 607.531 1810.73 607.246ZM1831.92 605.445C1831.76 605.132 1831.74 604.817 1831.86 604.501C1831.98 604.156 1832.17 603.911 1832.46 603.765C1832.77 603.604 1833.09 603.587 1833.4 603.713C1833.73 603.795 1833.98 603.993 1834.14 604.306C1834.28 604.591 1834.3 604.906 1834.19 605.25C1834.11 605.58 1833.91 605.826 1833.6 605.986C1833.31 606.132 1833 606.15 1832.65 606.039C1832.31 605.928 1832.06 605.73 1831.92 605.445ZM1828.24 598.269C1828.08 597.955 1828.06 597.641 1828.19 597.325C1828.3 596.98 1828.5 596.735 1828.78 596.589C1829.09 596.428 1829.41 596.411 1829.72 596.536C1830.05 596.619 1830.3 596.817 1830.46 597.13C1830.61 597.415 1830.62 597.73 1830.51 598.074C1830.43 598.404 1830.23 598.649 1829.92 598.81C1829.63 598.956 1829.32 598.973 1828.97 598.862C1828.63 598.751 1828.38 598.553 1828.24 598.269Z" fill="#7A8CCD"/>
<path d="M1850.04 591.156L1857.14 602.908L1851.38 606.381L1834.02 577.617L1839.77 574.144L1846.87 585.896L1850.15 583.912L1854.28 565.387L1862.08 560.673L1857.12 583.292L1880.52 588.792L1872.51 593.63L1853.21 589.246L1850.04 591.156Z" fill="#7A8CCD"/>
<path d="M1893.96 572.829C1898.29 569.89 1899.08 564.478 1895.79 559.633L1885.76 544.862L1891.32 541.087L1901.35 555.858C1906.56 563.521 1905.28 572.918 1897.57 578.15C1890.03 583.274 1880.67 581.105 1875.46 573.441L1865.43 558.67L1870.99 554.894L1881.02 569.666C1884.23 574.391 1889.71 575.715 1893.96 572.829Z" fill="#7A8CCD"/>
<path d="M1924.76 558.325L1908.36 536.363L1898.82 543.485L1895.12 538.523L1919.5 520.317L1923.21 525.278L1913.74 532.343L1930.14 554.304L1924.76 558.325Z" fill="#7A8CCD"/>
<path d="M1942.81 544.978L1934.68 508.283L1940.48 503.556L1974.83 518.924L1969.02 523.65L1960.94 520.021L1946.68 531.625L1948.58 540.282L1942.81 544.978ZM1945.18 524.92L1954.64 517.225L1942.28 511.69L1945.18 524.92Z" fill="#7A8CCD"/>
<path d="M1978.41 515.813L1956.21 490.594L1961.25 486.153L1970.29 496.421L1984.09 484.274L1975.05 474.006L1980.1 469.565L2002.3 494.785L1997.25 499.225L1988.18 488.921L1974.38 501.069L1983.45 511.373L1978.41 515.813Z" fill="#7A8CCD"/>
<path d="M2007.17 472.581L1981.77 468.118L1987.93 462.334L2004.95 465.313L2003.04 448.138L2009.2 442.355L2012.06 467.981L2020.94 477.427L2016.04 482.028L2007.17 472.581Z" fill="#7A8CCD"/>
<path d="M2026.53 472.421L2014.86 436.692L2020.18 431.423L2055.86 443.372L2050.54 448.641L2042.13 445.818L2029.07 458.755L2031.82 467.185L2026.53 472.421ZM2026.93 452.228L2035.59 443.648L2022.75 439.344L2026.93 452.228Z" fill="#7A8CCD"/>
</svg>
