<svg width="2192" height="670" viewBox="0 0 2192 670" fill="none" xmlns="http://www.w3.org/2000/svg">
<path d="M20.2702 407.557L31.704 415.155L27.9848 420.752L0 402.156L3.7192 396.559L15.153 404.157L17.2782 400.958L13.0969 382.446L18.1444 374.851L23.317 397.421L46.8199 392.407L41.6396 400.203L22.3158 404.479L20.2702 407.557Z" fill="#7A8CCD"/>
<path d="M52.7713 373.723C55.7811 369.443 54.6091 364.1 49.8191 360.732L35.2133 350.46L39.079 344.963L53.6848 355.235C61.2625 360.564 63.3893 369.806 58.0326 377.423C52.7862 384.883 43.2593 386.164 35.6816 380.834L21.0759 370.563L24.9416 365.066L39.5473 375.338C44.2196 378.623 49.8168 377.924 52.7713 373.723Z" fill="#7A8CCD"/>
<path d="M76.4045 350.853L54.3642 334.561L47.2882 344.133L42.3089 340.453L60.3983 315.981L65.3777 319.661L58.3587 329.157L80.399 345.449L76.4045 350.853Z" fill="#7A8CCD"/>
<path d="M88.4063 334.513L72.2179 300.59L76.8134 294.678L113.74 301.921L109.145 307.833L100.447 306.118L89.1643 320.632L92.9723 328.638L88.4063 334.513ZM86.1987 314.436L93.6811 304.81L80.3898 302.2L86.1987 314.436Z" fill="#7A8CCD"/>
<path d="M114.532 300.999L88.5356 279.711L92.7931 274.512L103.377 283.179L115.025 268.956L104.44 260.289L108.698 255.089L134.694 276.377L130.437 281.576L119.815 272.879L108.168 287.102L118.789 295.8L114.532 300.999Z" fill="#7A8CCD"/>
<path d="M136.171 254.693L110.447 252.917L115.965 246.519L133.205 247.697L129.508 230.817L135.026 224.42L140.56 249.605L150.374 258.07L145.985 263.158L136.171 254.693Z" fill="#7A8CCD"/>
<path d="M158.398 248.612L144.924 213.522L149.97 207.99L186.214 218.111L181.168 223.644L172.632 221.251L160.244 234.834L163.411 243.115L158.398 248.612ZM157.774 228.424L165.99 219.416L152.945 215.769L157.774 228.424Z" fill="#7A8CCD"/>
<path d="M196.745 207.117L172.888 183.458L184.988 171.256C190.058 166.144 197.69 165.195 202.769 170.231C207.574 174.997 206.726 183.147 201.893 188.02L194.524 195.45L201.477 202.345L196.745 207.117ZM198.037 175.003C195.685 172.671 192.021 172.958 189.384 175.616L182.016 183.046L190.06 191.023L197.428 183.593C200.03 180.968 200.286 177.234 198.037 175.003Z" fill="#7A8CCD"/>
<path d="M208.323 171.585C201.386 164.206 202.026 153.394 209.72 146.161C217.379 138.961 227.948 138.71 235.148 146.369C242.249 153.923 241.379 164.491 233.72 171.691C226.061 178.891 215.162 178.86 208.323 171.585ZM213.22 166.983C217.658 171.704 224.348 171.673 229.315 167.005C234.386 162.238 234.69 155.693 230.252 150.972C225.715 146.146 219.197 146.08 214.126 150.847C209.125 155.548 208.683 162.156 213.22 166.983Z" fill="#7A8CCD"/>
<path d="M269.204 138.928L257.173 136.382L250.271 142.344L256.672 149.754L251.587 154.147L229.622 128.721L242.698 117.424C248.147 112.717 255.758 112.423 260.433 117.835C263.508 121.394 263.756 126.381 261.883 130.6L275.524 133.468L269.204 138.928ZM255.348 122.228C253.183 119.721 249.579 119.662 246.746 122.11L238.755 129.013L246.16 137.586L254.152 130.682C256.949 128.266 257.419 124.625 255.348 122.228Z" fill="#7A8CCD"/>
<path d="M293.546 107.245C297.004 111.609 295.554 118.514 288.518 124.088C281.444 129.691 273.209 130.581 268.719 125.686L274.213 121.335C276.774 123.409 281.028 122.672 284.866 119.632C288.44 116.801 289.769 113.299 288.16 111.267C283.182 104.984 269.624 126.133 260.087 114.093C256.421 109.465 259.047 102.731 265.519 97.6044C272.367 92.18 279.776 91.6385 283.975 96.0891L278.519 100.411C276.458 98.7366 272.362 99.2866 268.976 101.969C265.289 104.89 263.983 108.189 265.474 110.071C270.093 115.903 283.89 95.0541 293.546 107.245Z" fill="#7A8CCD"/>
<path d="M304.273 110.849L284.803 83.4646L307.415 67.388L311.003 72.4344L293.868 84.6171L298.207 90.7198L314.716 78.9822L318.304 84.0286L301.795 95.7662L306.134 101.869L323.269 89.6863L326.885 94.7719L304.273 110.849Z" fill="#7A8CCD"/>
<path d="M329.368 93.0201L311.474 64.5816L317.161 61.0027L331.63 83.9973L348.531 73.363L351.956 78.8069L329.368 93.0201Z" fill="#7A8CCD"/>
<path d="M358.721 74.7285L342.989 45.0391L367.504 32.0488L370.403 37.5201L351.826 47.364L355.332 53.9805L373.231 44.4962L376.13 49.9675L358.231 59.4518L361.737 66.0683L380.314 56.2244L383.236 61.7382L358.721 74.7285Z" fill="#7A8CCD"/>
<path d="M385.426 36.0644L393.908 56.8139L387.687 59.3565L374.974 28.2545L379.95 26.2204L407.705 38.9363L399.278 18.3201L405.498 15.7775L418.212 46.8795L413.191 48.9318L385.426 36.0644Z" fill="#7A8CCD"/>
<path d="M433.112 41.9279L426.262 9.03363L432.841 7.6636L435.63 21.0563L453.628 17.3083L450.839 3.91562L457.418 2.5456L464.268 35.4399L457.689 36.8099L454.89 23.3703L436.892 27.1182L439.691 40.5579L433.112 41.9279Z" fill="#7A8CCD"/>
<path d="M467.005 17.8288C466.862 7.70182 474.628 0.151418 485.187 0.00233306C495.698 -0.146075 503.669 6.79809 503.817 17.309C503.964 27.676 496.193 34.8904 485.682 35.0388C475.171 35.1872 467.146 27.8118 467.005 17.8288ZM473.724 17.7339C473.816 24.2133 478.776 28.7037 485.591 28.6075C492.55 28.5092 497.189 23.8833 497.098 17.4039C497.004 10.7806 492.237 6.33543 485.278 6.43369C478.415 6.5306 473.631 11.1106 473.724 17.7339Z" fill="#7A8CCD"/>
<path d="M527.228 38.8527L521.884 27.7767L512.947 25.9629L510.999 35.5593L504.413 34.2229L511.096 1.29404L528.031 4.7306C535.087 6.1625 539.975 12.0033 538.552 19.0124C537.617 23.6225 533.823 26.8689 529.34 27.9671L535.414 40.5137L527.228 38.8527ZM531.967 17.676C532.625 14.4301 530.468 11.5435 526.799 10.7989L516.45 8.69879L514.197 19.8005L524.546 21.9006C528.168 22.6357 531.337 20.7807 531.967 17.676Z" fill="#7A8CCD"/>
<path d="M537.725 41.4355L551.438 10.7615L576.766 22.085L574.239 27.7378L555.046 19.157L551.99 25.9929L570.482 34.2603L567.955 39.9131L549.462 31.6457L546.406 38.4816L565.599 47.0625L563.053 52.7591L537.725 41.4355Z" fill="#7A8CCD"/>
<path d="M581.145 44.3529C577.298 49.5673 578.53 56.1434 584.015 60.1899C587.916 63.0681 592.307 63.5039 595.979 61.6797L601.696 65.8972C595.561 70.7361 587.149 70.4952 580.197 65.3658C571.738 59.1251 569.81 48.3975 575.737 40.3634C581.75 32.2133 592.501 30.8998 600.999 37.169C607.952 42.2984 610.625 50.2359 607.851 57.554L602.134 53.3365C602.861 49.2795 601.12 45.2515 597.18 42.3448C591.657 38.2698 585.077 39.0225 581.145 44.3529Z" fill="#7A8CCD"/>
<path d="M593.487 73.8131L629.552 63.2239L634.658 68.7009L621.637 104.007L616.53 98.5296L619.607 90.2148L607.07 76.7682L598.561 79.255L593.487 73.8131ZM613.659 74.8255L621.973 83.7431L626.663 71.0358L613.659 74.8255Z" fill="#7A8CCD"/>
<path d="M654.079 106.977C654.29 107.258 654.361 107.565 654.292 107.898C654.267 108.237 654.114 108.513 653.833 108.724C653.577 108.917 653.27 108.988 652.911 108.938C652.572 108.913 652.297 108.76 652.085 108.479C651.892 108.223 651.821 107.916 651.872 107.557C651.922 107.199 652.075 106.923 652.331 106.731C652.612 106.519 652.919 106.448 653.252 106.518C653.611 106.568 653.886 106.721 654.079 106.977ZM658.931 113.418C659.142 113.699 659.213 114.006 659.144 114.339C659.119 114.678 658.966 114.954 658.685 115.165C658.429 115.358 658.122 115.429 657.763 115.379C657.424 115.354 657.149 115.201 656.937 114.92C656.744 114.664 656.673 114.357 656.724 113.998C656.774 113.64 656.927 113.364 657.183 113.172C657.464 112.96 657.771 112.889 658.104 112.959C658.463 113.009 658.738 113.162 658.931 113.418ZM638.359 118.818C638.571 119.099 638.642 119.406 638.573 119.739C638.548 120.078 638.395 120.354 638.114 120.566C637.858 120.758 637.551 120.829 637.192 120.779C636.853 120.754 636.578 120.601 636.366 120.32C636.173 120.064 636.102 119.757 636.153 119.399C636.203 119.04 636.356 118.764 636.612 118.572C636.893 118.36 637.2 118.289 637.533 118.359C637.891 118.409 638.167 118.562 638.359 118.818ZM643.211 125.259C643.423 125.54 643.494 125.847 643.425 126.18C643.4 126.519 643.247 126.795 642.966 127.007C642.71 127.199 642.403 127.27 642.044 127.22C641.705 127.195 641.43 127.042 641.218 126.761C641.025 126.505 640.954 126.198 641.005 125.84C641.055 125.481 641.208 125.205 641.464 125.013C641.745 124.801 642.052 124.73 642.385 124.8C642.743 124.85 643.019 125.003 643.211 125.259ZM657.195 109.677C657.406 109.959 657.477 110.266 657.408 110.599C657.383 110.938 657.23 111.213 656.949 111.425C656.693 111.618 656.386 111.689 656.028 111.638C655.688 111.613 655.413 111.46 655.201 111.179C655.008 110.924 654.937 110.617 654.988 110.258C655.038 109.9 655.191 109.624 655.447 109.431C655.728 109.22 656.035 109.149 656.368 109.218C656.727 109.269 657.002 109.422 657.195 109.677ZM640.095 122.558C640.307 122.839 640.378 123.146 640.308 123.479C640.284 123.819 640.131 124.094 639.849 124.306C639.594 124.498 639.287 124.57 638.928 124.519C638.589 124.494 638.314 124.341 638.102 124.06C637.909 123.804 637.838 123.497 637.889 123.139C637.939 122.78 638.092 122.505 638.348 122.312C638.629 122.101 638.936 122.029 639.269 122.099C639.627 122.15 639.903 122.303 640.095 122.558ZM640.457 107.322C640.738 107.11 641.045 107.039 641.378 107.109C641.737 107.16 642.012 107.313 642.205 107.568C642.416 107.849 642.487 108.156 642.418 108.489C642.393 108.829 642.24 109.104 641.959 109.316C641.703 109.508 641.396 109.579 641.038 109.529C640.698 109.504 640.423 109.351 640.211 109.07C640.018 108.814 639.947 108.507 639.998 108.149C640.048 107.79 640.201 107.515 640.457 107.322ZM653.338 124.422C653.619 124.21 653.926 124.139 654.259 124.208C654.617 124.259 654.893 124.412 655.085 124.667C655.297 124.949 655.368 125.256 655.299 125.589C655.274 125.928 655.121 126.203 654.84 126.415C654.584 126.608 654.277 126.679 653.918 126.628C653.579 126.603 653.304 126.45 653.092 126.169C652.899 125.914 652.828 125.607 652.879 125.248C652.929 124.89 653.082 124.614 653.338 124.422ZM636.276 114.377C636.558 114.166 636.865 114.095 637.198 114.164C637.556 114.215 637.832 114.368 638.024 114.623C638.236 114.905 638.307 115.212 638.237 115.545C638.212 115.884 638.059 116.159 637.778 116.371C637.523 116.564 637.216 116.635 636.857 116.584C636.518 116.559 636.242 116.406 636.031 116.125C635.838 115.87 635.767 115.563 635.817 115.204C635.868 114.846 636.021 114.57 636.276 114.377ZM648.392 105.251C648.673 105.039 648.98 104.968 649.313 105.038C649.671 105.088 649.947 105.241 650.139 105.497C650.351 105.778 650.422 106.085 650.353 106.418C650.328 106.757 650.175 107.033 649.893 107.245C649.638 107.437 649.331 107.508 648.972 107.458C648.633 107.433 648.358 107.28 648.146 106.999C647.953 106.743 647.882 106.436 647.933 106.078C647.983 105.719 648.136 105.444 648.392 105.251ZM645.403 126.493C645.684 126.281 645.991 126.21 646.324 126.28C646.683 126.33 646.958 126.483 647.151 126.739C647.362 127.02 647.433 127.327 647.364 127.66C647.339 127.999 647.186 128.275 646.905 128.486C646.649 128.679 646.342 128.75 645.984 128.699C645.644 128.675 645.369 128.522 645.157 128.24C644.964 127.985 644.893 127.678 644.944 127.319C644.994 126.961 645.147 126.685 645.403 126.493ZM657.518 117.366C657.799 117.155 658.106 117.083 658.439 117.153C658.798 117.204 659.073 117.357 659.266 117.612C659.478 117.893 659.549 118.2 659.479 118.533C659.454 118.873 659.301 119.148 659.02 119.36C658.764 119.552 658.457 119.624 658.099 119.573C657.759 119.548 657.484 119.395 657.272 119.114C657.08 118.858 657.009 118.551 657.059 118.193C657.109 117.834 657.262 117.559 657.518 117.366ZM637.756 110.438C638.037 110.227 638.344 110.155 638.677 110.225C639.036 110.276 639.311 110.429 639.504 110.684C639.716 110.965 639.787 111.272 639.717 111.605C639.692 111.945 639.539 112.22 639.258 112.432C639.002 112.625 638.695 112.696 638.337 112.645C637.998 112.62 637.722 112.467 637.51 112.186C637.318 111.93 637.247 111.623 637.297 111.265C637.348 110.906 637.501 110.631 637.756 110.438ZM644.197 105.586C644.478 105.375 644.785 105.304 645.118 105.373C645.477 105.424 645.752 105.577 645.945 105.832C646.157 106.113 646.228 106.42 646.158 106.753C646.133 107.093 645.98 107.368 645.699 107.58C645.443 107.773 645.136 107.844 644.778 107.793C644.439 107.768 644.163 107.615 643.951 107.334C643.759 107.078 643.688 106.771 643.738 106.413C643.789 106.054 643.942 105.779 644.197 105.586ZM649.597 126.157C649.878 125.946 650.186 125.875 650.518 125.944C650.877 125.995 651.153 126.148 651.345 126.403C651.557 126.684 651.628 126.992 651.558 127.324C651.533 127.664 651.38 127.939 651.099 128.151C650.844 128.344 650.537 128.415 650.178 128.364C649.839 128.339 649.563 128.186 649.351 127.905C649.159 127.65 649.088 127.342 649.138 126.984C649.189 126.625 649.342 126.35 649.597 126.157ZM656.038 121.305C656.319 121.094 656.627 121.023 656.96 121.092C657.318 121.143 657.594 121.296 657.786 121.551C657.998 121.833 658.069 122.14 657.999 122.473C657.974 122.812 657.821 123.087 657.54 123.299C657.285 123.492 656.978 123.563 656.619 123.512C656.28 123.487 656.004 123.334 655.792 123.053C655.6 122.798 655.529 122.491 655.579 122.132C655.63 121.774 655.783 121.498 656.038 121.305Z" fill="#7A8CCD"/>
<path d="M670.523 146.336L660.098 155.268L655.726 150.166L681.24 128.303L685.612 133.406L675.188 142.338L677.687 145.254L696.637 146.272L702.572 153.197L679.445 152.028L677.869 176.008L671.779 168.9L672.927 149.143L670.523 146.336Z" fill="#7A8CCD"/>
<path d="M696.109 186.534C699.765 190.277 705.231 190.105 709.421 186.014L722.197 173.539L726.892 178.347L714.116 190.822C707.488 197.294 698.013 197.69 691.507 191.027C685.136 184.502 685.624 174.901 692.252 168.429L705.028 155.955L709.723 160.763L696.947 173.238C692.86 177.228 692.521 182.859 696.109 186.534Z" fill="#7A8CCD"/>
<path d="M716.214 213.993L734.297 193.397L725.351 185.543L729.436 180.89L752.305 200.968L748.22 205.621L739.346 197.831L721.264 218.427L716.214 213.993Z" fill="#7A8CCD"/>
<path d="M731.45 227.78L764.705 210.26L770.794 214.618L765.019 251.803L758.93 247.445L760.299 238.686L745.349 227.987L737.5 232.11L731.45 227.78ZM751.423 224.779L761.338 231.874L763.419 218.49L751.423 224.779Z" fill="#7A8CCD"/>
<path d="M767.888 253.464L783.516 223.719L789.465 226.845L783.102 238.955L799.377 247.506L805.74 235.396L811.688 238.522L796.06 268.266L790.111 265.14L796.497 252.988L780.222 244.437L773.837 256.589L767.888 253.464Z" fill="#7A8CCD"/>
<path d="M820.334 263.449L811.786 239.121L819.845 241.657L825.585 257.955L839.625 247.881L847.683 250.417L826.744 265.466L822.854 277.828L816.444 275.811L820.334 263.449Z" fill="#7A8CCD"/>
<path d="M838.512 283.103L857.886 250.894L865.352 251.468L879.671 286.268L872.205 285.694L868.839 277.491L850.51 276.082L845.93 283.674L838.512 283.103ZM854.043 270.192L866.2 271.126L861.049 258.599L854.043 270.192Z" fill="#7A8CCD"/>
<path d="M898.669 283.693L889.516 251.364L906.05 246.683C912.978 244.721 920.092 247.646 922.04 254.527C923.884 261.039 919.14 267.72 912.536 269.59L902.468 272.441L905.135 281.862L898.669 283.693ZM915.574 256.358C914.672 253.171 911.339 251.62 907.737 252.64L897.669 255.491L900.755 266.39L910.823 263.54C914.379 262.533 916.437 259.406 915.574 256.358Z" fill="#7A8CCD"/>
<path d="M927.397 257.987C922.167 249.315 925.065 238.878 934.108 233.425C943.11 227.996 953.495 229.972 958.924 238.974C964.278 247.852 961.206 258.001 952.204 263.43C943.203 268.859 932.554 266.537 927.397 257.987ZM933.152 254.517C936.498 260.066 943.046 261.442 948.883 257.922C954.843 254.328 956.516 247.994 953.169 242.445C949.748 236.772 943.39 235.338 937.43 238.932C931.552 242.477 929.731 248.845 933.152 254.517Z" fill="#7A8CCD"/>
<path d="M990.085 231.773L977.914 230.005L971.411 236.399L978.276 243.382L973.483 248.093L949.928 224.132L962.251 212.018C967.385 206.971 974.961 206.187 979.975 211.287C983.273 214.641 983.841 219.602 982.243 223.933L996.041 225.917L990.085 231.773ZM975.183 215.998C972.861 213.636 969.262 213.809 966.592 216.434L959.061 223.837L967.003 231.915L974.533 224.512C977.169 221.921 977.404 218.257 975.183 215.998Z" fill="#7A8CCD"/>
<path d="M1008.11 191.353C1012.76 194.417 1013.54 201.429 1008.6 208.924C1003.64 216.458 996.092 219.879 990.297 216.635L994.154 210.783C997.235 211.952 1001.05 209.922 1003.74 205.834C1006.25 202.027 1006.42 198.285 1004.25 196.858C997.559 192.447 991.296 216.776 978.471 208.323C973.542 205.074 973.93 197.856 978.473 190.963C983.281 183.669 990.149 180.837 995.529 183.751L991.699 189.562C989.218 188.617 985.5 190.42 983.122 194.027C980.534 197.955 980.326 201.497 982.33 202.818C988.542 206.912 995.125 182.794 1008.11 191.353Z" fill="#7A8CCD"/>
<path d="M1017.56 191.013L989.535 172.474L1004.84 149.336L1010.01 152.752L998.407 170.286L1004.65 174.418L1015.83 157.524L1020.99 160.94L1009.82 177.834L1016.06 181.965L1027.66 164.431L1032.87 167.874L1017.56 191.013Z" fill="#7A8CCD"/>
<path d="M1035.91 163.711L1010.29 141.968L1014.64 136.845L1035.36 154.425L1048.28 139.201L1053.18 143.364L1035.91 163.711Z" fill="#7A8CCD"/>
<path d="M1056 140.203L1033.86 114.927L1054.73 96.6477L1058.81 101.306L1043 115.157L1047.93 120.79L1063.17 107.445L1067.25 112.103L1052.01 125.449L1056.94 131.082L1072.76 117.23L1076.87 121.924L1056 140.203Z" fill="#7A8CCD"/>
<path d="M1074.61 96.4943L1085.09 116.309L1079.15 119.451L1063.44 89.7498L1068.2 87.2363L1097.07 97.1618L1086.65 77.474L1092.59 74.3321L1108.3 104.034L1103.51 106.569L1074.61 96.4943Z" fill="#7A8CCD"/>
<path d="M1121.49 99.9289L1122.1 66.3344L1128.82 66.456L1128.57 80.1338L1146.95 80.4666L1147.2 66.7888L1153.92 66.9105L1153.31 100.505L1146.59 100.383L1146.84 86.6576L1128.46 86.3248L1128.21 100.051L1121.49 99.9289Z" fill="#7A8CCD"/>
<path d="M1159.9 84.8964C1164.12 75.6911 1174.38 72.2116 1183.98 76.6153C1193.53 80.999 1197.74 90.6949 1193.36 100.249C1189.04 109.673 1178.92 112.847 1169.36 108.463C1159.81 104.079 1155.73 93.9708 1159.9 84.8964ZM1166.01 87.6988C1163.3 93.5884 1165.85 99.7747 1172.05 102.617C1178.37 105.52 1184.55 103.337 1187.25 97.4469C1190.01 91.4264 1187.62 85.3638 1181.29 82.4613C1175.06 79.599 1168.77 81.6782 1166.01 87.6988Z" fill="#7A8CCD"/>
<path d="M1204.4 131.916L1205.13 119.64L1198.21 113.699L1191.83 121.128L1186.74 116.75L1208.63 91.2585L1221.74 102.516C1227.2 107.207 1228.62 114.689 1223.96 120.115C1220.89 123.684 1216 124.669 1211.55 123.441L1210.73 137.357L1204.4 131.916ZM1218.86 115.738C1221.02 113.225 1220.54 109.653 1217.7 107.214L1209.69 100.334L1202.31 108.928L1210.32 115.808C1213.13 118.216 1216.8 118.141 1218.86 115.738Z" fill="#7A8CCD"/>
<path d="M1210.81 137.991L1236.57 116.415L1254.39 137.683L1249.64 141.66L1236.14 125.543L1230.4 130.351L1243.41 145.879L1238.66 149.855L1225.65 134.327L1219.91 139.135L1233.41 155.252L1228.63 159.259L1210.81 137.991Z" fill="#7A8CCD"/>
<path d="M1249.07 159.19C1243.64 162.719 1242.48 169.309 1246.19 175.025C1248.83 179.091 1252.79 181.042 1256.87 180.625L1260.74 186.583C1253.3 188.957 1245.51 185.774 1240.8 178.528C1235.07 169.713 1237.04 158.992 1245.41 153.554C1253.91 148.037 1264.43 150.587 1270.19 159.443C1274.89 166.689 1274.61 175.059 1269.44 180.935L1265.57 174.978C1267.67 171.435 1267.46 167.052 1264.79 162.946C1261.05 157.19 1254.63 155.582 1249.07 159.19Z" fill="#7A8CCD"/>
<path d="M1251.48 194.185L1289.04 192.782L1292.64 199.345L1271.35 230.369L1267.74 223.806L1272.77 216.502L1263.92 200.387L1255.06 200.707L1251.48 194.185ZM1270.78 200.123L1276.65 210.81L1284.32 199.644L1270.78 200.123Z" fill="#7A8CCD"/>
<path d="M1303.4 236.429C1303.58 236.736 1303.6 237.05 1303.49 237.37C1303.42 237.703 1303.23 237.956 1302.93 238.128C1302.65 238.285 1302.33 238.314 1301.98 238.216C1301.65 238.146 1301.4 237.957 1301.23 237.65C1301.07 237.371 1301.04 237.057 1301.14 236.709C1301.24 236.36 1301.43 236.108 1301.7 235.951C1302.01 235.779 1302.33 235.75 1302.65 235.863C1302.99 235.961 1303.25 236.15 1303.4 236.429ZM1307.35 243.462C1307.52 243.769 1307.55 244.083 1307.44 244.404C1307.37 244.736 1307.18 244.989 1306.87 245.161C1306.59 245.318 1306.28 245.347 1305.93 245.249C1305.6 245.179 1305.34 244.99 1305.17 244.683C1305.01 244.404 1304.99 244.09 1305.08 243.742C1305.18 243.393 1305.37 243.141 1305.65 242.984C1305.96 242.812 1306.27 242.783 1306.59 242.897C1306.94 242.995 1307.19 243.183 1307.35 243.462ZM1286.24 246.057C1286.41 246.364 1286.44 246.678 1286.33 246.998C1286.26 247.331 1286.07 247.584 1285.76 247.756C1285.48 247.912 1285.17 247.942 1284.82 247.844C1284.49 247.774 1284.23 247.585 1284.06 247.278C1283.91 246.999 1283.88 246.685 1283.97 246.337C1284.07 245.988 1284.26 245.736 1284.54 245.579C1284.85 245.407 1285.16 245.378 1285.48 245.491C1285.83 245.589 1286.08 245.778 1286.24 246.057ZM1290.18 253.09C1290.36 253.397 1290.39 253.711 1290.27 254.031C1290.2 254.364 1290.01 254.617 1289.71 254.789C1289.43 254.946 1289.11 254.975 1288.76 254.877C1288.43 254.807 1288.18 254.618 1288.01 254.311C1287.85 254.032 1287.82 253.718 1287.92 253.37C1288.02 253.021 1288.21 252.769 1288.49 252.612C1288.79 252.44 1289.11 252.411 1289.43 252.524C1289.78 252.622 1290.03 252.811 1290.18 253.09ZM1306.13 239.523C1306.3 239.83 1306.33 240.144 1306.22 240.464C1306.15 240.797 1305.96 241.05 1305.65 241.222C1305.37 241.379 1305.06 241.408 1304.71 241.31C1304.38 241.24 1304.12 241.051 1303.95 240.744C1303.8 240.465 1303.77 240.151 1303.86 239.803C1303.96 239.454 1304.15 239.202 1304.43 239.045C1304.74 238.873 1305.05 238.844 1305.37 238.957C1305.72 239.055 1305.97 239.244 1306.13 239.523ZM1287.46 249.996C1287.63 250.303 1287.66 250.617 1287.55 250.938C1287.48 251.27 1287.29 251.523 1286.98 251.695C1286.7 251.852 1286.39 251.881 1286.04 251.783C1285.71 251.713 1285.45 251.524 1285.28 251.217C1285.12 250.938 1285.1 250.624 1285.19 250.276C1285.29 249.927 1285.48 249.675 1285.76 249.518C1286.07 249.346 1286.38 249.317 1286.7 249.43C1287.05 249.529 1287.3 249.717 1287.46 249.996ZM1289.86 234.946C1290.17 234.774 1290.48 234.745 1290.8 234.858C1291.15 234.956 1291.4 235.145 1291.56 235.424C1291.73 235.731 1291.76 236.045 1291.64 236.365C1291.57 236.698 1291.39 236.951 1291.08 237.123C1290.8 237.279 1290.49 237.309 1290.14 237.211C1289.8 237.141 1289.55 236.952 1289.38 236.645C1289.22 236.366 1289.19 236.052 1289.29 235.704C1289.39 235.355 1289.58 235.103 1289.86 234.946ZM1300.33 253.617C1300.64 253.445 1300.95 253.416 1301.27 253.529C1301.62 253.628 1301.87 253.816 1302.03 254.095C1302.2 254.402 1302.23 254.716 1302.12 255.037C1302.05 255.369 1301.86 255.622 1301.55 255.794C1301.27 255.951 1300.96 255.98 1300.61 255.882C1300.28 255.812 1300.03 255.623 1299.85 255.316C1299.7 255.037 1299.67 254.723 1299.77 254.375C1299.86 254.026 1300.05 253.774 1300.33 253.617ZM1284.77 241.377C1285.08 241.205 1285.39 241.176 1285.71 241.29C1286.06 241.388 1286.31 241.576 1286.47 241.855C1286.64 242.162 1286.67 242.476 1286.56 242.797C1286.49 243.13 1286.3 243.382 1285.99 243.554C1285.71 243.711 1285.4 243.74 1285.05 243.642C1284.72 243.572 1284.46 243.383 1284.29 243.076C1284.14 242.797 1284.11 242.484 1284.2 242.135C1284.3 241.786 1284.49 241.534 1284.77 241.377ZM1298 233.957C1298.31 233.785 1298.62 233.755 1298.94 233.869C1299.29 233.967 1299.54 234.156 1299.7 234.435C1299.87 234.742 1299.9 235.056 1299.79 235.376C1299.72 235.709 1299.53 235.962 1299.22 236.134C1298.94 236.29 1298.63 236.32 1298.28 236.222C1297.95 236.151 1297.69 235.963 1297.52 235.656C1297.36 235.377 1297.34 235.063 1297.43 234.715C1297.53 234.366 1297.72 234.113 1298 233.957ZM1292.19 254.606C1292.5 254.434 1292.81 254.405 1293.13 254.519C1293.48 254.617 1293.73 254.805 1293.89 255.084C1294.06 255.391 1294.09 255.705 1293.98 256.026C1293.91 256.359 1293.72 256.611 1293.41 256.783C1293.13 256.94 1292.82 256.969 1292.47 256.871C1292.14 256.801 1291.88 256.612 1291.71 256.305C1291.56 256.026 1291.53 255.712 1291.62 255.364C1291.72 255.015 1291.91 254.763 1292.19 254.606ZM1305.42 247.186C1305.73 247.014 1306.04 246.984 1306.36 247.098C1306.71 247.196 1306.96 247.385 1307.12 247.664C1307.29 247.971 1307.32 248.285 1307.21 248.605C1307.14 248.938 1306.95 249.191 1306.64 249.363C1306.36 249.519 1306.05 249.549 1305.7 249.451C1305.37 249.38 1305.11 249.192 1304.94 248.885C1304.79 248.606 1304.76 248.292 1304.85 247.943C1304.95 247.595 1305.14 247.342 1305.42 247.186ZM1286.76 237.672C1287.07 237.5 1287.39 237.471 1287.71 237.584C1288.05 237.682 1288.31 237.871 1288.46 238.15C1288.64 238.457 1288.66 238.771 1288.55 239.091C1288.48 239.424 1288.29 239.677 1287.99 239.849C1287.71 240.006 1287.39 240.035 1287.04 239.937C1286.71 239.867 1286.46 239.678 1286.29 239.371C1286.13 239.092 1286.1 238.778 1286.2 238.43C1286.3 238.081 1286.49 237.829 1286.76 237.672ZM1293.8 233.727C1294.1 233.555 1294.42 233.526 1294.74 233.639C1295.09 233.737 1295.34 233.926 1295.5 234.205C1295.67 234.512 1295.7 234.826 1295.58 235.146C1295.51 235.479 1295.33 235.732 1295.02 235.904C1294.74 236.061 1294.43 236.09 1294.08 235.992C1293.74 235.922 1293.49 235.733 1293.32 235.426C1293.16 235.147 1293.13 234.833 1293.23 234.485C1293.33 234.136 1293.52 233.884 1293.8 233.727ZM1296.39 254.836C1296.7 254.664 1297.01 254.635 1297.33 254.748C1297.68 254.846 1297.93 255.035 1298.09 255.314C1298.26 255.621 1298.29 255.935 1298.18 256.256C1298.11 256.588 1297.92 256.841 1297.61 257.013C1297.33 257.17 1297.02 257.199 1296.67 257.101C1296.34 257.031 1296.09 256.842 1295.91 256.535C1295.76 256.256 1295.73 255.942 1295.83 255.594C1295.92 255.245 1296.11 254.993 1296.39 254.836ZM1303.43 250.891C1303.73 250.719 1304.05 250.69 1304.37 250.803C1304.72 250.901 1304.97 251.09 1305.12 251.369C1305.3 251.676 1305.33 251.99 1305.21 252.311C1305.14 252.643 1304.95 252.896 1304.65 253.068C1304.37 253.225 1304.05 253.254 1303.7 253.156C1303.37 253.086 1303.12 252.897 1302.95 252.59C1302.79 252.311 1302.76 251.997 1302.86 251.649C1302.96 251.3 1303.15 251.048 1303.43 250.891Z" fill="#7A8CCD"/>
<path d="M1314.38 278.72L1302.52 285.637L1299.13 279.833L1328.16 262.902L1331.54 268.706L1319.68 275.624L1321.62 278.941L1340.08 283.342L1344.68 291.219L1322.13 285.92L1316.28 309.228L1311.57 301.144L1316.24 281.912L1314.38 278.72Z" fill="#7A8CCD"/>
<path d="M1330.35 321.143C1333.06 325.615 1338.43 326.681 1343.43 323.642L1358.7 314.374L1362.18 320.118L1346.92 329.386C1339 334.194 1329.68 332.441 1324.85 324.481C1320.12 316.686 1322.76 307.444 1330.68 302.636L1345.94 293.368L1349.43 299.111L1334.17 308.379C1329.28 311.344 1327.68 316.753 1330.35 321.143Z" fill="#7A8CCD"/>
<path d="M1341.87 350.931L1365.01 336.234L1358.62 326.186L1363.85 322.865L1380.17 348.552L1374.94 351.872L1368.61 341.906L1345.48 356.603L1341.87 350.931Z" fill="#7A8CCD"/>
<path d="M1353.68 369.642L1390.97 364.877L1395.15 371.091L1376.71 403.899L1372.54 397.685L1376.89 389.96L1366.63 374.703L1357.83 375.816L1353.68 369.642ZM1373.44 373.825L1380.24 383.943L1386.88 372.135L1373.44 373.825Z" fill="#7A8CCD"/>
<path d="M1378.04 405.742L1405.34 386.151L1409.26 391.611L1398.14 399.587L1408.86 414.523L1419.97 406.547L1423.89 412.007L1396.59 431.597L1392.68 426.137L1403.83 418.133L1393.11 403.197L1381.96 411.201L1378.04 405.742Z" fill="#7A8CCD"/>
<path d="M1417.13 437.233L1424.07 412.399L1429.22 419.096L1424.58 435.742L1441.86 435.533L1447.01 442.23L1421.22 442.56L1410.95 450.461L1406.85 445.134L1417.13 437.233Z" fill="#7A8CCD"/>
<path d="M1420.51 463.036L1457.09 454.407L1461.9 460.151L1446.99 494.703L1442.19 488.959L1445.71 480.822L1433.91 466.719L1425.28 468.744L1420.51 463.036ZM1440.6 465.134L1448.42 474.487L1453.79 462.051L1440.6 465.134Z" fill="#7A8CCD"/>
<path d="M1456.23 505.002L1480.65 481.923L1492.45 494.412C1497.39 499.644 1498.1 507.304 1492.9 512.217C1487.98 516.865 1479.86 515.754 1475.15 510.765L1467.96 503.16L1460.84 509.886L1456.23 505.002ZM1488.28 507.333C1490.69 505.058 1490.52 501.386 1487.95 498.665L1480.76 491.06L1472.53 498.841L1479.72 506.446C1482.26 509.132 1485.98 509.509 1488.28 507.333Z" fill="#7A8CCD"/>
<path d="M1492.45 519.009C1499.41 511.651 1510.24 511.655 1517.91 518.912C1525.55 526.136 1526.42 536.671 1519.2 544.308C1512.07 551.84 1501.47 551.592 1493.84 544.368C1486.2 537.144 1485.59 526.262 1492.45 519.009ZM1497.33 523.627C1492.88 528.334 1493.3 535.011 1498.26 539.695C1503.31 544.478 1509.86 544.398 1514.32 539.69C1518.87 534.878 1518.55 528.368 1513.49 523.585C1508.51 518.868 1501.89 518.814 1497.33 523.627Z" fill="#7A8CCD"/>
<path d="M1530.49 575.655L1531.03 563.369L1524.02 557.538L1517.75 565.067L1512.59 560.77L1534.07 534.935L1547.36 545.984C1552.89 550.587 1554.43 558.047 1549.86 563.546C1546.85 567.163 1541.97 568.225 1537.5 567.068L1536.91 580.995L1530.49 575.655ZM1544.69 559.249C1546.81 556.703 1546.28 553.139 1543.4 550.745L1535.28 543.993L1528.04 552.703L1536.16 559.455C1539 561.818 1542.67 561.685 1544.69 559.249Z" fill="#7A8CCD"/>
<path d="M1569.84 593.423C1566.58 597.934 1559.54 598.411 1552.27 593.15C1544.96 587.862 1541.87 580.176 1545.36 574.528L1551.04 578.635C1549.74 581.663 1551.6 585.558 1555.57 588.427C1559.26 591.1 1562.99 591.429 1564.51 589.328C1569.21 582.833 1545.18 575.52 1554.18 563.074C1557.64 558.291 1564.83 558.992 1571.52 563.831C1578.6 568.951 1581.13 575.935 1577.99 581.184L1572.35 577.105C1573.4 574.667 1571.76 570.874 1568.26 568.342C1564.45 565.585 1560.92 565.224 1559.51 567.168C1555.15 573.197 1578.96 580.822 1569.84 593.423Z" fill="#7A8CCD"/>
<path d="M1570.29 604.987L1587.87 576.354L1611.51 590.872L1608.27 596.148L1590.35 585.147L1586.44 591.528L1603.7 602.127L1600.46 607.404L1583.2 596.805L1579.28 603.186L1597.19 614.187L1593.93 619.504L1570.29 604.987Z" fill="#7A8CCD"/>
<path d="M1597.87 621.814L1613.18 591.905L1619.16 594.967L1606.78 619.151L1624.55 628.25L1621.62 633.975L1597.87 621.814Z" fill="#7A8CCD"/>
<path d="M1629.86 637.911L1642.38 606.731L1668.13 617.068L1665.82 622.814L1646.31 614.981L1643.52 621.93L1662.32 629.477L1660.01 635.223L1641.22 627.676L1638.43 634.625L1657.94 642.458L1655.61 648.249L1629.86 637.911Z" fill="#7A8CCD"/>
<path d="M1675.04 631.158L1668.94 652.727L1662.47 650.897L1671.62 618.566L1676.79 620.03L1690.82 647.146L1696.88 625.716L1703.35 627.546L1694.2 659.876L1688.98 658.399L1675.04 631.158Z" fill="#7A8CCD"/>
<path d="M1712.32 663.828L1716.49 630.488L1723.15 631.322L1721.46 644.896L1739.7 647.177L1741.4 633.603L1748.06 634.437L1743.89 667.777L1737.23 666.943L1738.93 653.321L1720.69 651.04L1718.98 664.662L1712.32 663.828Z" fill="#7A8CCD"/>
<path d="M1754.09 651.966C1754.08 641.838 1761.94 634.391 1772.5 634.381C1783.02 634.371 1790.9 641.42 1790.9 651.932C1790.91 662.3 1783.05 669.411 1772.54 669.421C1762.02 669.431 1754.1 661.95 1754.09 651.966ZM1760.81 651.96C1760.81 658.44 1765.71 662.995 1772.53 662.989C1779.49 662.983 1784.19 658.418 1784.18 651.938C1784.18 645.314 1779.47 640.807 1772.51 640.813C1765.65 640.819 1760.8 645.336 1760.81 651.96Z" fill="#7A8CCD"/>
<path d="M1819.6 665.634L1811.13 656.72L1802.06 657.723L1803.14 667.456L1796.46 668.195L1792.77 634.799L1809.94 632.898C1817.1 632.106 1823.54 636.175 1824.32 643.283C1824.84 647.959 1822.22 652.209 1818.29 654.624L1827.9 664.716L1819.6 665.634ZM1817.64 644.022C1817.28 640.73 1814.34 638.641 1810.62 639.052L1800.13 640.214L1801.37 651.473L1811.87 650.312C1815.54 649.905 1817.99 647.171 1817.64 644.022Z" fill="#7A8CCD"/>
<path d="M1830.09 664.319L1823.36 631.399L1850.54 625.846L1851.78 631.913L1831.18 636.121L1832.68 643.457L1852.53 639.403L1853.77 645.47L1833.92 649.524L1835.42 656.861L1856.02 652.653L1857.27 658.766L1830.09 664.319Z" fill="#7A8CCD"/>
<path d="M1866.52 639.141C1868.41 645.339 1874.42 648.271 1880.94 646.282C1885.58 644.867 1888.55 641.602 1889.27 637.567L1896.07 635.493C1896.29 643.303 1891.08 649.912 1882.82 652.434C1872.77 655.502 1863 650.652 1860.09 641.103C1857.13 631.416 1862.49 622.002 1872.59 618.92C1880.86 616.398 1888.82 618.985 1893.04 625.577L1886.25 627.65C1883.42 624.647 1879.15 623.642 1874.47 625.071C1867.9 627.075 1864.58 632.806 1866.52 639.141Z" fill="#7A8CCD"/>
<path d="M1902.61 645.661L1905.6 608.193L1912.54 605.379L1940.86 630.152L1933.93 632.965L1927.26 627.122L1910.22 634.029L1909.5 642.866L1902.61 645.661ZM1910.76 627.181L1922.06 622.6L1911.86 613.681L1910.76 627.181Z" fill="#7A8CCD"/>
<path d="M1949.79 597.748C1950.1 597.587 1950.41 597.57 1950.73 597.696C1951.06 597.778 1951.31 597.976 1951.47 598.289C1951.61 598.574 1951.63 598.889 1951.52 599.233C1951.44 599.563 1951.24 599.809 1950.92 599.969C1950.64 600.115 1950.33 600.133 1949.98 600.022C1949.64 599.911 1949.39 599.713 1949.24 599.428C1949.08 599.115 1949.07 598.8 1949.19 598.484C1949.3 598.139 1949.5 597.894 1949.79 597.748ZM1956.96 594.07C1957.28 593.909 1957.59 593.892 1957.91 594.017C1958.24 594.1 1958.48 594.298 1958.64 594.611C1958.79 594.896 1958.81 595.21 1958.69 595.555C1958.61 595.885 1958.41 596.13 1958.1 596.291C1957.82 596.437 1957.5 596.454 1957.16 596.343C1956.81 596.232 1956.57 596.034 1956.42 595.749C1956.26 595.436 1956.24 595.122 1956.37 594.805C1956.48 594.461 1956.68 594.216 1956.96 594.07ZM1958.76 615.261C1959.08 615.101 1959.39 615.083 1959.71 615.209C1960.04 615.291 1960.28 615.489 1960.44 615.803C1960.59 616.087 1960.61 616.402 1960.5 616.747C1960.41 617.077 1960.21 617.322 1959.9 617.482C1959.62 617.628 1959.3 617.646 1958.96 617.535C1958.61 617.424 1958.37 617.226 1958.22 616.941C1958.06 616.628 1958.04 616.313 1958.17 615.997C1958.28 615.652 1958.48 615.407 1958.76 615.261ZM1965.94 611.583C1966.25 611.422 1966.57 611.405 1966.88 611.53C1967.21 611.613 1967.46 611.811 1967.62 612.124C1967.77 612.409 1967.78 612.724 1967.67 613.068C1967.59 613.398 1967.39 613.643 1967.08 613.804C1966.79 613.95 1966.48 613.967 1966.13 613.856C1965.79 613.745 1965.54 613.548 1965.4 613.263C1965.24 612.95 1965.22 612.635 1965.35 612.319C1965.46 611.974 1965.65 611.729 1965.94 611.583ZM1952.98 595.14C1953.29 594.979 1953.61 594.962 1953.92 595.088C1954.25 595.17 1954.5 595.368 1954.66 595.681C1954.81 595.966 1954.82 596.281 1954.71 596.625C1954.63 596.955 1954.43 597.201 1954.12 597.361C1953.83 597.507 1953.52 597.524 1953.17 597.413C1952.83 597.302 1952.58 597.105 1952.44 596.82C1952.28 596.507 1952.26 596.192 1952.39 595.876C1952.5 595.531 1952.7 595.286 1952.98 595.14ZM1962.75 614.191C1963.06 614.03 1963.37 614.013 1963.69 614.139C1964.02 614.221 1964.26 614.419 1964.43 614.732C1964.57 615.017 1964.59 615.332 1964.48 615.676C1964.4 616.006 1964.2 616.252 1963.88 616.412C1963.6 616.558 1963.28 616.576 1962.94 616.465C1962.6 616.354 1962.35 616.156 1962.2 615.871C1962.04 615.558 1962.03 615.243 1962.15 614.927C1962.26 614.582 1962.46 614.337 1962.75 614.191ZM1947.8 611.228C1947.64 610.915 1947.62 610.6 1947.74 610.284C1947.85 609.939 1948.05 609.694 1948.34 609.548C1948.65 609.387 1948.97 609.37 1949.28 609.496C1949.61 609.578 1949.86 609.776 1950.02 610.089C1950.16 610.374 1950.18 610.689 1950.07 611.033C1949.99 611.363 1949.79 611.609 1949.48 611.769C1949.19 611.915 1948.88 611.933 1948.53 611.822C1948.19 611.711 1947.94 611.513 1947.8 611.228ZM1966.85 601.463C1966.69 601.149 1966.67 600.835 1966.79 600.519C1966.91 600.174 1967.1 599.929 1967.39 599.783C1967.7 599.622 1968.02 599.605 1968.33 599.73C1968.66 599.813 1968.91 600.011 1969.07 600.324C1969.21 600.609 1969.23 600.924 1969.12 601.268C1969.04 601.598 1968.84 601.843 1968.53 602.004C1968.24 602.15 1967.93 602.167 1967.58 602.056C1967.24 601.945 1966.99 601.747 1966.85 601.463ZM1954.03 616.554C1953.87 616.241 1953.85 615.926 1953.98 615.61C1954.09 615.265 1954.29 615.02 1954.57 614.874C1954.89 614.713 1955.2 614.696 1955.52 614.821C1955.85 614.904 1956.09 615.102 1956.25 615.415C1956.4 615.7 1956.42 616.015 1956.31 616.359C1956.22 616.689 1956.02 616.935 1955.71 617.095C1955.43 617.241 1955.11 617.258 1954.77 617.147C1954.42 617.036 1954.18 616.839 1954.03 616.554ZM1947.11 603.056C1946.95 602.742 1946.93 602.428 1947.06 602.112C1947.17 601.767 1947.37 601.522 1947.65 601.376C1947.97 601.215 1948.28 601.198 1948.6 601.323C1948.93 601.406 1949.17 601.604 1949.33 601.917C1949.48 602.202 1949.5 602.517 1949.39 602.861C1949.3 603.191 1949.11 603.436 1948.79 603.597C1948.51 603.743 1948.19 603.76 1947.85 603.649C1947.5 603.538 1947.26 603.341 1947.11 603.056ZM1967.53 609.635C1967.37 609.322 1967.35 609.007 1967.48 608.691C1967.59 608.346 1967.79 608.101 1968.07 607.955C1968.38 607.794 1968.7 607.777 1969.02 607.903C1969.35 607.985 1969.59 608.183 1969.75 608.496C1969.9 608.781 1969.91 609.096 1969.8 609.44C1969.72 609.77 1969.52 610.016 1969.21 610.176C1968.92 610.322 1968.61 610.34 1968.27 610.229C1967.92 610.118 1967.68 609.92 1967.53 609.635ZM1960.61 596.137C1960.45 595.824 1960.43 595.509 1960.56 595.193C1960.67 594.848 1960.87 594.603 1961.15 594.457C1961.47 594.296 1961.78 594.279 1962.1 594.405C1962.43 594.487 1962.67 594.685 1962.83 594.998C1962.98 595.283 1963 595.598 1962.88 595.942C1962.8 596.272 1962.6 596.518 1962.29 596.678C1962.01 596.824 1961.69 596.842 1961.35 596.731C1961 596.62 1960.76 596.422 1960.61 596.137ZM1950.4 614.422C1950.24 614.109 1950.23 613.794 1950.35 613.478C1950.46 613.133 1950.66 612.888 1950.95 612.742C1951.26 612.581 1951.57 612.564 1951.89 612.69C1952.22 612.772 1952.46 612.97 1952.63 613.283C1952.77 613.568 1952.79 613.883 1952.68 614.227C1952.59 614.557 1952.4 614.803 1952.08 614.963C1951.8 615.109 1951.48 615.127 1951.14 615.016C1950.8 614.905 1950.55 614.707 1950.4 614.422ZM1946.73 607.246C1946.57 606.932 1946.55 606.618 1946.67 606.302C1946.78 605.957 1946.98 605.712 1947.27 605.566C1947.58 605.405 1947.89 605.388 1948.21 605.513C1948.54 605.596 1948.79 605.794 1948.95 606.107C1949.09 606.392 1949.11 606.707 1949 607.051C1948.92 607.381 1948.72 607.626 1948.41 607.787C1948.12 607.933 1947.81 607.95 1947.46 607.839C1947.12 607.728 1946.87 607.531 1946.73 607.246ZM1967.92 605.445C1967.76 605.132 1967.74 604.817 1967.86 604.501C1967.98 604.156 1968.17 603.911 1968.46 603.765C1968.77 603.604 1969.09 603.587 1969.4 603.713C1969.73 603.795 1969.98 603.993 1970.14 604.306C1970.28 604.591 1970.3 604.906 1970.19 605.25C1970.11 605.58 1969.91 605.826 1969.6 605.986C1969.31 606.132 1969 606.15 1968.65 606.039C1968.31 605.928 1968.06 605.73 1967.92 605.445ZM1964.24 598.269C1964.08 597.955 1964.06 597.641 1964.19 597.325C1964.3 596.98 1964.5 596.735 1964.78 596.589C1965.09 596.428 1965.41 596.411 1965.72 596.536C1966.05 596.619 1966.3 596.817 1966.46 597.13C1966.61 597.415 1966.62 597.73 1966.51 598.074C1966.43 598.404 1966.23 598.649 1965.92 598.81C1965.63 598.956 1965.32 598.973 1964.97 598.862C1964.63 598.751 1964.38 598.553 1964.24 598.269Z" fill="#7A8CCD"/>
<path d="M1986.04 591.156L1993.14 602.908L1987.38 606.381L1970.02 577.617L1975.77 574.144L1982.87 585.896L1986.15 583.912L1990.28 565.387L1998.08 560.673L1993.12 583.292L2016.52 588.792L2008.51 593.63L1989.21 589.246L1986.04 591.156Z" fill="#7A8CCD"/>
<path d="M2029.96 572.829C2034.29 569.89 2035.08 564.478 2031.79 559.633L2021.76 544.862L2027.32 541.087L2037.35 555.858C2042.56 563.521 2041.28 572.918 2033.57 578.15C2026.03 583.274 2016.67 581.105 2011.46 573.441L2001.43 558.67L2006.99 554.894L2017.02 569.666C2020.23 574.391 2025.71 575.715 2029.96 572.829Z" fill="#7A8CCD"/>
<path d="M2060.76 558.325L2044.36 536.363L2034.82 543.485L2031.12 538.523L2055.5 520.317L2059.21 525.278L2049.74 532.343L2066.14 554.304L2060.76 558.325Z" fill="#7A8CCD"/>
<path d="M2078.81 544.978L2070.68 508.283L2076.48 503.556L2110.83 518.924L2105.02 523.65L2096.94 520.021L2082.68 531.625L2084.58 540.282L2078.81 544.978ZM2081.18 524.92L2090.64 517.225L2078.28 511.69L2081.18 524.92Z" fill="#7A8CCD"/>
<path d="M2114.41 515.813L2092.21 490.594L2097.25 486.153L2106.29 496.421L2120.09 484.274L2111.05 474.006L2116.1 469.565L2138.3 494.785L2133.25 499.225L2124.18 488.921L2110.38 501.069L2119.45 511.373L2114.41 515.813Z" fill="#7A8CCD"/>
<path d="M2143.17 472.581L2117.77 468.118L2123.93 462.334L2140.95 465.313L2139.04 448.138L2145.2 442.355L2148.06 467.981L2156.94 477.427L2152.04 482.028L2143.17 472.581Z" fill="#7A8CCD"/>
<path d="M2162.53 472.421L2150.86 436.692L2156.18 431.423L2191.86 443.372L2186.54 448.641L2178.13 445.818L2165.07 458.755L2167.82 467.185L2162.53 472.421ZM2162.93 452.228L2171.59 443.648L2158.75 439.344L2162.93 452.228Z" fill="#7A8CCD"/>
</svg>
