<svg width="241" height="38" viewBox="0 0 241 38" fill="none" xmlns="http://www.w3.org/2000/svg">
<g clip-path="url(#clip0_2166_3427)">
<path d="M42.2733 4.30346C42.3024 4.72875 42.0866 5.13343 41.7172 5.34621C41.3943 5.56224 41.057 5.7558 40.7075 5.92553C40.3765 6.08773 40.0455 6.23008 39.8932 6.03808C39.7409 5.84608 39.7343 5.33297 39.7442 4.97877C39.7541 4.62456 39.7442 4.43587 39.7442 4.09159C39.7442 3.74732 39.7442 3.24746 39.7442 2.58208C39.7442 1.9167 39.7442 1.0858 39.9991 0.59587C40.254 0.105939 40.7208 -0.0661989 41.0617 0.188698C41.4027 0.443594 41.5914 1.12884 41.8132 1.94649C42.0514 2.71317 42.2057 3.50346 42.2733 4.30346Z" fill="#5F6062"/>
<path d="M54.5084 15.2276H52.4096C51.2024 15.2761 49.9934 15.1918 48.8046 14.976C47.6831 14.7482 46.628 14.2682 45.7194 13.5724C44.9488 12.9043 44.359 12.0527 44.0046 11.0963C43.6755 10.2285 43.3904 9.3446 43.1506 8.448C42.9453 7.76938 42.7964 7.43504 42.558 7.26952C42.2936 7.12532 41.9824 7.09313 41.694 7.18014C41.3669 7.25884 41.0533 7.38604 40.7638 7.55752C40.4229 7.73666 40.1257 7.98871 39.8932 8.29573C39.7498 8.58959 39.6881 8.91658 39.7144 9.24249V14.0259C39.7039 14.699 39.7326 15.3722 39.8005 16.0419C39.8519 16.8463 40.1528 17.6146 40.6612 18.24C41.339 18.9153 42.2081 19.366 43.1506 19.531C44.0829 19.6759 45.0306 19.6938 45.9677 19.584L48.8013 19.4086C49.7514 19.3457 50.7015 19.2662 51.6482 19.2331C52.595 19.2 53.5517 19.2 54.5084 19.2C55.465 19.2 56.4118 19.2 57.3586 19.2331C58.3053 19.2662 59.2587 19.3457 60.2055 19.4086L63.0424 19.584C63.9784 19.6937 64.925 19.6759 65.8562 19.531C66.7956 19.3728 67.6629 18.9276 68.339 18.2566C68.8506 17.6324 69.1539 16.8638 69.2063 16.0585C69.2716 15.3886 69.2992 14.7155 69.289 14.0425V9.24249C69.3188 8.91641 69.2569 8.58851 69.1103 8.29573C68.8828 7.98614 68.5887 7.7316 68.2496 7.5509C67.9592 7.3788 67.6445 7.25157 67.3161 7.17352C67.0266 7.08708 66.7146 7.11923 66.4488 7.2629C66.2171 7.42842 66.0615 7.76276 65.8562 8.44138C65.651 9.12001 65.3895 10.1429 65.0121 11.0897C64.6552 12.0464 64.0632 12.8979 63.2907 13.5658C62.3837 14.271 61.3271 14.7591 60.2022 14.9926C59.0156 15.2083 57.8089 15.2927 56.6038 15.2441H54.5084" fill="#5F6062"/>
<path d="M66.7334 4.30346C66.7066 4.72911 66.9234 5.13318 67.2929 5.34621C67.6151 5.56506 67.9538 5.75874 68.3058 5.92553C68.6369 6.08773 68.9679 6.23008 69.1202 6.03808C69.2725 5.84608 69.2725 5.33297 69.2725 4.97877C69.2725 4.62456 69.2725 4.43587 69.2725 4.09159C69.2725 3.74732 69.2725 3.24746 69.2725 2.58208C69.2725 1.9167 69.2559 1.0858 69.0176 0.59587C68.7792 0.105939 68.2926 -0.0661989 67.955 0.188698C67.6173 0.443594 67.422 1.12884 67.2035 1.94649C66.9621 2.71285 66.8045 3.50312 66.7334 4.30346Z" fill="#5F6062"/>
<path d="M208.671 1.69157C206.238 3.24082 200.339 7.08744 198.121 8.97433C196.461 10.3596 195.243 12.201 194.619 14.2709C194.288 15.3037 194.109 16.3663 193.827 17.4091C193.546 18.4518 193.162 19.531 191.798 19.531C190.434 19.531 190.077 18.4916 189.779 17.419C189.481 16.3465 189.315 15.3103 188.981 14.2775C188.355 12.209 187.139 10.3682 185.482 8.98095C183.261 7.09075 177.362 3.24413 174.929 1.69819C174.197 1.23806 173.959 0.814332 174.237 0.453505C174.515 0.0926772 175.286 -0.198633 177.623 0.605781C179.96 1.41019 182.304 2.34371 184.625 3.3335C187.273 4.46564 188.743 5.43557 191.798 5.47861C194.854 5.43557 196.31 4.46564 198.975 3.3335C201.292 2.3404 203.633 1.41019 205.973 0.605781C208.313 -0.198633 209.095 0.0926772 209.363 0.446884C209.631 0.801091 209.396 1.23144 208.671 1.69157Z" fill="#5F6062"/>
<path d="M226.891 11.3181C227.318 11.3181 227.934 11.2684 228.176 10.7454C228.343 10.4202 228.368 10.0404 228.245 9.69599C228.165 9.46138 228.054 9.23867 227.914 9.03392C227.591 8.59028 227.244 8.1648 226.875 7.75944C226.187 6.91719 225.449 6.1179 224.663 5.36606C224.261 4.97297 223.817 4.62447 223.339 4.32661C222.799 3.96775 222.148 3.81501 221.505 3.89627C220.512 4.01875 219.718 4.69737 218.969 5.25682C217.665 6.23337 216.387 7.2662 215.12 8.2924C212.575 10.3581 210.06 12.4623 207.575 14.6052C206.334 15.6745 205.109 16.7702 203.864 17.8328C203.454 18.1837 203.047 18.5346 202.633 18.8756C202.427 19.0548 202.205 19.2154 201.971 19.3556C201.763 19.5022 201.51 19.5723 201.256 19.5542C200.954 19.4782 200.747 19.2028 200.756 18.8921C200.761 18.5946 200.888 18.3122 201.107 18.1109C203.686 15.2971 206.294 12.5296 209.052 9.90785C211.809 7.28606 214.593 4.75033 217.516 2.36358C221.899 -1.2116 223.064 -0.440286 227.116 2.9462C230.016 5.36275 232.777 7.94482 235.488 10.603C236.726 11.8212 238.169 13.1652 239.216 14.6185C239.713 15.2324 240.065 15.9511 240.245 16.7205C240.367 17.3317 240.24 17.9661 239.892 18.4836C239.545 19.001 239.006 19.3589 238.395 19.4781C237.1 19.733 235.554 18.6902 234.578 18.1241C232.576 16.9539 230.471 15.9721 228.288 15.1912C226.611 14.5871 224.889 14.1167 223.137 13.7843C222.369 13.6353 221.595 13.5194 220.82 13.3837C220.158 13.2645 219.496 13.1487 218.94 13.0262C217.824 12.7879 217.529 12.5661 217.424 12.288C217.371 12.1449 217.371 11.9875 217.424 11.8444C217.52 11.5763 217.804 11.3114 219.625 11.3114L226.891 11.3181Z" fill="#5F6062"/>
<path d="M123.231 11.3181C123.661 11.3181 124.28 11.2684 124.515 10.7454C124.688 10.4215 124.712 10.0389 124.582 9.69599C124.513 9.46001 124.406 9.23653 124.267 9.03392C123.948 8.58876 123.602 8.16317 123.231 7.75944C122.545 6.91806 121.809 6.11882 121.026 5.36606C120.622 4.97429 120.179 4.62591 119.702 4.32661C119.166 3.96733 118.518 3.81444 117.878 3.89626C116.885 4.01875 116.091 4.69737 115.346 5.25682C114.038 6.23337 112.757 7.2662 111.493 8.2924C108.95 10.3581 106.435 12.4623 103.948 14.6052C102.707 15.6745 101.479 16.7702 100.234 17.8328C99.8103 18.187 99.4031 18.5379 98.9893 18.869C98.785 19.0503 98.5632 19.2111 98.3273 19.349C98.1214 19.4956 97.8709 19.5658 97.6189 19.5476C97.3175 19.4716 97.1096 19.1962 97.1187 18.8855C97.1211 18.5914 97.2402 18.3103 97.45 18.1043C100.032 15.2905 102.644 12.523 105.395 9.90123C108.146 7.27944 110.936 4.74371 113.859 2.35695C118.239 -1.21822 119.401 -0.446908 123.459 2.93957C126.366 5.35613 129.12 7.9382 131.835 10.5964C133.073 11.8146 134.519 13.1586 135.565 14.6119C136.061 15.2262 136.411 15.9449 136.588 16.7139C136.71 17.3246 136.583 17.9586 136.237 18.476C135.89 18.9933 135.352 19.3515 134.741 19.4714C133.447 19.7263 131.897 18.6836 130.921 18.1175C128.92 16.9471 126.814 15.9652 124.631 15.1845C122.952 14.5805 121.227 14.11 119.474 13.7776C118.709 13.6287 117.928 13.5128 117.157 13.3771C116.494 13.2579 115.832 13.1421 115.276 13.0196C114.161 12.7812 113.873 12.5594 113.767 12.2814C113.709 12.1392 113.709 11.98 113.767 11.8378C113.859 11.5696 114.141 11.3048 115.958 11.3048L123.231 11.3181Z" fill="#5F6062"/>
<path d="M155.706 13.6518H156.056C158.794 13.6518 161.326 13.771 163.203 14.1418C165.08 14.5125 166.305 15.1349 167.351 16.4358C168.397 17.7368 168.778 18.4552 169.189 18.9186C169.99 19.8621 170.917 19.8157 171.224 18.8689C171.365 18.2617 171.42 17.6376 171.387 17.0152V2.88661C171.387 2.07557 171.41 1.00964 171.099 0.473364C170.967 0.244474 170.741 0.0848251 170.481 0.0364377C170.221 -0.0119497 169.954 0.055772 169.748 0.221778C169.337 0.523019 169.162 1.13212 168.881 2.26426C168.599 3.3964 168.219 5.04826 167.755 6.48164C167.292 7.91502 166.808 9.11005 164.918 9.71585C163.432 10.1925 158.655 10.5732 155.706 10.5732C152.756 10.5732 147.976 10.1925 146.486 9.71585C144.603 9.11005 144.099 7.90509 143.643 6.48164C143.186 5.05819 142.812 3.3964 142.524 2.26426C142.236 1.13212 142.064 0.523019 141.653 0.221778C141.448 0.055772 141.18 -0.0119497 140.92 0.0364377C140.66 0.0848251 140.434 0.244474 140.302 0.473364C139.995 1.00964 140.018 2.07557 140.018 2.88661V17.0251C139.993 17.645 140.053 18.2654 140.197 18.8689C140.504 19.8058 141.418 19.8621 142.232 18.9087C142.643 18.4452 143.03 17.7203 144.076 16.4259C145.122 15.1316 146.344 14.4993 148.221 14.1318C150.098 13.7644 152.62 13.6585 155.361 13.6419L155.706 13.6518Z" fill="#5F6062"/>
<path d="M73.9897 0.0198626C73.5924 0.0198626 71.9704 -0.00662014 71.6029 0.390621C71.4518 0.616653 71.4104 0.898725 71.4904 1.15862C71.5789 1.43333 71.7987 1.64571 72.0763 1.72469C72.4953 1.8698 72.9296 1.96643 73.3707 2.01269C74.281 2.17159 75.1913 2.29407 76.1017 2.41655C78.4653 2.74759 81.7789 3.168 83.9306 4.57159C85.2118 5.4091 85.7944 6.48166 86.2214 7.88193C86.5954 9.21765 86.8175 10.5913 86.8835 11.9768C86.9795 13.3539 87.0358 14.7377 87.0589 16.1181C87.0523 16.5878 87.0722 17.0575 87.1185 17.525C87.158 17.9878 87.2897 18.438 87.5058 18.8491C87.7106 19.2634 88.1328 19.5256 88.5949 19.5256C89.0571 19.5256 89.4792 19.2634 89.684 18.8491C90.1938 17.952 90.1078 17.0648 90.1276 16.1247C90.1574 14.7443 90.2104 13.3606 90.3031 11.9834C90.367 10.5977 90.5892 9.22384 90.9651 7.88855C91.3922 6.47503 91.9748 5.40579 93.2559 4.57821C95.4109 3.16469 98.718 2.74759 101.085 2.41324C101.992 2.29076 102.906 2.16828 103.816 2.00938C104.255 1.96267 104.688 1.86718 105.107 1.72469C105.385 1.64744 105.604 1.43416 105.69 1.15862C105.774 0.899509 105.734 0.615926 105.58 0.390621C105.216 -0.00662014 103.594 0.00662127 103.19 0.0198626C98.3351 0.0198626 93.4711 0.0198626 88.5982 0.0198626C83.7254 0.0198626 78.8559 0.0198626 73.9897 0.0198626Z" fill="#5F6062"/>
<path d="M0.5 15.7372V4.11127C0.5 3.47238 0.5 2.83017 0.549655 2.19127C0.59931 1.55238 0.672138 0.393757 1.40703 0.0958263C2.39021 -0.304725 2.65172 0.628792 2.84703 1.44645C3.25421 3.15127 3.45283 4.8859 3.72759 6.62052C3.86993 7.48783 3.9891 8.35183 4.16124 9.21252C4.33338 10.0732 4.66441 10.9471 5.54166 11.1987C6.36593 11.4172 7.16372 10.9836 7.8589 10.7121L10.1199 9.82824C11.6194 9.239 13.1356 8.65307 14.6385 8.06714C17.4633 6.96369 20.2859 5.86686 23.1063 4.77665C25.0683 4.01528 27.0302 3.25279 28.9921 2.48921C30.1342 2.01914 33.7226 0.559275 34.9276 0.261344C35.2586 0.175275 36.02 -0.0696909 36.2517 0.456654C36.4834 0.982999 36.02 1.46631 35.6228 1.70134C34.7687 2.20783 33.8848 2.65141 33.0241 3.13141L30.4388 4.58465C28.7174 5.55127 26.9662 6.47155 25.2581 7.46796C24.5199 7.89169 24.1094 8.50079 24.4239 9.45417C24.6556 10.1361 25.1223 10.4473 25.6156 10.828C26.1088 11.2087 26.6087 11.5364 27.1185 11.874C28.1314 12.5361 29.151 13.1982 30.1673 13.8602C31.1836 14.5223 35.199 17.1342 36.0895 18.1637C36.3727 18.4279 36.4981 18.8204 36.4206 19.1998C36.2749 19.6335 35.785 19.5474 35.4837 19.5044C33.8286 19.2462 28.4923 16.7336 27.0225 16.0616C26.0492 15.6048 19.7 12.6255 18.6539 12.3309C17.8032 12.0859 17.065 12.2647 16.2672 12.5295C14.943 12.9466 13.7844 13.6682 12.5761 14.3369C11.3679 15.0056 10.1695 15.6611 8.96455 16.343L5.35628 18.359C4.62138 18.8277 3.83355 19.2078 3.00924 19.4911C2.54081 19.6733 2.02112 19.6733 1.55269 19.4911C0.549655 19.0674 0.5 16.8627 0.5 15.7372Z" fill="#5F6062"/>
<path d="M183.562 29.0052C183.636 29.0459 183.701 29.1024 183.751 29.1708C186.026 31.7572 188.301 34.3525 190.577 36.9567C190.831 37.2465 191.15 37.4732 191.507 37.6188C191.826 37.7285 192.164 37.7702 192.5 37.7412C192.809 37.7202 193.109 37.6321 193.381 37.483C193.662 37.348 193.912 37.1564 194.115 36.9203C194.259 36.7457 194.371 36.5474 194.447 36.3343C194.538 36.123 194.6 35.9003 194.632 35.6723C194.63 35.6414 194.63 35.6105 194.632 35.5796V27.6347H193.199V35.52C193.186 35.7459 193.078 35.9557 192.901 36.096C192.734 36.2388 192.521 36.3154 192.301 36.3112C192.176 36.3107 192.053 36.2859 191.937 36.2383C191.825 36.1761 191.722 36.0993 191.629 36.0099C189.359 33.4212 187.074 30.8127 184.817 28.2207C184.62 28.0013 184.381 27.8235 184.115 27.6976C183.863 27.5828 183.588 27.5274 183.311 27.5354C182.83 27.5286 182.363 27.6876 181.986 27.9856C181.591 28.2896 181.343 28.7467 181.304 29.2436C181.306 29.2601 181.306 29.2767 181.304 29.2932V37.6485H182.721V29.4621C182.723 29.4356 182.723 29.4091 182.721 29.3826C182.726 29.3321 182.736 29.2822 182.751 29.2336C182.751 29.2336 182.751 29.1873 182.787 29.1774C182.824 29.1674 182.84 29.1277 182.864 29.0979L182.94 29.0549C183.036 29.0063 183.14 28.9771 183.248 28.9688C183.348 28.9577 183.449 28.9713 183.542 29.0085" fill="#5F6062"/>
<path d="M144.579 34.5534C144.431 34.2264 144.358 33.8698 144.368 33.5106V27.5917H142.947V33.5106C142.943 34.0647 143.05 34.6141 143.262 35.1261C143.457 35.6206 143.75 36.0709 144.123 36.4502C144.492 36.8265 144.93 37.1278 145.414 37.3374C145.911 37.5442 146.444 37.6478 146.983 37.6419H155.302V36.1986H146.983C146.634 36.1968 146.288 36.1259 145.966 35.9901C145.655 35.8475 145.371 35.6501 145.129 35.4075C144.891 35.1673 144.704 34.8812 144.579 34.5666" fill="#5F6062"/>
<path d="M63.9693 37.6287C62.8936 37.6317 61.8618 37.2023 61.1058 36.437C60.3529 35.6579 59.9367 34.6139 59.9472 33.5305V31.6965C59.9381 30.6134 60.3541 29.5699 61.1058 28.7901C61.8602 28.0217 62.8925 27.5897 63.9693 27.5917H71.2951C72.3747 27.5906 73.4087 28.0265 74.1618 28.8C74.9181 29.5784 75.3409 30.6212 75.3403 31.7065V33.5404C75.342 34.6259 74.919 35.6691 74.1618 36.4469C73.4053 37.2134 72.372 37.6429 71.2951 37.6386L63.9693 37.6287ZM71.2851 36.1854C71.5513 36.1838 71.8157 36.1425 72.0697 36.0629C72.2353 36.0202 72.3937 35.9533 72.5398 35.8643C72.7651 35.7414 72.9714 35.5864 73.1522 35.4041C73.3327 35.2268 73.4875 35.0251 73.6123 34.805C73.6879 34.6484 73.7499 34.4855 73.7977 34.3183C73.8668 34.0507 73.9089 33.7767 73.9235 33.5007V31.7197C73.9099 31.4479 73.8677 31.1783 73.7977 30.9153C73.7538 30.7468 73.6917 30.5836 73.6123 30.4287C73.4877 30.2055 73.3328 30.0005 73.1522 29.8196C72.9742 29.6323 72.7675 29.4748 72.5398 29.3528C72.3925 29.2663 72.2344 29.1995 72.0697 29.1542C71.8145 29.0804 71.5507 29.0404 71.2851 29.035H63.9858C63.718 29.039 63.4518 29.0791 63.1947 29.1542C63.03 29.2027 62.8712 29.2693 62.7213 29.3528C62.4983 29.4775 62.2952 29.6348 62.1188 29.8196C61.9412 29.9959 61.7926 30.1993 61.6785 30.4221C61.591 30.5732 61.5221 30.7344 61.4733 30.9021C61.4101 31.1705 61.3724 31.4442 61.3607 31.7197V33.5007C61.3722 33.7762 61.4099 34.05 61.4733 34.3183C61.5226 34.488 61.5915 34.6513 61.6785 34.805C61.7935 35.0262 61.942 35.2283 62.1188 35.4041C62.298 35.5839 62.5007 35.7387 62.7213 35.8643C62.8705 35.9493 63.0295 36.016 63.1947 36.0629C63.4507 36.1436 63.7174 36.1849 63.9858 36.1854H71.2851Z" fill="#5F6062"/>
<path d="M91.7629 29.035C91.9893 29.0407 92.2131 29.0843 92.425 29.1642C92.6318 29.2428 92.82 29.3634 92.9778 29.5184C93.1493 29.6499 93.2811 29.8264 93.3585 30.0281C93.4552 30.2176 93.5041 30.4279 93.5009 30.6406C93.5023 30.8587 93.4559 31.0745 93.3652 31.2728C93.2799 31.4616 93.161 31.6332 93.0143 31.7793C92.8501 31.9152 92.6673 32.0267 92.4714 32.1104C92.2599 32.1913 92.0357 32.2339 91.8093 32.2361H82.8714V29.035H91.7629ZM92.2496 33.6695C92.5782 33.6264 92.8972 33.5279 93.193 33.3782C93.4864 33.2398 93.7557 33.0554 93.9908 32.832C94.2884 32.5551 94.5212 32.2161 94.6727 31.8389C94.8476 31.4638 94.9369 31.0545 94.9342 30.6406C94.9371 30.1265 94.8047 29.6208 94.5503 29.1741C94.3046 28.7317 93.9503 28.3591 93.5207 28.0916C93.2627 27.9354 92.9857 27.813 92.6965 27.7275C92.3932 27.6384 92.079 27.5927 91.7629 27.5917H81.4678V37.6287H82.8813V33.7093H90.5182L93.3949 37.6287H95.1428C94.1729 36.3046 93.2294 34.9804 92.2496 33.6563" fill="#5F6062"/>
<path d="M114.79 29.035V27.5916H104.418C103.68 27.5858 102.972 27.8825 102.459 28.4127C101.949 28.9351 101.669 29.6393 101.681 30.3691C101.674 31.0962 101.958 31.796 102.469 32.3127C102.981 32.8294 103.678 33.12 104.405 33.12H111.688C112.126 33.1042 112.552 33.2625 112.873 33.5603C113.184 33.8437 113.362 34.2449 113.363 34.6659C113.362 35.0782 113.182 35.4698 112.87 35.7385C112.55 36.0372 112.126 36.1988 111.688 36.1887H101.694V37.6353H111.728C112.111 37.6238 112.49 37.5501 112.85 37.4168C113.214 37.2785 113.551 37.0755 113.843 36.8177C114.429 36.2687 114.773 35.5085 114.796 34.7057V34.6163C114.788 34.2195 114.703 33.8282 114.545 33.4643C114.379 33.1021 114.143 32.7768 113.85 32.5076C113.565 32.2341 113.227 32.0232 112.857 31.8886C112.499 31.7489 112.118 31.676 111.734 31.6734H104.445C104.22 31.6707 103.998 31.6139 103.799 31.5079C103.652 31.429 103.519 31.3261 103.405 31.2033C103.342 31.1233 103.29 31.0354 103.25 30.9418C103.162 30.7637 103.117 30.5677 103.117 30.3691C103.123 30.145 103.177 29.9247 103.276 29.7236C103.354 29.5696 103.467 29.4367 103.607 29.3363C103.681 29.2685 103.765 29.2126 103.856 29.1708C104.053 29.083 104.266 29.0368 104.481 29.035H114.79Z" fill="#5F6062"/>
<path d="M41.1412 37.6287H39.7178V27.5917H50.0758C50.8865 27.5972 51.6627 27.9205 52.2375 28.4921C52.8287 29.0517 53.1636 29.8299 53.1636 30.6439C53.1636 31.4579 52.8287 32.236 52.2375 32.7956C51.6346 33.3592 50.8447 33.6799 50.0196 33.696H41.1412V37.6287ZM41.1412 32.2527H50.0262C50.2526 32.2503 50.4767 32.2077 50.6883 32.1269C51.0915 31.9612 51.4192 31.6523 51.6085 31.2596C51.7938 30.87 51.7938 30.4177 51.6085 30.0281C51.5172 29.8352 51.389 29.662 51.2312 29.5184C51.0686 29.3694 50.8816 29.2496 50.6783 29.1642C50.4663 29.0849 50.2426 29.0413 50.0163 29.035H41.1412V32.2527Z" fill="#5F6062"/>
<path d="M162.498 31.9216C162.48 31.4999 162.551 31.0791 162.707 30.6869C162.835 30.3662 163.025 30.0739 163.266 29.8262C163.499 29.5746 163.785 29.3778 164.104 29.2502C164.417 29.1114 164.755 29.0382 165.097 29.035H173.442V27.5917H165.107C164.032 27.5901 163.003 28.0292 162.26 28.8066C161.492 29.5912 161.066 30.6482 161.075 31.7462V33.5371C161.069 34.6169 161.492 35.655 162.25 36.4237C162.998 37.1977 164.03 37.6329 165.107 37.6287H173.452V36.1854H165.12C164.069 36.1738 163.123 35.5465 162.704 34.5832C162.558 34.2009 162.488 33.7938 162.498 33.3848H173.452V31.9216H162.498Z" fill="#5F6062"/>
<path d="M124.141 31.9216C124.123 31.5024 124.193 31.0839 124.347 30.6935C124.475 30.3744 124.663 30.0824 124.9 29.8328C125.141 29.5854 125.431 29.3895 125.75 29.2568C126.063 29.1167 126.401 29.0434 126.743 29.0416H135.082V27.5917H126.757C125.681 27.5863 124.65 28.0232 123.906 28.8C123.138 29.5845 122.712 30.6415 122.721 31.7396V33.5305C122.716 34.6108 123.14 35.6489 123.9 36.4171C124.647 37.1927 125.68 37.6282 126.757 37.6221H135.095V36.1787H126.757C126.415 36.1747 126.078 36.1038 125.764 35.9702C125.449 35.8365 125.165 35.6418 124.926 35.3975C124.685 35.1638 124.493 34.8848 124.36 34.5765C124.222 34.1922 124.152 33.7866 124.155 33.3782H135.109V31.9216H124.141Z" fill="#5F6062"/>
</g>
<defs>
<clipPath id="clip0_2166_3427">
<rect width="240" height="38" fill="white" transform="translate(0.5)"/>
</clipPath>
</defs>
</svg>
